<svg width="730" height="480" viewBox="0 0 730 480" fill="none" xmlns="http://www.w3.org/2000/svg">
<g clip-path="url(#clip0)">
<rect width="730" height="480" fill="white"/>
<path d="M237.573 64.198C236.033 64.198 234.684 63.868 233.525 63.208C232.381 62.548 231.501 61.6167 230.885 60.414C230.269 59.1967 229.961 57.774 229.961 56.146C229.961 54.5327 230.269 53.1247 230.885 51.922C231.501 50.7047 232.381 49.7733 233.525 49.128C234.684 48.468 236.033 48.138 237.573 48.138C238.629 48.138 239.619 48.3067 240.543 48.644C241.482 48.9667 242.259 49.4213 242.875 50.008L241.951 52.076C241.247 51.504 240.543 51.0933 239.839 50.844C239.15 50.58 238.409 50.448 237.617 50.448C236.107 50.448 234.933 50.9393 234.097 51.922C233.276 52.9047 232.865 54.3127 232.865 56.146C232.865 57.994 233.276 59.4167 234.097 60.414C234.919 61.3967 236.092 61.888 237.617 61.888C238.409 61.888 239.15 61.7633 239.839 61.514C240.543 61.25 241.247 60.832 241.951 60.26L242.875 62.328C242.259 62.9147 241.482 63.3767 240.543 63.714C239.619 64.0367 238.629 64.198 237.573 64.198ZM245.33 64V52.89H248.058V64H245.33ZM245.154 47.852H248.212V50.558H245.154V47.852ZM257.05 52.626C257.476 52.626 257.842 52.6847 258.15 52.802L258.128 55.31C257.659 55.1193 257.175 55.024 256.676 55.024C255.738 55.024 255.019 55.2953 254.52 55.838C254.036 56.3807 253.794 57.0993 253.794 57.994V64H251.066V56.036C251.066 54.8627 251.008 53.814 250.89 52.89H253.464L253.684 54.848C253.963 54.1293 254.403 53.5793 255.004 53.198C255.606 52.8167 256.288 52.626 257.05 52.626ZM264.505 64.176C263.346 64.176 262.341 63.9413 261.491 63.472C260.64 63.0027 259.987 62.3427 259.533 61.492C259.078 60.6267 258.851 59.6147 258.851 58.456C258.851 57.2973 259.085 56.278 259.555 55.398C260.039 54.518 260.713 53.836 261.579 53.352C262.459 52.8533 263.471 52.604 264.615 52.604C265.407 52.604 266.169 52.7287 266.903 52.978C267.651 53.2273 268.245 53.572 268.685 54.012L267.915 55.948C267.445 55.5667 266.947 55.2807 266.419 55.09C265.891 54.8847 265.37 54.782 264.857 54.782C263.859 54.782 263.082 55.0973 262.525 55.728C261.967 56.344 261.689 57.2387 261.689 58.412C261.689 59.5853 261.96 60.48 262.503 61.096C263.06 61.712 263.845 62.02 264.857 62.02C265.37 62.02 265.891 61.9173 266.419 61.712C266.947 61.5067 267.445 61.2133 267.915 60.832L268.685 62.768C268.215 63.208 267.607 63.5527 266.859 63.802C266.111 64.0513 265.326 64.176 264.505 64.176ZM280.651 52.89V64H277.967V62.284C277.615 62.9 277.146 63.3693 276.559 63.692C275.972 64.0147 275.298 64.176 274.535 64.176C271.822 64.176 270.465 62.6507 270.465 59.6V52.89H273.193V59.622C273.193 60.4287 273.354 61.0227 273.677 61.404C274.014 61.7853 274.528 61.976 275.217 61.976C276.024 61.976 276.669 61.712 277.153 61.184C277.637 60.656 277.879 59.952 277.879 59.072V52.89H280.651ZM283.637 64V47.808H286.365V64H283.637ZM299.999 52.89V64H297.293V62.218C296.956 62.834 296.472 63.318 295.841 63.67C295.21 64.0073 294.492 64.176 293.685 64.176C292.717 64.176 291.859 63.9413 291.111 63.472C290.363 63.0027 289.784 62.3353 289.373 61.47C288.962 60.6047 288.757 59.6 288.757 58.456C288.757 57.312 288.962 56.3 289.373 55.42C289.798 54.5253 290.385 53.836 291.133 53.352C291.881 52.8533 292.732 52.604 293.685 52.604C294.492 52.604 295.21 52.78 295.841 53.132C296.472 53.4693 296.956 53.946 297.293 54.562V52.89H299.999ZM294.433 62.02C295.342 62.02 296.046 61.7047 296.545 61.074C297.044 60.4433 297.293 59.556 297.293 58.412C297.293 57.2387 297.044 56.3367 296.545 55.706C296.046 55.0753 295.335 54.76 294.411 54.76C293.502 54.76 292.79 55.09 292.277 55.75C291.778 56.3953 291.529 57.2973 291.529 58.456C291.529 59.6 291.778 60.48 292.277 61.096C292.79 61.712 293.509 62.02 294.433 62.02ZM306.492 54.958V59.93C306.492 61.2353 307.101 61.888 308.318 61.888C308.655 61.888 309.022 61.8293 309.418 61.712V63.89C308.934 64.066 308.347 64.154 307.658 64.154C306.397 64.154 305.429 63.802 304.754 63.098C304.079 62.394 303.742 61.382 303.742 60.062V54.958H301.608V52.89H303.742V50.184L306.492 49.26V52.89H309.44V54.958H306.492ZM311.33 64V52.89H314.058V64H311.33ZM311.154 47.852H314.212V50.558H311.154V47.852ZM323.424 52.604C326.079 52.604 327.406 54.1293 327.406 57.18V64H324.656V57.312C324.656 56.432 324.488 55.794 324.15 55.398C323.813 54.9873 323.292 54.782 322.588 54.782C321.752 54.782 321.078 55.0533 320.564 55.596C320.051 56.124 319.794 56.828 319.794 57.708V64H317.066V56.036C317.066 54.8627 317.008 53.814 316.89 52.89H319.464L319.662 54.716C320.044 54.0413 320.557 53.5207 321.202 53.154C321.862 52.7873 322.603 52.604 323.424 52.604ZM341.058 52.89V63.648C341.058 65.3787 340.582 66.6913 339.628 67.586C338.675 68.4807 337.274 68.928 335.426 68.928C333.71 68.928 332.2 68.5687 330.894 67.85L331.334 65.76C332.684 66.464 334.026 66.816 335.36 66.816C337.34 66.816 338.33 65.8333 338.33 63.868V61.668C337.993 62.2693 337.502 62.7607 336.856 63.142C336.211 63.5087 335.485 63.692 334.678 63.692C333.71 63.692 332.845 63.4647 332.082 63.01C331.334 62.5407 330.748 61.888 330.322 61.052C329.912 60.2013 329.706 59.2333 329.706 58.148C329.706 57.0627 329.912 56.102 330.322 55.266C330.748 54.4153 331.334 53.7627 332.082 53.308C332.845 52.8387 333.71 52.604 334.678 52.604C335.5 52.604 336.226 52.78 336.856 53.132C337.502 53.4693 337.993 53.946 338.33 54.562V52.89H341.058ZM335.404 61.536C336.314 61.536 337.025 61.2353 337.538 60.634C338.066 60.0327 338.33 59.204 338.33 58.148C338.33 57.092 338.074 56.2633 337.56 55.662C337.047 55.0607 336.328 54.76 335.404 54.76C334.495 54.76 333.776 55.0607 333.248 55.662C332.735 56.2633 332.478 57.092 332.478 58.148C332.478 59.204 332.735 60.0327 333.248 60.634C333.776 61.2353 334.495 61.536 335.404 61.536ZM353.938 64V50.668H348.834V48.336H361.924V50.668H356.798V64H353.938ZM366.985 64.176C365.856 64.176 364.859 63.9413 363.993 63.472C363.143 63.0027 362.483 62.3353 362.013 61.47C361.559 60.59 361.331 59.5633 361.331 58.39C361.331 57.2167 361.559 56.1973 362.013 55.332C362.483 54.452 363.143 53.7773 363.993 53.308C364.859 52.8387 365.856 52.604 366.985 52.604C368.1 52.604 369.083 52.8387 369.933 53.308C370.784 53.7773 371.437 54.452 371.891 55.332C372.361 56.1973 372.595 57.2167 372.595 58.39C372.595 59.5633 372.361 60.59 371.891 61.47C371.437 62.3353 370.784 63.0027 369.933 63.472C369.083 63.9413 368.1 64.176 366.985 64.176ZM366.963 62.02C367.902 62.02 368.613 61.7193 369.097 61.118C369.596 60.502 369.845 59.5927 369.845 58.39C369.845 57.202 369.596 56.3 369.097 55.684C368.599 55.0533 367.895 54.738 366.985 54.738C366.061 54.738 365.35 55.0533 364.851 55.684C364.353 56.3 364.103 57.202 364.103 58.39C364.103 59.5927 364.345 60.502 364.829 61.118C365.328 61.7193 366.039 62.02 366.963 62.02ZM385.989 64H382.557L377.695 58.874V64H374.967V47.808H377.695V57.796L382.271 52.912H385.593L380.599 58.214L385.989 64ZM396.658 58.588H389.002C389.06 59.776 389.354 60.656 389.882 61.228C390.424 61.7853 391.224 62.064 392.28 62.064C393.497 62.064 394.626 61.668 395.668 60.876L396.46 62.768C395.932 63.1933 395.279 63.538 394.502 63.802C393.739 64.0513 392.962 64.176 392.17 64.176C390.351 64.176 388.921 63.6627 387.88 62.636C386.838 61.6093 386.318 60.2013 386.318 58.412C386.318 57.2827 386.545 56.278 387 55.398C387.454 54.518 388.092 53.836 388.914 53.352C389.735 52.8533 390.666 52.604 391.708 52.604C393.233 52.604 394.436 53.1027 395.316 54.1C396.21 55.0827 396.658 56.4393 396.658 58.17V58.588ZM391.774 54.584C391.04 54.584 390.439 54.804 389.97 55.244C389.515 55.6693 389.222 56.2927 389.09 57.114H394.26C394.172 56.278 393.915 55.6473 393.49 55.222C393.079 54.7967 392.507 54.584 391.774 54.584ZM405.344 52.604C407.999 52.604 409.326 54.1293 409.326 57.18V64H406.576V57.312C406.576 56.432 406.408 55.794 406.07 55.398C405.733 54.9873 405.212 54.782 404.508 54.782C403.672 54.782 402.998 55.0533 402.484 55.596C401.971 56.124 401.714 56.828 401.714 57.708V64H398.986V56.036C398.986 54.8627 398.928 53.814 398.81 52.89H401.384L401.582 54.716C401.964 54.0413 402.477 53.5207 403.122 53.154C403.782 52.7873 404.523 52.604 405.344 52.604ZM416.312 64.176C414.303 64.176 412.704 63.7067 411.516 62.768L412.286 60.832C413.474 61.712 414.831 62.152 416.356 62.152C417.016 62.152 417.522 62.042 417.874 61.822C418.241 61.602 418.424 61.294 418.424 60.898C418.424 60.5607 418.299 60.2967 418.05 60.106C417.801 59.9007 417.375 59.7247 416.774 59.578L414.926 59.16C412.902 58.72 411.89 57.686 411.89 56.058C411.89 55.3833 412.081 54.7893 412.462 54.276C412.843 53.748 413.379 53.3373 414.068 53.044C414.757 52.7507 415.557 52.604 416.466 52.604C417.258 52.604 418.021 52.7287 418.754 52.978C419.487 53.2127 420.133 53.5573 420.69 54.012L419.876 55.882C418.761 55.0607 417.617 54.65 416.444 54.65C415.813 54.65 415.322 54.7673 414.97 55.002C414.618 55.2367 414.442 55.5593 414.442 55.97C414.442 56.2927 414.545 56.5493 414.75 56.74C414.97 56.9307 415.337 57.092 415.85 57.224L417.742 57.642C418.842 57.8913 419.641 58.28 420.14 58.808C420.653 59.3213 420.91 59.996 420.91 60.832C420.91 61.8587 420.499 62.6727 419.678 63.274C418.857 63.8753 417.735 64.176 416.312 64.176ZM432.777 68.004C431.794 66.2587 431.09 64.6087 430.665 63.054C430.254 61.4993 430.049 59.864 430.049 58.148C430.049 56.432 430.261 54.7893 430.687 53.22C431.112 51.636 431.809 50.008 432.777 48.336H435.021C434.214 50.2867 433.657 52.0173 433.349 53.528C433.041 55.0387 432.887 56.5787 432.887 58.148C432.887 59.7027 433.041 61.2427 433.349 62.768C433.657 64.2787 434.199 66.024 434.977 68.004H432.777ZM446.955 55.904C447.864 56.168 448.561 56.63 449.045 57.29C449.544 57.95 449.793 58.764 449.793 59.732C449.793 61.0667 449.316 62.1153 448.363 62.878C447.424 63.626 446.112 64 444.425 64H437.319V48.336H444.205C445.818 48.336 447.087 48.7027 448.011 49.436C448.935 50.1547 449.397 51.152 449.397 52.428C449.397 53.2493 449.177 53.968 448.737 54.584C448.312 55.1853 447.718 55.6253 446.955 55.904ZM440.091 54.936H443.743C445.708 54.936 446.691 54.2027 446.691 52.736C446.691 52.0027 446.449 51.4527 445.965 51.086C445.481 50.7193 444.74 50.536 443.743 50.536H440.091V54.936ZM444.117 61.8C445.144 61.8 445.892 61.6167 446.361 61.25C446.845 60.8833 447.087 60.304 447.087 59.512C447.087 58.7053 446.845 58.1113 446.361 57.73C445.892 57.3487 445.144 57.158 444.117 57.158H440.091V61.8H444.117ZM455.06 61.734H463.398V64H451.892V61.932L459.944 50.602H451.892V48.336H463.156V50.382L455.06 61.734ZM478.785 64H475.793L473.791 58.786C473.615 58.302 473.344 57.9647 472.977 57.774C472.611 57.5833 472.134 57.488 471.547 57.488H468.709V64H465.893V48.336H472.603C474.378 48.336 475.727 48.7247 476.651 49.502C477.575 50.2793 478.037 51.394 478.037 52.846C478.037 53.8873 477.759 54.7747 477.201 55.508C476.659 56.2267 475.881 56.74 474.869 57.048C475.793 57.2387 476.461 57.884 476.871 58.984L478.785 64ZM472.207 55.288C473.278 55.288 474.07 55.09 474.583 54.694C475.097 54.298 475.353 53.6967 475.353 52.89C475.353 52.098 475.097 51.5113 474.583 51.13C474.085 50.734 473.293 50.536 472.207 50.536H468.665V55.288H472.207ZM488.408 56.036L494.37 64H491.048L486.802 58.148L482.556 64H479.234L485.196 56.014L479.432 48.336H482.754L486.802 53.946L490.894 48.336H494.194L488.408 56.036ZM495.044 68.004C495.822 66.024 496.364 64.2787 496.672 62.768C496.98 61.2427 497.134 59.7027 497.134 58.148C497.134 56.5787 496.98 55.0387 496.672 53.528C496.364 52.0173 495.814 50.2867 495.022 48.336H497.222C498.19 50.008 498.887 51.636 499.312 53.22C499.752 54.7893 499.972 56.432 499.972 58.148C499.972 59.8493 499.76 61.4847 499.334 63.054C498.909 64.6087 498.212 66.2587 497.244 68.004H495.044Z" fill="#000085"/>
<path d="M62.7086 192.034H64.9066V193H59.3486V192.034H61.5466V184.46L59.5026 185.762V184.656L62.0506 183.032H62.7086V192.034ZM66.8472 191.558H68.2892V193H66.8472V191.558ZM73.3914 193.112C72.2527 193.112 71.3847 192.683 70.7874 191.824C70.1994 190.956 69.9054 189.687 69.9054 188.016C69.9054 186.345 70.1994 185.081 70.7874 184.222C71.3847 183.354 72.2527 182.92 73.3914 182.92C74.5301 182.92 75.3934 183.354 75.9814 184.222C76.5787 185.081 76.8774 186.341 76.8774 188.002C76.8774 189.673 76.5787 190.942 75.9814 191.81C75.3934 192.678 74.5301 193.112 73.3914 193.112ZM73.3914 192.146C74.1847 192.146 74.7681 191.81 75.1414 191.138C75.5241 190.466 75.7154 189.421 75.7154 188.002C75.7154 186.593 75.5287 185.557 75.1554 184.894C74.7821 184.231 74.1941 183.9 73.3914 183.9C72.5981 183.9 72.0101 184.231 71.6274 184.894C71.2541 185.557 71.0674 186.593 71.0674 188.002C71.0674 189.411 71.2541 190.457 71.6274 191.138C72.0101 191.81 72.5981 192.146 73.3914 192.146ZM81.7859 193.112C80.6473 193.112 79.7793 192.683 79.1819 191.824C78.5939 190.956 78.2999 189.687 78.2999 188.016C78.2999 186.345 78.5939 185.081 79.1819 184.222C79.7793 183.354 80.6473 182.92 81.7859 182.92C82.9246 182.92 83.7879 183.354 84.3759 184.222C84.9733 185.081 85.2719 186.341 85.2719 188.002C85.2719 189.673 84.9733 190.942 84.3759 191.81C83.7879 192.678 82.9246 193.112 81.7859 193.112ZM81.7859 192.146C82.5793 192.146 83.1626 191.81 83.5359 191.138C83.9186 190.466 84.1099 189.421 84.1099 188.002C84.1099 186.593 83.9233 185.557 83.5499 184.894C83.1766 184.231 82.5886 183.9 81.7859 183.9C80.9926 183.9 80.4046 184.231 80.0219 184.894C79.6486 185.557 79.4619 186.593 79.4619 188.002C79.4619 189.411 79.6486 190.457 80.0219 191.138C80.4046 191.81 80.9926 192.146 81.7859 192.146ZM87.2125 193V183.032H93.5125V183.984H88.3465V187.456H93.2325V188.422H88.3465V192.048H93.5125V193H87.2125ZM101.855 188.534V189.416H98.8449V192.426H97.9769V189.416H94.9669V188.534H97.9769V185.524H98.8449V188.534H101.855ZM106.497 182.92C107.701 182.92 108.63 183.34 109.283 184.18C109.937 185.02 110.263 186.215 110.263 187.764C110.263 189.453 109.923 190.769 109.241 191.712C108.569 192.645 107.627 193.112 106.413 193.112C105.844 193.112 105.284 193.005 104.733 192.79C104.192 192.575 103.711 192.272 103.291 191.88L103.739 190.998C104.215 191.399 104.668 191.693 105.097 191.88C105.527 192.057 105.961 192.146 106.399 192.146C107.258 192.146 107.921 191.763 108.387 190.998C108.863 190.233 109.101 189.159 109.101 187.778V187.596C108.887 188.119 108.537 188.534 108.051 188.842C107.566 189.141 107.011 189.29 106.385 189.29C105.779 189.29 105.242 189.159 104.775 188.898C104.309 188.627 103.945 188.254 103.683 187.778C103.422 187.293 103.291 186.742 103.291 186.126C103.291 185.51 103.427 184.959 103.697 184.474C103.977 183.989 104.36 183.611 104.845 183.34C105.331 183.06 105.881 182.92 106.497 182.92ZM106.567 188.324C107.221 188.324 107.753 188.119 108.163 187.708C108.574 187.297 108.779 186.765 108.779 186.112C108.779 185.449 108.574 184.913 108.163 184.502C107.753 184.091 107.216 183.886 106.553 183.886C105.919 183.886 105.405 184.091 105.013 184.502C104.621 184.903 104.425 185.44 104.425 186.112C104.425 186.775 104.621 187.311 105.013 187.722C105.405 188.123 105.923 188.324 106.567 188.324Z" fill="#A7B3BF"/>
<path opacity="0.3" d="M123 247H699" stroke="#A7B3BF"/>
<path d="M62.7086 135.034H64.9066V136H59.3486V135.034H61.5466V127.46L59.5026 128.762V127.656L62.0506 126.032H62.7086V135.034ZM66.8472 134.558H68.2892V136H66.8472V134.558ZM76.7654 135.034V136H70.3534V135.132L73.8394 131.268C74.3061 130.745 74.6467 130.274 74.8614 129.854C75.0761 129.434 75.1834 129.014 75.1834 128.594C75.1834 128.043 75.0247 127.623 74.7074 127.334C74.3901 127.035 73.9374 126.886 73.3494 126.886C72.3974 126.886 71.4547 127.269 70.5214 128.034L70.0874 127.152C70.4794 126.779 70.9741 126.48 71.5714 126.256C72.1687 126.032 72.7707 125.92 73.3774 125.92C74.2921 125.92 75.0154 126.158 75.5474 126.634C76.0794 127.101 76.3454 127.735 76.3454 128.538C76.3454 129.107 76.2147 129.658 75.9534 130.19C75.7014 130.713 75.2767 131.301 74.6794 131.954L71.8374 135.034H76.7654ZM82.2059 129.742C82.8313 129.742 83.3773 129.877 83.8439 130.148C84.3199 130.409 84.6839 130.778 84.9359 131.254C85.1879 131.73 85.3139 132.281 85.3139 132.906C85.3139 133.531 85.1739 134.087 84.8939 134.572C84.6233 135.057 84.2313 135.435 83.7179 135.706C83.2139 135.967 82.6213 136.098 81.9399 136.098C81.3333 136.098 80.7359 135.991 80.1479 135.776C79.5599 135.552 79.0653 135.249 78.6639 134.866L79.0979 133.984C80.0219 134.749 80.9693 135.132 81.9399 135.132C82.6399 135.132 83.1859 134.936 83.5779 134.544C83.9793 134.143 84.1799 133.601 84.1799 132.92C84.1799 132.257 83.9839 131.725 83.5919 131.324C83.1999 130.913 82.6773 130.708 82.0239 130.708C81.0719 130.708 80.3113 131.095 79.7419 131.87H78.9439V126.032H84.9219V126.984H80.0919V130.54C80.6426 130.008 81.3473 129.742 82.2059 129.742ZM87.2125 136V126.032H93.5125V126.984H88.3465V130.456H93.2325V131.422H88.3465V135.048H93.5125V136H87.2125ZM101.855 131.534V132.416H98.8449V135.426H97.9769V132.416H94.9669V131.534H97.9769V128.524H98.8449V131.534H101.855ZM106.497 125.92C107.701 125.92 108.63 126.34 109.283 127.18C109.937 128.02 110.263 129.215 110.263 130.764C110.263 132.453 109.923 133.769 109.241 134.712C108.569 135.645 107.627 136.112 106.413 136.112C105.844 136.112 105.284 136.005 104.733 135.79C104.192 135.575 103.711 135.272 103.291 134.88L103.739 133.998C104.215 134.399 104.668 134.693 105.097 134.88C105.527 135.057 105.961 135.146 106.399 135.146C107.258 135.146 107.921 134.763 108.387 133.998C108.863 133.233 109.101 132.159 109.101 130.778V130.596C108.887 131.119 108.537 131.534 108.051 131.842C107.566 132.141 107.011 132.29 106.385 132.29C105.779 132.29 105.242 132.159 104.775 131.898C104.309 131.627 103.945 131.254 103.683 130.778C103.422 130.293 103.291 129.742 103.291 129.126C103.291 128.51 103.427 127.959 103.697 127.474C103.977 126.989 104.36 126.611 104.845 126.34C105.331 126.06 105.881 125.92 106.497 125.92ZM106.567 131.324C107.221 131.324 107.753 131.119 108.163 130.708C108.574 130.297 108.779 129.765 108.779 129.112C108.779 128.449 108.574 127.913 108.163 127.502C107.753 127.091 107.216 126.886 106.553 126.886C105.919 126.886 105.405 127.091 105.013 127.502C104.621 127.903 104.425 128.44 104.425 129.112C104.425 129.775 104.621 130.311 105.013 130.722C105.405 131.123 105.923 131.324 106.567 131.324Z" fill="#A7B3BF"/>
<path opacity="0.3" d="M123 190H699" stroke="#A7B3BF"/>
<path opacity="0.3" d="M123 134H699" stroke="#A7B3BF"/>
<path d="M58.4666 240.032H65.0466V240.886L60.3706 250H59.1386L63.7866 240.998H58.4666V240.032ZM66.8472 248.558H68.2892V250H66.8472V248.558ZM73.8114 243.742C74.4367 243.742 74.9827 243.877 75.4494 244.148C75.9254 244.409 76.2894 244.778 76.5414 245.254C76.7934 245.73 76.9194 246.281 76.9194 246.906C76.9194 247.531 76.7794 248.087 76.4994 248.572C76.2287 249.057 75.8367 249.435 75.3234 249.706C74.8194 249.967 74.2267 250.098 73.5454 250.098C72.9387 250.098 72.3414 249.991 71.7534 249.776C71.1654 249.552 70.6707 249.249 70.2694 248.866L70.7034 247.984C71.6274 248.749 72.5747 249.132 73.5454 249.132C74.2454 249.132 74.7914 248.936 75.1834 248.544C75.5847 248.143 75.7854 247.601 75.7854 246.92C75.7854 246.257 75.5894 245.725 75.1974 245.324C74.8054 244.913 74.2827 244.708 73.6294 244.708C72.6774 244.708 71.9167 245.095 71.3474 245.87H70.5494V240.032H76.5274V240.984H71.6974V244.54C72.2481 244.008 72.9527 243.742 73.8114 243.742ZM81.7859 250.112C80.6473 250.112 79.7793 249.683 79.1819 248.824C78.5939 247.956 78.2999 246.687 78.2999 245.016C78.2999 243.345 78.5939 242.081 79.1819 241.222C79.7793 240.354 80.6473 239.92 81.7859 239.92C82.9246 239.92 83.7879 240.354 84.3759 241.222C84.9733 242.081 85.2719 243.341 85.2719 245.002C85.2719 246.673 84.9733 247.942 84.3759 248.81C83.7879 249.678 82.9246 250.112 81.7859 250.112ZM81.7859 249.146C82.5793 249.146 83.1626 248.81 83.5359 248.138C83.9186 247.466 84.1099 246.421 84.1099 245.002C84.1099 243.593 83.9233 242.557 83.5499 241.894C83.1766 241.231 82.5886 240.9 81.7859 240.9C80.9926 240.9 80.4046 241.231 80.0219 241.894C79.6486 242.557 79.4619 243.593 79.4619 245.002C79.4619 246.411 79.6486 247.457 80.0219 248.138C80.4046 248.81 80.9926 249.146 81.7859 249.146ZM87.2125 250V240.032H93.5125V240.984H88.3465V244.456H93.2325V245.422H88.3465V249.048H93.5125V250H87.2125ZM101.855 245.534V246.416H98.8449V249.426H97.9769V246.416H94.9669V245.534H97.9769V242.524H98.8449V245.534H101.855ZM108.317 244.876C108.971 245.053 109.475 245.361 109.829 245.8C110.193 246.229 110.375 246.747 110.375 247.354C110.375 248.203 110.053 248.875 109.409 249.37C108.765 249.855 107.897 250.098 106.805 250.098C105.713 250.098 104.845 249.855 104.201 249.37C103.557 248.875 103.235 248.203 103.235 247.354C103.235 246.747 103.417 246.225 103.781 245.786C104.155 245.347 104.663 245.044 105.307 244.876C104.71 244.699 104.253 244.409 103.935 244.008C103.618 243.597 103.459 243.117 103.459 242.566C103.459 242.034 103.599 241.572 103.879 241.18C104.159 240.779 104.551 240.471 105.055 240.256C105.569 240.032 106.152 239.92 106.805 239.92C107.459 239.92 108.037 240.032 108.541 240.256C109.055 240.471 109.451 240.779 109.731 241.18C110.011 241.572 110.151 242.034 110.151 242.566C110.151 243.117 109.988 243.597 109.661 244.008C109.344 244.409 108.896 244.699 108.317 244.876ZM104.607 242.65C104.607 243.182 104.803 243.616 105.195 243.952C105.597 244.279 106.133 244.479 106.805 244.554C107.477 244.479 108.009 244.279 108.401 243.952C108.803 243.616 109.003 243.182 109.003 242.65C109.003 242.099 108.807 241.665 108.415 241.348C108.033 241.031 107.496 240.872 106.805 240.872C106.115 240.872 105.573 241.031 105.181 241.348C104.799 241.665 104.607 242.099 104.607 242.65ZM106.805 249.146C107.589 249.146 108.191 248.987 108.611 248.67C109.031 248.353 109.241 247.891 109.241 247.284C109.241 246.733 109.017 246.295 108.569 245.968C108.131 245.632 107.543 245.427 106.805 245.352C106.068 245.427 105.475 245.632 105.027 245.968C104.589 246.295 104.369 246.733 104.369 247.284C104.369 247.891 104.579 248.353 104.999 248.67C105.419 248.987 106.021 249.146 106.805 249.146Z" fill="#A7B3BF"/>
<path opacity="0.3" d="M123 304H699" stroke="#A7B3BF"/>
<path d="M62.1766 300.742C62.802 300.742 63.348 300.877 63.8146 301.148C64.2906 301.409 64.6546 301.778 64.9066 302.254C65.1586 302.73 65.2846 303.281 65.2846 303.906C65.2846 304.531 65.1446 305.087 64.8646 305.572C64.594 306.057 64.202 306.435 63.6886 306.706C63.1846 306.967 62.592 307.098 61.9106 307.098C61.304 307.098 60.7066 306.991 60.1186 306.776C59.5306 306.552 59.036 306.249 58.6346 305.866L59.0686 304.984C59.9926 305.749 60.94 306.132 61.9106 306.132C62.6106 306.132 63.1566 305.936 63.5486 305.544C63.95 305.143 64.1506 304.601 64.1506 303.92C64.1506 303.257 63.9546 302.725 63.5626 302.324C63.1706 301.913 62.648 301.708 61.9946 301.708C61.0426 301.708 60.282 302.095 59.7126 302.87H58.9146V297.032H64.8926V297.984H60.0626V301.54C60.6133 301.008 61.318 300.742 62.1766 300.742ZM66.8472 305.558H68.2892V307H66.8472V305.558ZM73.3914 307.112C72.2527 307.112 71.3847 306.683 70.7874 305.824C70.1994 304.956 69.9054 303.687 69.9054 302.016C69.9054 300.345 70.1994 299.081 70.7874 298.222C71.3847 297.354 72.2527 296.92 73.3914 296.92C74.5301 296.92 75.3934 297.354 75.9814 298.222C76.5787 299.081 76.8774 300.341 76.8774 302.002C76.8774 303.673 76.5787 304.942 75.9814 305.81C75.3934 306.678 74.5301 307.112 73.3914 307.112ZM73.3914 306.146C74.1847 306.146 74.7681 305.81 75.1414 305.138C75.5241 304.466 75.7154 303.421 75.7154 302.002C75.7154 300.593 75.5287 299.557 75.1554 298.894C74.7821 298.231 74.1941 297.9 73.3914 297.9C72.5981 297.9 72.0101 298.231 71.6274 298.894C71.2541 299.557 71.0674 300.593 71.0674 302.002C71.0674 303.411 71.2541 304.457 71.6274 305.138C72.0101 305.81 72.5981 306.146 73.3914 306.146ZM81.7859 307.112C80.6473 307.112 79.7793 306.683 79.1819 305.824C78.5939 304.956 78.2999 303.687 78.2999 302.016C78.2999 300.345 78.5939 299.081 79.1819 298.222C79.7793 297.354 80.6473 296.92 81.7859 296.92C82.9246 296.92 83.7879 297.354 84.3759 298.222C84.9733 299.081 85.2719 300.341 85.2719 302.002C85.2719 303.673 84.9733 304.942 84.3759 305.81C83.7879 306.678 82.9246 307.112 81.7859 307.112ZM81.7859 306.146C82.5793 306.146 83.1626 305.81 83.5359 305.138C83.9186 304.466 84.1099 303.421 84.1099 302.002C84.1099 300.593 83.9233 299.557 83.5499 298.894C83.1766 298.231 82.5886 297.9 81.7859 297.9C80.9926 297.9 80.4046 298.231 80.0219 298.894C79.6486 299.557 79.4619 300.593 79.4619 302.002C79.4619 303.411 79.6486 304.457 80.0219 305.138C80.4046 305.81 80.9926 306.146 81.7859 306.146ZM87.2125 307V297.032H93.5125V297.984H88.3465V301.456H93.2325V302.422H88.3465V306.048H93.5125V307H87.2125ZM101.855 302.534V303.416H98.8449V306.426H97.9769V303.416H94.9669V302.534H97.9769V299.524H98.8449V302.534H101.855ZM108.317 301.876C108.971 302.053 109.475 302.361 109.829 302.8C110.193 303.229 110.375 303.747 110.375 304.354C110.375 305.203 110.053 305.875 109.409 306.37C108.765 306.855 107.897 307.098 106.805 307.098C105.713 307.098 104.845 306.855 104.201 306.37C103.557 305.875 103.235 305.203 103.235 304.354C103.235 303.747 103.417 303.225 103.781 302.786C104.155 302.347 104.663 302.044 105.307 301.876C104.71 301.699 104.253 301.409 103.935 301.008C103.618 300.597 103.459 300.117 103.459 299.566C103.459 299.034 103.599 298.572 103.879 298.18C104.159 297.779 104.551 297.471 105.055 297.256C105.569 297.032 106.152 296.92 106.805 296.92C107.459 296.92 108.037 297.032 108.541 297.256C109.055 297.471 109.451 297.779 109.731 298.18C110.011 298.572 110.151 299.034 110.151 299.566C110.151 300.117 109.988 300.597 109.661 301.008C109.344 301.409 108.896 301.699 108.317 301.876ZM104.607 299.65C104.607 300.182 104.803 300.616 105.195 300.952C105.597 301.279 106.133 301.479 106.805 301.554C107.477 301.479 108.009 301.279 108.401 300.952C108.803 300.616 109.003 300.182 109.003 299.65C109.003 299.099 108.807 298.665 108.415 298.348C108.033 298.031 107.496 297.872 106.805 297.872C106.115 297.872 105.573 298.031 105.181 298.348C104.799 298.665 104.607 299.099 104.607 299.65ZM106.805 306.146C107.589 306.146 108.191 305.987 108.611 305.67C109.031 305.353 109.241 304.891 109.241 304.284C109.241 303.733 109.017 303.295 108.569 302.968C108.131 302.632 107.543 302.427 106.805 302.352C106.068 302.427 105.475 302.632 105.027 302.968C104.589 303.295 104.369 303.733 104.369 304.284C104.369 304.891 104.579 305.353 104.999 305.67C105.419 305.987 106.021 306.146 106.805 306.146Z" fill="#A7B3BF"/>
<path opacity="0.3" d="M123 362H699" stroke="#A7B3BF"/>
<path d="M65.1306 363.034V364H58.7186V363.132L62.2046 359.268C62.6713 358.745 63.012 358.274 63.2266 357.854C63.4413 357.434 63.5486 357.014 63.5486 356.594C63.5486 356.043 63.39 355.623 63.0726 355.334C62.7553 355.035 62.3026 354.886 61.7146 354.886C60.7626 354.886 59.82 355.269 58.8866 356.034L58.4526 355.152C58.8446 354.779 59.3393 354.48 59.9366 354.256C60.534 354.032 61.136 353.92 61.7426 353.92C62.6573 353.92 63.3806 354.158 63.9126 354.634C64.4446 355.101 64.7106 355.735 64.7106 356.538C64.7106 357.107 64.58 357.658 64.3186 358.19C64.0666 358.713 63.642 359.301 63.0446 359.954L60.2026 363.034H65.1306ZM66.8472 362.558H68.2892V364H66.8472V362.558ZM73.8114 357.742C74.4367 357.742 74.9827 357.877 75.4494 358.148C75.9254 358.409 76.2894 358.778 76.5414 359.254C76.7934 359.73 76.9194 360.281 76.9194 360.906C76.9194 361.531 76.7794 362.087 76.4994 362.572C76.2287 363.057 75.8367 363.435 75.3234 363.706C74.8194 363.967 74.2267 364.098 73.5454 364.098C72.9387 364.098 72.3414 363.991 71.7534 363.776C71.1654 363.552 70.6707 363.249 70.2694 362.866L70.7034 361.984C71.6274 362.749 72.5747 363.132 73.5454 363.132C74.2454 363.132 74.7914 362.936 75.1834 362.544C75.5847 362.143 75.7854 361.601 75.7854 360.92C75.7854 360.257 75.5894 359.725 75.1974 359.324C74.8054 358.913 74.2827 358.708 73.6294 358.708C72.6774 358.708 71.9167 359.095 71.3474 359.87H70.5494V354.032H76.5274V354.984H71.6974V358.54C72.2481 358.008 72.9527 357.742 73.8114 357.742ZM81.7859 364.112C80.6473 364.112 79.7793 363.683 79.1819 362.824C78.5939 361.956 78.2999 360.687 78.2999 359.016C78.2999 357.345 78.5939 356.081 79.1819 355.222C79.7793 354.354 80.6473 353.92 81.7859 353.92C82.9246 353.92 83.7879 354.354 84.3759 355.222C84.9733 356.081 85.2719 357.341 85.2719 359.002C85.2719 360.673 84.9733 361.942 84.3759 362.81C83.7879 363.678 82.9246 364.112 81.7859 364.112ZM81.7859 363.146C82.5793 363.146 83.1626 362.81 83.5359 362.138C83.9186 361.466 84.1099 360.421 84.1099 359.002C84.1099 357.593 83.9233 356.557 83.5499 355.894C83.1766 355.231 82.5886 354.9 81.7859 354.9C80.9926 354.9 80.4046 355.231 80.0219 355.894C79.6486 356.557 79.4619 357.593 79.4619 359.002C79.4619 360.411 79.6486 361.457 80.0219 362.138C80.4046 362.81 80.9926 363.146 81.7859 363.146ZM87.2125 364V354.032H93.5125V354.984H88.3465V358.456H93.2325V359.422H88.3465V363.048H93.5125V364H87.2125ZM101.855 359.534V360.416H98.8449V363.426H97.9769V360.416H94.9669V359.534H97.9769V356.524H98.8449V359.534H101.855ZM108.317 358.876C108.971 359.053 109.475 359.361 109.829 359.8C110.193 360.229 110.375 360.747 110.375 361.354C110.375 362.203 110.053 362.875 109.409 363.37C108.765 363.855 107.897 364.098 106.805 364.098C105.713 364.098 104.845 363.855 104.201 363.37C103.557 362.875 103.235 362.203 103.235 361.354C103.235 360.747 103.417 360.225 103.781 359.786C104.155 359.347 104.663 359.044 105.307 358.876C104.71 358.699 104.253 358.409 103.935 358.008C103.618 357.597 103.459 357.117 103.459 356.566C103.459 356.034 103.599 355.572 103.879 355.18C104.159 354.779 104.551 354.471 105.055 354.256C105.569 354.032 106.152 353.92 106.805 353.92C107.459 353.92 108.037 354.032 108.541 354.256C109.055 354.471 109.451 354.779 109.731 355.18C110.011 355.572 110.151 356.034 110.151 356.566C110.151 357.117 109.988 357.597 109.661 358.008C109.344 358.409 108.896 358.699 108.317 358.876ZM104.607 356.65C104.607 357.182 104.803 357.616 105.195 357.952C105.597 358.279 106.133 358.479 106.805 358.554C107.477 358.479 108.009 358.279 108.401 357.952C108.803 357.616 109.003 357.182 109.003 356.65C109.003 356.099 108.807 355.665 108.415 355.348C108.033 355.031 107.496 354.872 106.805 354.872C106.115 354.872 105.573 355.031 105.181 355.348C104.799 355.665 104.607 356.099 104.607 356.65ZM106.805 363.146C107.589 363.146 108.191 362.987 108.611 362.67C109.031 362.353 109.241 361.891 109.241 361.284C109.241 360.733 109.017 360.295 108.569 359.968C108.131 359.632 107.543 359.427 106.805 359.352C106.068 359.427 105.475 359.632 105.027 359.968C104.589 360.295 104.369 360.733 104.369 361.284C104.369 361.891 104.579 362.353 104.999 362.67C105.419 362.987 106.021 363.146 106.805 363.146Z" fill="#A7B3BF"/>
<path d="M106.805 421.112C105.667 421.112 104.799 420.683 104.201 419.824C103.613 418.956 103.319 417.687 103.319 416.016C103.319 414.345 103.613 413.081 104.201 412.222C104.799 411.354 105.667 410.92 106.805 410.92C107.944 410.92 108.807 411.354 109.395 412.222C109.993 413.081 110.291 414.341 110.291 416.002C110.291 417.673 109.993 418.942 109.395 419.81C108.807 420.678 107.944 421.112 106.805 421.112ZM106.805 420.146C107.599 420.146 108.182 419.81 108.555 419.138C108.938 418.466 109.129 417.421 109.129 416.002C109.129 414.593 108.943 413.557 108.569 412.894C108.196 412.231 107.608 411.9 106.805 411.9C106.012 411.9 105.424 412.231 105.041 412.894C104.668 413.557 104.481 414.593 104.481 416.002C104.481 417.411 104.668 418.457 105.041 419.138C105.424 419.81 106.012 420.146 106.805 420.146Z" fill="#A7B3BF"/>
<path opacity="0.3" d="M123 419H699" stroke="#525B64"/>
<path d="M151.014 439.784C151.374 439.848 151.662 439.88 151.878 439.88C152.286 439.88 152.57 439.764 152.73 439.532C152.898 439.308 152.982 438.92 152.982 438.368V429.956H153.966V438.38C153.966 439.212 153.814 439.812 153.51 440.18C153.214 440.548 152.722 440.732 152.034 440.732C151.762 440.732 151.422 440.7 151.014 440.636V439.784ZM161.275 432.464V438.5H160.315V437.408C160.139 437.784 159.871 438.076 159.511 438.284C159.159 438.484 158.747 438.584 158.275 438.584C157.739 438.584 157.267 438.456 156.859 438.2C156.459 437.944 156.147 437.584 155.923 437.12C155.707 436.648 155.599 436.1 155.599 435.476C155.599 434.852 155.711 434.304 155.935 433.832C156.159 433.352 156.471 432.98 156.871 432.716C157.279 432.452 157.747 432.32 158.275 432.32C158.747 432.32 159.159 432.424 159.511 432.632C159.863 432.84 160.131 433.132 160.315 433.508V432.464H161.275ZM158.467 437.78C159.059 437.78 159.515 437.58 159.835 437.18C160.155 436.772 160.315 436.196 160.315 435.452C160.315 434.708 160.155 434.136 159.835 433.736C159.515 433.336 159.059 433.136 158.467 433.136C157.875 433.136 157.411 433.344 157.075 433.76C156.747 434.168 156.583 434.74 156.583 435.476C156.583 436.212 156.747 436.78 157.075 437.18C157.403 437.58 157.867 437.78 158.467 437.78ZM166.167 432.32C167.615 432.32 168.339 433.116 168.339 434.708V438.5H167.367V434.756C167.367 434.196 167.255 433.788 167.031 433.532C166.807 433.268 166.455 433.136 165.975 433.136C165.415 433.136 164.967 433.308 164.631 433.652C164.295 433.996 164.127 434.46 164.127 435.044V438.5H163.155V434.156C163.155 433.532 163.123 432.968 163.059 432.464H163.983L164.079 433.544C164.263 433.152 164.539 432.852 164.907 432.644C165.275 432.428 165.695 432.32 166.167 432.32ZM170.006 437.264H171.242V438.5H170.006V437.264ZM181.637 437.672V438.5H176.141V437.756L179.129 434.444C179.529 433.996 179.821 433.592 180.005 433.232C180.189 432.872 180.281 432.512 180.281 432.152C180.281 431.68 180.145 431.32 179.873 431.072C179.601 430.816 179.213 430.688 178.709 430.688C177.893 430.688 177.085 431.016 176.285 431.672L175.913 430.916C176.249 430.596 176.673 430.34 177.185 430.148C177.697 429.956 178.213 429.86 178.733 429.86C179.517 429.86 180.137 430.064 180.593 430.472C181.049 430.872 181.277 431.416 181.277 432.104C181.277 432.592 181.165 433.064 180.941 433.52C180.725 433.968 180.361 434.472 179.849 435.032L177.413 437.672H181.637ZM185.94 438.596C184.964 438.596 184.22 438.228 183.708 437.492C183.204 436.748 182.952 435.66 182.952 434.228C182.952 432.796 183.204 431.712 183.708 430.976C184.22 430.232 184.964 429.86 185.94 429.86C186.916 429.86 187.656 430.232 188.16 430.976C188.672 431.712 188.928 432.792 188.928 434.216C188.928 435.648 188.672 436.736 188.16 437.48C187.656 438.224 186.916 438.596 185.94 438.596ZM185.94 437.768C186.62 437.768 187.12 437.48 187.44 436.904C187.768 436.328 187.932 435.432 187.932 434.216C187.932 433.008 187.772 432.12 187.452 431.552C187.132 430.984 186.628 430.7 185.94 430.7C185.26 430.7 184.756 430.984 184.428 431.552C184.108 432.12 183.948 433.008 183.948 434.216C183.948 435.424 184.108 436.32 184.428 436.904C184.756 437.48 185.26 437.768 185.94 437.768ZM196.027 437.672V438.5H190.531V437.756L193.519 434.444C193.919 433.996 194.211 433.592 194.395 433.232C194.579 432.872 194.671 432.512 194.671 432.152C194.671 431.68 194.535 431.32 194.263 431.072C193.991 430.816 193.603 430.688 193.099 430.688C192.283 430.688 191.475 431.016 190.675 431.672L190.303 430.916C190.639 430.596 191.063 430.34 191.575 430.148C192.087 429.956 192.603 429.86 193.123 429.86C193.907 429.86 194.527 430.064 194.983 430.472C195.439 430.872 195.667 431.416 195.667 432.104C195.667 432.592 195.555 433.064 195.331 433.52C195.115 433.968 194.751 434.472 194.239 435.032L191.803 437.672H196.027ZM201.146 437.672H203.03V438.5H198.266V437.672H200.15V431.18L198.398 432.296V431.348L200.582 429.956H201.146V437.672Z" fill="#A7B3BF"/>
<path opacity="0.3" d="M177.5 418.5V118" stroke="#A7B3BF"/>
<path d="M272.014 439.784C272.374 439.848 272.662 439.88 272.878 439.88C273.286 439.88 273.57 439.764 273.73 439.532C273.898 439.308 273.982 438.92 273.982 438.368V429.956H274.966V438.38C274.966 439.212 274.814 439.812 274.51 440.18C274.214 440.548 273.722 440.732 273.034 440.732C272.762 440.732 272.422 440.7 272.014 440.636V439.784ZM282.275 432.464V438.5H281.315V437.408C281.139 437.784 280.871 438.076 280.511 438.284C280.159 438.484 279.747 438.584 279.275 438.584C278.739 438.584 278.267 438.456 277.859 438.2C277.459 437.944 277.147 437.584 276.923 437.12C276.707 436.648 276.599 436.1 276.599 435.476C276.599 434.852 276.711 434.304 276.935 433.832C277.159 433.352 277.471 432.98 277.871 432.716C278.279 432.452 278.747 432.32 279.275 432.32C279.747 432.32 280.159 432.424 280.511 432.632C280.863 432.84 281.131 433.132 281.315 433.508V432.464H282.275ZM279.467 437.78C280.059 437.78 280.515 437.58 280.835 437.18C281.155 436.772 281.315 436.196 281.315 435.452C281.315 434.708 281.155 434.136 280.835 433.736C280.515 433.336 280.059 433.136 279.467 433.136C278.875 433.136 278.411 433.344 278.075 433.76C277.747 434.168 277.583 434.74 277.583 435.476C277.583 436.212 277.747 436.78 278.075 437.18C278.403 437.58 278.867 437.78 279.467 437.78ZM287.167 432.32C288.615 432.32 289.339 433.116 289.339 434.708V438.5H288.367V434.756C288.367 434.196 288.255 433.788 288.031 433.532C287.807 433.268 287.455 433.136 286.975 433.136C286.415 433.136 285.967 433.308 285.631 433.652C285.295 433.996 285.127 434.46 285.127 435.044V438.5H284.155V434.156C284.155 433.532 284.123 432.968 284.059 432.464H284.983L285.079 433.544C285.263 433.152 285.539 432.852 285.907 432.644C286.275 432.428 286.695 432.32 287.167 432.32ZM291.006 437.264H292.242V438.5H291.006V437.264ZM302.637 437.672V438.5H297.141V437.756L300.129 434.444C300.529 433.996 300.821 433.592 301.005 433.232C301.189 432.872 301.281 432.512 301.281 432.152C301.281 431.68 301.145 431.32 300.873 431.072C300.601 430.816 300.213 430.688 299.709 430.688C298.893 430.688 298.085 431.016 297.285 431.672L296.913 430.916C297.249 430.596 297.673 430.34 298.185 430.148C298.697 429.956 299.213 429.86 299.733 429.86C300.517 429.86 301.137 430.064 301.593 430.472C302.049 430.872 302.277 431.416 302.277 432.104C302.277 432.592 302.165 433.064 301.941 433.52C301.725 433.968 301.361 434.472 300.849 435.032L298.413 437.672H302.637ZM306.94 438.596C305.964 438.596 305.22 438.228 304.708 437.492C304.204 436.748 303.952 435.66 303.952 434.228C303.952 432.796 304.204 431.712 304.708 430.976C305.22 430.232 305.964 429.86 306.94 429.86C307.916 429.86 308.656 430.232 309.16 430.976C309.672 431.712 309.928 432.792 309.928 434.216C309.928 435.648 309.672 436.736 309.16 437.48C308.656 438.224 307.916 438.596 306.94 438.596ZM306.94 437.768C307.62 437.768 308.12 437.48 308.44 436.904C308.768 436.328 308.932 435.432 308.932 434.216C308.932 433.008 308.772 432.12 308.452 431.552C308.132 430.984 307.628 430.7 306.94 430.7C306.26 430.7 305.756 430.984 305.428 431.552C305.108 432.12 304.948 433.008 304.948 434.216C304.948 435.424 305.108 436.32 305.428 436.904C305.756 437.48 306.26 437.768 306.94 437.768ZM317.027 437.672V438.5H311.531V437.756L314.519 434.444C314.919 433.996 315.211 433.592 315.395 433.232C315.579 432.872 315.671 432.512 315.671 432.152C315.671 431.68 315.535 431.32 315.263 431.072C314.991 430.816 314.603 430.688 314.099 430.688C313.283 430.688 312.475 431.016 311.675 431.672L311.303 430.916C311.639 430.596 312.063 430.34 312.575 430.148C313.087 429.956 313.603 429.86 314.123 429.86C314.907 429.86 315.527 430.064 315.983 430.472C316.439 430.872 316.667 431.416 316.667 432.104C316.667 432.592 316.555 433.064 316.331 433.52C316.115 433.968 315.751 434.472 315.239 435.032L312.803 437.672H317.027ZM324.222 437.672V438.5H318.726V437.756L321.714 434.444C322.114 433.996 322.406 433.592 322.59 433.232C322.774 432.872 322.866 432.512 322.866 432.152C322.866 431.68 322.73 431.32 322.458 431.072C322.186 430.816 321.798 430.688 321.294 430.688C320.478 430.688 319.67 431.016 318.87 431.672L318.498 430.916C318.834 430.596 319.258 430.34 319.77 430.148C320.282 429.956 320.798 429.86 321.318 429.86C322.102 429.86 322.722 430.064 323.178 430.472C323.634 430.872 323.862 431.416 323.862 432.104C323.862 432.592 323.75 433.064 323.526 433.52C323.31 433.968 322.946 434.472 322.434 435.032L319.998 437.672H324.222Z" fill="#A7B3BF"/>
<path opacity="0.3" d="M298.5 418.5V118" stroke="#A7B3BF"/>
<path d="M393.014 439.784C393.374 439.848 393.662 439.88 393.878 439.88C394.286 439.88 394.57 439.764 394.73 439.532C394.898 439.308 394.982 438.92 394.982 438.368V429.956H395.966V438.38C395.966 439.212 395.814 439.812 395.51 440.18C395.214 440.548 394.722 440.732 394.034 440.732C393.762 440.732 393.422 440.7 393.014 440.636V439.784ZM403.275 432.464V438.5H402.315V437.408C402.139 437.784 401.871 438.076 401.511 438.284C401.159 438.484 400.747 438.584 400.275 438.584C399.739 438.584 399.267 438.456 398.859 438.2C398.459 437.944 398.147 437.584 397.923 437.12C397.707 436.648 397.599 436.1 397.599 435.476C397.599 434.852 397.711 434.304 397.935 433.832C398.159 433.352 398.471 432.98 398.871 432.716C399.279 432.452 399.747 432.32 400.275 432.32C400.747 432.32 401.159 432.424 401.511 432.632C401.863 432.84 402.131 433.132 402.315 433.508V432.464H403.275ZM400.467 437.78C401.059 437.78 401.515 437.58 401.835 437.18C402.155 436.772 402.315 436.196 402.315 435.452C402.315 434.708 402.155 434.136 401.835 433.736C401.515 433.336 401.059 433.136 400.467 433.136C399.875 433.136 399.411 433.344 399.075 433.76C398.747 434.168 398.583 434.74 398.583 435.476C398.583 436.212 398.747 436.78 399.075 437.18C399.403 437.58 399.867 437.78 400.467 437.78ZM408.167 432.32C409.615 432.32 410.339 433.116 410.339 434.708V438.5H409.367V434.756C409.367 434.196 409.255 433.788 409.031 433.532C408.807 433.268 408.455 433.136 407.975 433.136C407.415 433.136 406.967 433.308 406.631 433.652C406.295 433.996 406.127 434.46 406.127 435.044V438.5H405.155V434.156C405.155 433.532 405.123 432.968 405.059 432.464H405.983L406.079 433.544C406.263 433.152 406.539 432.852 406.907 432.644C407.275 432.428 407.695 432.32 408.167 432.32ZM412.006 437.264H413.242V438.5H412.006V437.264ZM423.637 437.672V438.5H418.141V437.756L421.129 434.444C421.529 433.996 421.821 433.592 422.005 433.232C422.189 432.872 422.281 432.512 422.281 432.152C422.281 431.68 422.145 431.32 421.873 431.072C421.601 430.816 421.213 430.688 420.709 430.688C419.893 430.688 419.085 431.016 418.285 431.672L417.913 430.916C418.249 430.596 418.673 430.34 419.185 430.148C419.697 429.956 420.213 429.86 420.733 429.86C421.517 429.86 422.137 430.064 422.593 430.472C423.049 430.872 423.277 431.416 423.277 432.104C423.277 432.592 423.165 433.064 422.941 433.52C422.725 433.968 422.361 434.472 421.849 435.032L419.413 437.672H423.637ZM427.94 438.596C426.964 438.596 426.22 438.228 425.708 437.492C425.204 436.748 424.952 435.66 424.952 434.228C424.952 432.796 425.204 431.712 425.708 430.976C426.22 430.232 426.964 429.86 427.94 429.86C428.916 429.86 429.656 430.232 430.16 430.976C430.672 431.712 430.928 432.792 430.928 434.216C430.928 435.648 430.672 436.736 430.16 437.48C429.656 438.224 428.916 438.596 427.94 438.596ZM427.94 437.768C428.62 437.768 429.12 437.48 429.44 436.904C429.768 436.328 429.932 435.432 429.932 434.216C429.932 433.008 429.772 432.12 429.452 431.552C429.132 430.984 428.628 430.7 427.94 430.7C427.26 430.7 426.756 430.984 426.428 431.552C426.108 432.12 425.948 433.008 425.948 434.216C425.948 435.424 426.108 436.32 426.428 436.904C426.756 437.48 427.26 437.768 427.94 437.768ZM438.027 437.672V438.5H432.531V437.756L435.519 434.444C435.919 433.996 436.211 433.592 436.395 433.232C436.579 432.872 436.671 432.512 436.671 432.152C436.671 431.68 436.535 431.32 436.263 431.072C435.991 430.816 435.603 430.688 435.099 430.688C434.283 430.688 433.475 431.016 432.675 431.672L432.303 430.916C432.639 430.596 433.063 430.34 433.575 430.148C434.087 429.956 434.603 429.86 435.123 429.86C435.907 429.86 436.527 430.064 436.983 430.472C437.439 430.872 437.667 431.416 437.667 432.104C437.667 432.592 437.555 433.064 437.331 433.52C437.115 433.968 436.751 434.472 436.239 435.032L433.803 437.672H438.027ZM443.506 434.108C444.01 434.252 444.394 434.5 444.658 434.852C444.922 435.204 445.054 435.648 445.054 436.184C445.054 436.928 444.802 437.516 444.298 437.948C443.794 438.372 443.11 438.584 442.246 438.584C441.694 438.584 441.162 438.492 440.65 438.308C440.146 438.124 439.718 437.864 439.366 437.528L439.75 436.772C440.542 437.428 441.366 437.756 442.222 437.756C442.83 437.756 443.29 437.62 443.602 437.348C443.922 437.076 444.082 436.676 444.082 436.148C444.082 435.1 443.426 434.576 442.114 434.576H441.13V433.748H441.922C442.554 433.748 443.038 433.608 443.374 433.328C443.71 433.048 443.878 432.648 443.878 432.128C443.878 431.664 443.738 431.308 443.458 431.06C443.186 430.812 442.798 430.688 442.294 430.688C441.478 430.688 440.67 431.016 439.87 431.672L439.498 430.916C439.842 430.588 440.262 430.332 440.758 430.148C441.262 429.956 441.786 429.86 442.33 429.86C443.098 429.86 443.71 430.056 444.166 430.448C444.63 430.84 444.862 431.368 444.862 432.032C444.862 432.52 444.742 432.948 444.502 433.316C444.262 433.684 443.93 433.948 443.506 434.108Z" fill="#A7B3BF"/>
<path opacity="0.3" d="M419.5 418.5V118" stroke="#A7B3BF"/>
<path d="M514.014 439.784C514.374 439.848 514.662 439.88 514.878 439.88C515.286 439.88 515.57 439.764 515.73 439.532C515.898 439.308 515.982 438.92 515.982 438.368V429.956H516.966V438.38C516.966 439.212 516.814 439.812 516.51 440.18C516.214 440.548 515.722 440.732 515.034 440.732C514.762 440.732 514.422 440.7 514.014 440.636V439.784ZM524.275 432.464V438.5H523.315V437.408C523.139 437.784 522.871 438.076 522.511 438.284C522.159 438.484 521.747 438.584 521.275 438.584C520.739 438.584 520.267 438.456 519.859 438.2C519.459 437.944 519.147 437.584 518.923 437.12C518.707 436.648 518.599 436.1 518.599 435.476C518.599 434.852 518.711 434.304 518.935 433.832C519.159 433.352 519.471 432.98 519.871 432.716C520.279 432.452 520.747 432.32 521.275 432.32C521.747 432.32 522.159 432.424 522.511 432.632C522.863 432.84 523.131 433.132 523.315 433.508V432.464H524.275ZM521.467 437.78C522.059 437.78 522.515 437.58 522.835 437.18C523.155 436.772 523.315 436.196 523.315 435.452C523.315 434.708 523.155 434.136 522.835 433.736C522.515 433.336 522.059 433.136 521.467 433.136C520.875 433.136 520.411 433.344 520.075 433.76C519.747 434.168 519.583 434.74 519.583 435.476C519.583 436.212 519.747 436.78 520.075 437.18C520.403 437.58 520.867 437.78 521.467 437.78ZM529.167 432.32C530.615 432.32 531.339 433.116 531.339 434.708V438.5H530.367V434.756C530.367 434.196 530.255 433.788 530.031 433.532C529.807 433.268 529.455 433.136 528.975 433.136C528.415 433.136 527.967 433.308 527.631 433.652C527.295 433.996 527.127 434.46 527.127 435.044V438.5H526.155V434.156C526.155 433.532 526.123 432.968 526.059 432.464H526.983L527.079 433.544C527.263 433.152 527.539 432.852 527.907 432.644C528.275 432.428 528.695 432.32 529.167 432.32ZM533.006 437.264H534.242V438.5H533.006V437.264ZM544.637 437.672V438.5H539.141V437.756L542.129 434.444C542.529 433.996 542.821 433.592 543.005 433.232C543.189 432.872 543.281 432.512 543.281 432.152C543.281 431.68 543.145 431.32 542.873 431.072C542.601 430.816 542.213 430.688 541.709 430.688C540.893 430.688 540.085 431.016 539.285 431.672L538.913 430.916C539.249 430.596 539.673 430.34 540.185 430.148C540.697 429.956 541.213 429.86 541.733 429.86C542.517 429.86 543.137 430.064 543.593 430.472C544.049 430.872 544.277 431.416 544.277 432.104C544.277 432.592 544.165 433.064 543.941 433.52C543.725 433.968 543.361 434.472 542.849 435.032L540.413 437.672H544.637ZM548.94 438.596C547.964 438.596 547.22 438.228 546.708 437.492C546.204 436.748 545.952 435.66 545.952 434.228C545.952 432.796 546.204 431.712 546.708 430.976C547.22 430.232 547.964 429.86 548.94 429.86C549.916 429.86 550.656 430.232 551.16 430.976C551.672 431.712 551.928 432.792 551.928 434.216C551.928 435.648 551.672 436.736 551.16 437.48C550.656 438.224 549.916 438.596 548.94 438.596ZM548.94 437.768C549.62 437.768 550.12 437.48 550.44 436.904C550.768 436.328 550.932 435.432 550.932 434.216C550.932 433.008 550.772 432.12 550.452 431.552C550.132 430.984 549.628 430.7 548.94 430.7C548.26 430.7 547.756 430.984 547.428 431.552C547.108 432.12 546.948 433.008 546.948 434.216C546.948 435.424 547.108 436.32 547.428 436.904C547.756 437.48 548.26 437.768 548.94 437.768ZM559.027 437.672V438.5H553.531V437.756L556.519 434.444C556.919 433.996 557.211 433.592 557.395 433.232C557.579 432.872 557.671 432.512 557.671 432.152C557.671 431.68 557.535 431.32 557.263 431.072C556.991 430.816 556.603 430.688 556.099 430.688C555.283 430.688 554.475 431.016 553.675 431.672L553.303 430.916C553.639 430.596 554.063 430.34 554.575 430.148C555.087 429.956 555.603 429.86 556.123 429.86C556.907 429.86 557.527 430.064 557.983 430.472C558.439 430.872 558.667 431.416 558.667 432.104C558.667 432.592 558.555 433.064 558.331 433.52C558.115 433.968 557.751 434.472 557.239 435.032L554.803 437.672H559.027ZM566.534 435.824V436.64H565.238V438.5H564.254V436.64H560.318V435.896L564.434 429.956H565.238V435.824H566.534ZM561.338 435.824H564.254V431.624L561.338 435.824Z" fill="#A7B3BF"/>
<path opacity="0.3" d="M540.5 418.5V118" stroke="#A7B3BF"/>
<path d="M635.014 439.784C635.374 439.848 635.662 439.88 635.878 439.88C636.286 439.88 636.57 439.764 636.73 439.532C636.898 439.308 636.982 438.92 636.982 438.368V429.956H637.966V438.38C637.966 439.212 637.814 439.812 637.51 440.18C637.214 440.548 636.722 440.732 636.034 440.732C635.762 440.732 635.422 440.7 635.014 440.636V439.784ZM645.275 432.464V438.5H644.315V437.408C644.139 437.784 643.871 438.076 643.511 438.284C643.159 438.484 642.747 438.584 642.275 438.584C641.739 438.584 641.267 438.456 640.859 438.2C640.459 437.944 640.147 437.584 639.923 437.12C639.707 436.648 639.599 436.1 639.599 435.476C639.599 434.852 639.711 434.304 639.935 433.832C640.159 433.352 640.471 432.98 640.871 432.716C641.279 432.452 641.747 432.32 642.275 432.32C642.747 432.32 643.159 432.424 643.511 432.632C643.863 432.84 644.131 433.132 644.315 433.508V432.464H645.275ZM642.467 437.78C643.059 437.78 643.515 437.58 643.835 437.18C644.155 436.772 644.315 436.196 644.315 435.452C644.315 434.708 644.155 434.136 643.835 433.736C643.515 433.336 643.059 433.136 642.467 433.136C641.875 433.136 641.411 433.344 641.075 433.76C640.747 434.168 640.583 434.74 640.583 435.476C640.583 436.212 640.747 436.78 641.075 437.18C641.403 437.58 641.867 437.78 642.467 437.78ZM650.167 432.32C651.615 432.32 652.339 433.116 652.339 434.708V438.5H651.367V434.756C651.367 434.196 651.255 433.788 651.031 433.532C650.807 433.268 650.455 433.136 649.975 433.136C649.415 433.136 648.967 433.308 648.631 433.652C648.295 433.996 648.127 434.46 648.127 435.044V438.5H647.155V434.156C647.155 433.532 647.123 432.968 647.059 432.464H647.983L648.079 433.544C648.263 433.152 648.539 432.852 648.907 432.644C649.275 432.428 649.695 432.32 650.167 432.32ZM654.006 437.264H655.242V438.5H654.006V437.264ZM665.637 437.672V438.5H660.141V437.756L663.129 434.444C663.529 433.996 663.821 433.592 664.005 433.232C664.189 432.872 664.281 432.512 664.281 432.152C664.281 431.68 664.145 431.32 663.873 431.072C663.601 430.816 663.213 430.688 662.709 430.688C661.893 430.688 661.085 431.016 660.285 431.672L659.913 430.916C660.249 430.596 660.673 430.34 661.185 430.148C661.697 429.956 662.213 429.86 662.733 429.86C663.517 429.86 664.137 430.064 664.593 430.472C665.049 430.872 665.277 431.416 665.277 432.104C665.277 432.592 665.165 433.064 664.941 433.52C664.725 433.968 664.361 434.472 663.849 435.032L661.413 437.672H665.637ZM669.94 438.596C668.964 438.596 668.22 438.228 667.708 437.492C667.204 436.748 666.952 435.66 666.952 434.228C666.952 432.796 667.204 431.712 667.708 430.976C668.22 430.232 668.964 429.86 669.94 429.86C670.916 429.86 671.656 430.232 672.16 430.976C672.672 431.712 672.928 432.792 672.928 434.216C672.928 435.648 672.672 436.736 672.16 437.48C671.656 438.224 670.916 438.596 669.94 438.596ZM669.94 437.768C670.62 437.768 671.12 437.48 671.44 436.904C671.768 436.328 671.932 435.432 671.932 434.216C671.932 433.008 671.772 432.12 671.452 431.552C671.132 430.984 670.628 430.7 669.94 430.7C669.26 430.7 668.756 430.984 668.428 431.552C668.108 432.12 667.948 433.008 667.948 434.216C667.948 435.424 668.108 436.32 668.428 436.904C668.756 437.48 669.26 437.768 669.94 437.768ZM680.027 437.672V438.5H674.531V437.756L677.519 434.444C677.919 433.996 678.211 433.592 678.395 433.232C678.579 432.872 678.671 432.512 678.671 432.152C678.671 431.68 678.535 431.32 678.263 431.072C677.991 430.816 677.603 430.688 677.099 430.688C676.283 430.688 675.475 431.016 674.675 431.672L674.303 430.916C674.639 430.596 675.063 430.34 675.575 430.148C676.087 429.956 676.603 429.86 677.123 429.86C677.907 429.86 678.527 430.064 678.983 430.472C679.439 430.872 679.667 431.416 679.667 432.104C679.667 432.592 679.555 433.064 679.331 433.52C679.115 433.968 678.751 434.472 678.239 435.032L675.803 437.672H680.027ZM684.69 433.136C685.226 433.136 685.694 433.252 686.094 433.484C686.502 433.708 686.814 434.024 687.03 434.432C687.246 434.84 687.354 435.312 687.354 435.848C687.354 436.384 687.234 436.86 686.994 437.276C686.762 437.692 686.426 438.016 685.986 438.248C685.554 438.472 685.046 438.584 684.462 438.584C683.942 438.584 683.43 438.492 682.926 438.308C682.422 438.116 681.998 437.856 681.654 437.528L682.026 436.772C682.818 437.428 683.63 437.756 684.462 437.756C685.062 437.756 685.53 437.588 685.866 437.252C686.21 436.908 686.382 436.444 686.382 435.86C686.382 435.292 686.214 434.836 685.878 434.492C685.542 434.14 685.094 433.964 684.534 433.964C683.718 433.964 683.066 434.296 682.578 434.96H681.894V429.956H687.018V430.772H682.878V433.82C683.35 433.364 683.954 433.136 684.69 433.136Z" fill="#A7B3BF"/>
<path opacity="0.3" d="M661.5 418.5V118" stroke="#A7B3BF"/>
<path d="M611 180L178 386H123" stroke="#5B88FF" stroke-width="4" stroke-linecap="round" stroke-linejoin="round"/>
<path d="M30.112 348.512C30.112 349.455 29.9067 350.276 29.496 350.976C29.0853 351.667 28.4973 352.199 27.732 352.572C26.9573 352.945 26.0473 353.132 25.002 353.132C23.9567 353.132 23.056 352.945 22.3 352.572C21.5347 352.199 20.9467 351.667 20.536 350.976C20.1253 350.276 19.92 349.455 19.92 348.512C19.92 347.821 20.0273 347.191 20.242 346.622C20.4473 346.043 20.76 345.544 21.18 345.124L22.062 345.558C21.6513 346.034 21.3573 346.505 21.18 346.972C21.0027 347.429 20.914 347.938 20.914 348.498C20.914 349.59 21.2687 350.439 21.978 351.046C22.6873 351.643 23.6953 351.942 25.002 351.942C26.318 351.942 27.3353 351.643 28.054 351.046C28.7633 350.449 29.118 349.599 29.118 348.498C29.118 347.938 29.0293 347.429 28.852 346.972C28.6747 346.505 28.3807 346.034 27.97 345.558L28.852 345.124C29.272 345.544 29.5893 346.043 29.804 346.622C30.0093 347.191 30.112 347.821 30.112 348.512ZM30 343.338L22.958 343.338L22.958 342.204L30 342.204L30 343.338ZM19.976 343.45L19.976 342.064L21.264 342.064L21.264 343.45L19.976 343.45ZM22.79 336.726C22.79 336.492 22.818 336.278 22.874 336.082L23.91 336.11C23.8353 336.324 23.798 336.572 23.798 336.852C23.798 337.533 24.0127 338.042 24.442 338.378C24.862 338.704 25.3753 338.868 25.982 338.868L30 338.868L30 340.002L24.932 340.002C24.204 340.002 23.546 340.039 22.958 340.114L22.958 339.036L24.26 338.924C23.784 338.746 23.42 338.462 23.168 338.07C22.916 337.678 22.79 337.23 22.79 336.726ZM30.098 332.112C30.098 332.794 29.9487 333.391 29.65 333.904C29.3513 334.408 28.9313 334.8 28.39 335.08C27.8393 335.351 27.2 335.486 26.472 335.486C25.744 335.486 25.1047 335.346 24.554 335.066C23.994 334.786 23.56 334.39 23.252 333.876C22.944 333.354 22.79 332.747 22.79 332.056C22.79 331.58 22.874 331.123 23.042 330.684C23.2007 330.236 23.4247 329.868 23.714 329.578L24.554 329.956C24.274 330.311 24.0687 330.656 23.938 330.992C23.8073 331.319 23.742 331.655 23.742 332C23.742 332.719 23.9847 333.284 24.47 333.694C24.946 334.105 25.6133 334.31 26.472 334.31C27.3213 334.31 27.984 334.11 28.46 333.708C28.9267 333.298 29.16 332.728 29.16 332C29.16 331.655 29.0947 331.319 28.964 330.992C28.8333 330.656 28.628 330.311 28.348 329.956L29.188 329.578C29.468 329.877 29.692 330.255 29.86 330.712C30.0187 331.16 30.098 331.627 30.098 332.112ZM22.958 322.241L30 322.241L30 323.347L28.782 323.347C29.2113 323.571 29.538 323.883 29.762 324.285C29.986 324.686 30.098 325.139 30.098 325.643C30.098 326.473 29.8647 327.103 29.398 327.533C28.9313 327.962 28.2407 328.177 27.326 328.177L22.958 328.177L22.958 327.043L27.298 327.043C27.9327 327.043 28.3993 326.912 28.698 326.651C28.9967 326.389 29.146 325.993 29.146 325.461C29.146 324.835 28.9453 324.331 28.544 323.949C28.1333 323.566 27.5967 323.375 26.934 323.375L22.958 323.375L22.958 322.241ZM30 320.054L19.696 320.054L19.696 318.92L30 318.92L30 320.054ZM22.958 310.517L30 310.517L30 311.637L28.726 311.637C29.1647 311.842 29.5053 312.155 29.748 312.575C29.9813 312.985 30.098 313.466 30.098 314.017C30.098 314.642 29.9487 315.193 29.65 315.669C29.3513 316.135 28.9313 316.499 28.39 316.761C27.8393 317.013 27.2 317.139 26.472 317.139C25.744 317.139 25.1047 317.008 24.554 316.747C23.994 316.485 23.56 316.121 23.252 315.655C22.944 315.179 22.79 314.633 22.79 314.017C22.79 313.466 22.9113 312.985 23.154 312.575C23.3967 312.164 23.7373 311.851 24.176 311.637L22.958 311.637L22.958 310.517ZM29.16 313.793C29.16 313.102 28.9267 312.57 28.46 312.197C27.984 311.823 27.312 311.637 26.444 311.637C25.576 311.637 24.9087 311.823 24.442 312.197C23.9753 312.57 23.742 313.102 23.742 313.793C23.742 314.483 23.9847 315.025 24.47 315.417C24.946 315.799 25.6133 315.991 26.472 315.991C27.3307 315.991 27.9933 315.799 28.46 315.417C28.9267 315.034 29.16 314.493 29.16 313.793ZM23.854 306.812L27.704 306.812C28.2267 306.812 28.5953 306.705 28.81 306.49C29.0153 306.275 29.118 305.972 29.118 305.58C29.118 305.319 29.076 305.067 28.992 304.824L29.958 304.824C30.0513 305.113 30.098 305.44 30.098 305.804C30.098 306.476 29.9113 307.003 29.538 307.386C29.1553 307.759 28.5953 307.946 27.858 307.946L23.854 307.946L23.854 309.318L22.958 309.318L22.958 307.946L21.152 307.946L20.746 306.812L22.958 306.812L22.958 304.796L23.854 304.796L23.854 306.812ZM30 303.429L22.958 303.429L22.958 302.295L30 302.295L30 303.429ZM19.976 303.541L19.976 302.155L21.264 302.155L21.264 303.541L19.976 303.541ZM22.79 296.58C22.79 294.89 23.7187 294.046 25.576 294.046L30 294.046L30 295.18L25.632 295.18C24.9787 295.18 24.5027 295.31 24.204 295.572C23.896 295.833 23.742 296.244 23.742 296.804C23.742 297.457 23.9427 297.98 24.344 298.372C24.7453 298.764 25.2867 298.96 25.968 298.96L30 298.96L30 300.094L24.932 300.094C24.204 300.094 23.546 300.131 22.958 300.206L22.958 299.128L24.218 299.016C23.7607 298.801 23.4107 298.479 23.168 298.05C22.916 297.62 22.79 297.13 22.79 296.58ZM22.958 285.632L29.944 285.632C30.9893 285.632 31.778 285.903 32.31 286.444C32.8513 286.976 33.122 287.765 33.122 288.81C33.122 289.883 32.8793 290.807 32.394 291.582L31.47 291.386C31.722 290.938 31.904 290.518 32.016 290.126C32.128 289.725 32.184 289.286 32.184 288.81C32.184 288.129 32.002 287.615 31.638 287.27C31.2833 286.925 30.7513 286.752 30.042 286.752L28.376 286.752C28.824 286.967 29.174 287.284 29.426 287.704C29.6687 288.115 29.79 288.605 29.79 289.174C29.79 289.79 29.6453 290.341 29.356 290.826C29.0667 291.302 28.656 291.671 28.124 291.932C27.592 292.193 26.9807 292.324 26.29 292.324C25.5993 292.324 24.988 292.193 24.456 291.932C23.924 291.671 23.5133 291.302 23.224 290.826C22.9347 290.341 22.79 289.79 22.79 289.174C22.79 288.614 22.9113 288.129 23.154 287.718C23.3967 287.298 23.7373 286.981 24.176 286.766L22.958 286.766L22.958 285.632ZM28.838 288.95C28.838 288.269 28.614 287.737 28.166 287.354C27.7087 286.962 27.0833 286.766 26.29 286.766C25.4967 286.766 24.876 286.962 24.428 287.354C23.9707 287.737 23.742 288.269 23.742 288.95C23.742 289.641 23.9707 290.187 24.428 290.588C24.876 290.98 25.4967 291.176 26.29 291.176C27.0833 291.176 27.7087 290.98 28.166 290.588C28.614 290.187 28.838 289.641 28.838 288.95ZM30 277.256L21.012 277.256L21.012 280.728L20.032 280.728L20.032 272.622L21.012 272.622L21.012 276.094L30 276.094L30 277.256ZM30.098 269.537C30.098 270.2 29.9487 270.783 29.65 271.287C29.3513 271.791 28.9267 272.183 28.376 272.463C27.8253 272.734 27.1813 272.869 26.444 272.869C25.7067 272.869 25.0627 272.734 24.512 272.463C23.9613 272.183 23.5367 271.791 23.238 271.287C22.9393 270.783 22.79 270.2 22.79 269.537C22.79 268.874 22.9393 268.291 23.238 267.787C23.5367 267.283 23.9613 266.896 24.512 266.625C25.0627 266.345 25.7067 266.205 26.444 266.205C27.1813 266.205 27.8253 266.345 28.376 266.625C28.9267 266.896 29.3513 267.283 29.65 267.787C29.9487 268.291 30.098 268.874 30.098 269.537ZM29.16 269.537C29.16 268.837 28.9313 268.3 28.474 267.927C28.0073 267.554 27.3307 267.367 26.444 267.367C25.5853 267.367 24.9227 267.558 24.456 267.941C23.98 268.324 23.742 268.856 23.742 269.537C23.742 270.228 23.98 270.764 24.456 271.147C24.9227 271.53 25.5853 271.721 26.444 271.721C27.3307 271.721 28.0073 271.534 28.474 271.161C28.9313 270.778 29.16 270.237 29.16 269.537ZM30 258.207L30 259.691L26.612 263.303L30 263.303L30 264.437L19.696 264.437L19.696 263.303L26.192 263.303L22.972 259.985L22.972 258.543L26.346 262.071L30 258.207ZM26.444 251.461L26.444 256.627C27.34 256.618 28.0167 256.413 28.474 256.011C28.9313 255.601 29.16 255.008 29.16 254.233C29.16 253.412 28.8847 252.656 28.334 251.965L29.16 251.587C29.4493 251.895 29.678 252.292 29.846 252.777C30.014 253.253 30.098 253.743 30.098 254.247C30.098 255.349 29.776 256.212 29.132 256.837C28.4787 257.463 27.5873 257.775 26.458 257.775C25.7393 257.775 25.1047 257.635 24.554 257.355C23.994 257.075 23.56 256.683 23.252 256.179C22.944 255.675 22.79 255.101 22.79 254.457C22.79 253.524 23.098 252.791 23.714 252.259C24.3207 251.727 25.1607 251.461 26.234 251.461L26.444 251.461ZM23.672 254.443C23.672 255.031 23.8493 255.512 24.204 255.885C24.5587 256.249 25.058 256.483 25.702 256.585L25.702 252.483C25.0393 252.539 24.5353 252.735 24.19 253.071C23.8447 253.398 23.672 253.855 23.672 254.443ZM22.79 246.226C22.79 244.537 23.7187 243.692 25.576 243.692L30 243.692L30 244.826L25.632 244.826C24.9787 244.826 24.5027 244.957 24.204 245.218C23.896 245.479 23.742 245.89 23.742 246.45C23.742 247.103 23.9427 247.626 24.344 248.018C24.7453 248.41 25.2867 248.606 25.968 248.606L30 248.606L30 249.74L24.932 249.74C24.204 249.74 23.546 249.777 22.958 249.852L22.958 248.774L24.218 248.662C23.7607 248.447 23.4107 248.125 23.168 247.696C22.916 247.267 22.79 246.777 22.79 246.226ZM30.098 239.171C30.098 240.356 29.7947 241.294 29.188 241.985L28.348 241.607C28.6467 241.224 28.8613 240.837 28.992 240.445C29.1227 240.053 29.188 239.614 29.188 239.129C29.188 238.597 29.0993 238.195 28.922 237.925C28.7353 237.645 28.4693 237.505 28.124 237.505C27.844 237.505 27.62 237.598 27.452 237.785C27.284 237.971 27.1533 238.279 27.06 238.709L26.78 239.899C26.6493 240.487 26.416 240.944 26.08 241.271C25.744 241.588 25.3427 241.747 24.876 241.747C24.26 241.747 23.7607 241.499 23.378 241.005C22.986 240.51 22.79 239.857 22.79 239.045C22.79 238.55 22.8693 238.083 23.028 237.645C23.1867 237.206 23.4153 236.837 23.714 236.539L24.54 236.917C23.9893 237.579 23.714 238.289 23.714 239.045C23.714 239.549 23.812 239.941 24.008 240.221C24.1947 240.491 24.4607 240.627 24.806 240.627C25.0953 240.627 25.324 240.543 25.492 240.375C25.66 240.197 25.7907 239.917 25.884 239.535L26.178 238.345C26.3273 237.691 26.5607 237.206 26.878 236.889C27.186 236.571 27.592 236.413 28.096 236.413C28.7027 236.413 29.188 236.66 29.552 237.155C29.916 237.649 30.098 238.321 30.098 239.171ZM32.548 228.995C31.484 229.555 30.448 229.961 29.44 230.213C28.4227 230.465 27.368 230.591 26.276 230.591C25.1933 230.591 24.1433 230.465 23.126 230.213C22.1087 229.952 21.0773 229.546 20.032 228.995L20.032 228.043C21.1987 228.547 22.2813 228.902 23.28 229.107C24.2787 229.312 25.2773 229.415 26.276 229.415C27.2653 229.415 28.264 229.312 29.272 229.107C30.2707 228.902 31.3627 228.552 32.548 228.057L32.548 228.995ZM24.876 220.716C25.0347 220.146 25.324 219.703 25.744 219.386C26.1547 219.068 26.668 218.91 27.284 218.91C28.152 218.91 28.824 219.199 29.3 219.778C29.7667 220.356 30 221.173 30 222.228L30 226.372L20.032 226.372L20.032 222.368C20.032 221.35 20.2607 220.562 20.718 220.002C21.166 219.432 21.8053 219.148 22.636 219.148C23.168 219.148 23.63 219.288 24.022 219.568C24.4047 219.838 24.6893 220.221 24.876 220.716ZM24.456 225.238L24.456 222.55C24.456 221.803 24.3067 221.238 24.008 220.856C23.7093 220.473 23.2707 220.282 22.692 220.282C21.5533 220.282 20.984 221.038 20.984 222.55L20.984 225.238L24.456 225.238ZM29.048 222.326C29.048 221.542 28.9033 220.968 28.614 220.604C28.3153 220.23 27.8627 220.044 27.256 220.044C26.0333 220.044 25.422 220.804 25.422 222.326L25.422 225.238L29.048 225.238L29.048 222.326ZM29.034 216.114L29.034 210.262L30 210.262L30 217.444L29.146 217.444L20.998 211.732L20.998 217.444L20.032 217.444L20.032 210.402L20.872 210.402L29.034 216.114ZM30 200.676L30 201.894L26.682 203.126C26.2713 203.276 25.996 203.486 25.856 203.756C25.716 204.018 25.646 204.391 25.646 204.876L25.646 207.368L30 207.368L30 208.502L20.032 208.502L20.032 204.54C20.032 203.467 20.27 202.646 20.746 202.076C21.222 201.498 21.908 201.208 22.804 201.208C23.4573 201.208 24.008 201.381 24.456 201.726C24.8947 202.062 25.2073 202.552 25.394 203.196C25.4407 202.907 25.5667 202.66 25.772 202.454C25.968 202.249 26.2527 202.076 26.626 201.936L30 200.676ZM24.694 204.638C24.694 203.108 24.0687 202.342 22.818 202.342C22.202 202.342 21.7447 202.529 21.446 202.902C21.138 203.276 20.984 203.854 20.984 204.638L20.984 207.368L24.694 207.368L24.694 204.638ZM24.904 194.942L30 191.148L30 192.506L25.772 195.6L30 198.68L30 200.052L24.89 196.258L20.032 199.87L20.032 198.498L24.036 195.586L20.032 192.674L20.032 191.316L24.904 194.942ZM32.548 190.447C31.3627 189.952 30.2707 189.602 29.272 189.397C28.264 189.191 27.2653 189.089 26.276 189.089C25.2773 189.089 24.2787 189.191 23.28 189.397C22.2813 189.602 21.1987 189.952 20.032 190.447L20.032 189.495C21.0773 188.944 22.1087 188.543 23.126 188.291C24.1433 188.039 25.1933 187.913 26.276 187.913C27.368 187.913 28.4227 188.039 29.44 188.291C30.448 188.543 31.484 188.949 32.548 189.509L32.548 190.447Z" fill="#A7B3BF"/>
</g>
<defs>
<clipPath id="clip0">
<rect width="730" height="480" fill="white"/>
</clipPath>
</defs>
</svg>
