<svg width="730" height="354" viewBox="0 0 730 354" fill="none" 
    xmlns="http://www.w3.org/2000/svg">
    <path d="M70.8608 81.92C72.0648 81.92 72.9934 82.34 73.6468 83.18C74.3001 84.0107 74.6268 85.2053 74.6268 86.764C74.6268 87.8933 74.4728 88.8593 74.1647 89.662C73.8661 90.4553 73.4274 91.062 72.8488 91.482C72.2794 91.902 71.5888 92.112 70.7768 92.112C70.2074 92.112 69.6474 92.0093 69.0968 91.804C68.5554 91.5893 68.0748 91.2813 67.6548 90.88L68.1028 89.998C68.5787 90.3993 69.0314 90.6933 69.4608 90.88C69.8901 91.0573 70.3241 91.146 70.7628 91.146C71.6214 91.146 72.2841 90.768 72.7508 90.012C73.2268 89.2467 73.4648 88.1687 73.4648 86.778V85.574L73.6468 85.938C73.5721 86.4233 73.3994 86.8433 73.1288 87.198C72.8581 87.5433 72.5174 87.814 72.1068 88.01C71.6961 88.1967 71.2434 88.29 70.7488 88.29C70.1421 88.29 69.6054 88.1593 69.1388 87.898C68.6721 87.6273 68.3081 87.254 68.0468 86.778C67.7854 86.302 67.6548 85.7513 67.6548 85.126C67.6548 84.51 67.7901 83.9593 68.0608 83.474C68.3408 82.9887 68.7234 82.6107 69.2088 82.34C69.6941 82.06 70.2448 81.92 70.8608 81.92ZM70.9168 82.886C70.2728 82.886 69.7548 83.0913 69.3628 83.502C68.9801 83.9033 68.7888 84.44 68.7888 85.112C68.7888 85.7747 68.9848 86.3113 69.3768 86.722C69.7688 87.1233 70.2868 87.324 70.9308 87.324C71.3601 87.324 71.7428 87.2307 72.0788 87.044C72.4148 86.848 72.6761 86.5867 72.8628 86.26C73.0494 85.924 73.1428 85.5413 73.1428 85.112C73.1428 84.664 73.0494 84.2767 72.8628 83.95C72.6761 83.614 72.4148 83.3527 72.0788 83.166C71.7428 82.9793 71.3554 82.886 70.9168 82.886ZM79.4653 92.098C78.8213 92.098 78.2006 91.9907 77.6033 91.776C77.0153 91.5613 76.5159 91.258 76.1053 90.866L76.5533 89.984C77.0013 90.3667 77.4633 90.656 77.9393 90.852C78.4153 91.0387 78.9146 91.132 79.4373 91.132C80.1466 91.132 80.6833 90.9733 81.0473 90.656C81.4206 90.3387 81.6073 89.872 81.6073 89.256C81.6073 88.64 81.4159 88.1827 81.0333 87.884C80.6506 87.576 80.0766 87.422 79.3113 87.422H78.1633V86.456H79.0873C79.8246 86.456 80.3893 86.2927 80.7813 85.966C81.1733 85.6393 81.3693 85.1727 81.3693 84.566C81.3693 84.0247 81.2059 83.6093 80.8793 83.32C80.5619 83.0307 80.1093 82.886 79.5213 82.886C79.0266 82.886 78.5459 82.984 78.0793 83.18C77.6126 83.3667 77.1506 83.6513 76.6933 84.034L76.2593 83.152C76.6606 82.7693 77.1553 82.4707 77.7433 82.256C78.3313 82.032 78.9379 81.92 79.5633 81.92C80.1606 81.92 80.6833 82.0273 81.1313 82.242C81.5793 82.4473 81.9199 82.7413 82.1533 83.124C82.3959 83.5067 82.5173 83.9593 82.5173 84.482C82.5173 85.098 82.3539 85.6253 82.0273 86.064C81.7099 86.4933 81.2713 86.7873 80.7113 86.946L80.6693 86.806C81.3413 86.946 81.8546 87.2307 82.2093 87.66C82.5639 88.0893 82.7413 88.6353 82.7413 89.298C82.7413 90.166 82.4473 90.852 81.8593 91.356C81.2713 91.8507 80.4733 92.098 79.4653 92.098ZM86.5718 92H85.3398L90.2258 82.536L90.3238 82.998H84.6678V82.032H91.2478V82.886L86.5718 92ZM93.6363 93.61L93.1043 93.204C93.3563 92.9333 93.5243 92.686 93.6083 92.462C93.6923 92.238 93.7343 92.0093 93.7343 91.776L94.0703 92H93.0483V90.558H94.4903V91.58C94.4903 91.9533 94.425 92.3033 94.2943 92.63C94.173 92.966 93.9537 93.2927 93.6363 93.61ZM99.7466 92.098C99.1399 92.098 98.5426 91.9907 97.9546 91.776C97.3666 91.552 96.8719 91.2487 96.4706 90.866L96.9046 89.984C97.3619 90.3573 97.8239 90.642 98.2906 90.838C98.7666 91.034 99.2519 91.132 99.7466 91.132C100.447 91.132 100.993 90.936 101.385 90.544C101.786 90.1427 101.987 89.6013 101.987 88.92C101.987 88.4813 101.898 88.0987 101.721 87.772C101.543 87.436 101.291 87.1747 100.965 86.988C100.647 86.8013 100.269 86.708 99.8306 86.708C99.3546 86.708 98.9252 86.806 98.5426 87.002C98.1692 87.1887 97.8379 87.478 97.5486 87.87H96.7506V82.032H102.729V82.984H97.8986V87.016L97.5346 86.974C97.8052 86.582 98.1506 86.2787 98.5706 86.064C98.9999 85.8493 99.4806 85.742 100.013 85.742C100.647 85.742 101.198 85.8773 101.665 86.148C102.131 86.4093 102.491 86.778 102.743 87.254C102.995 87.73 103.121 88.2807 103.121 88.906C103.121 89.5313 102.981 90.0867 102.701 90.572C102.43 91.048 102.043 91.4213 101.539 91.692C101.035 91.9627 100.437 92.098 99.7466 92.098ZM107.777 91.482V82.704L108.435 83.04L105.733 84.762V83.656L108.281 82.032H108.939V91.482H107.777ZM105.579 92V91.034H111.137V92H105.579ZM113.344 92V91.132L116.83 87.268C117.296 86.7453 117.637 86.274 117.852 85.854C118.066 85.434 118.174 85.014 118.174 84.594C118.174 84.0433 118.015 83.6233 117.698 83.334C117.38 83.0353 116.928 82.886 116.34 82.886C115.854 82.886 115.378 82.984 114.912 83.18C114.445 83.3667 113.978 83.6513 113.512 84.034L113.078 83.152C113.47 82.7787 113.964 82.48 114.562 82.256C115.159 82.032 115.761 81.92 116.368 81.92C116.974 81.92 117.497 82.0273 117.936 82.242C118.384 82.4473 118.729 82.746 118.972 83.138C119.214 83.53 119.336 83.9967 119.336 84.538C119.336 85.1073 119.205 85.658 118.944 86.19C118.692 86.7127 118.267 87.3007 117.67 87.954L114.31 91.594L114.226 91.034H119.756V92H113.344ZM122.06 93.61L121.528 93.204C121.78 92.9333 121.948 92.686 122.032 92.462C122.116 92.238 122.158 92.0093 122.158 91.776L122.494 92H121.472V90.558H122.914V91.58C122.914 91.9533 122.849 92.3033 122.718 92.63C122.597 92.966 122.378 93.2927 122.06 93.61ZM128.17 92.098C127.564 92.098 126.966 91.9907 126.378 91.776C125.79 91.552 125.296 91.2487 124.894 90.866L125.328 89.984C125.786 90.3573 126.248 90.642 126.714 90.838C127.19 91.034 127.676 91.132 128.17 91.132C128.87 91.132 129.416 90.936 129.808 90.544C130.21 90.1427 130.41 89.6013 130.41 88.92C130.41 88.4813 130.322 88.0987 130.144 87.772C129.967 87.436 129.715 87.1747 129.388 86.988C129.071 86.8013 128.693 86.708 128.254 86.708C127.778 86.708 127.349 86.806 126.966 87.002C126.593 87.1887 126.262 87.478 125.972 87.87H125.174V82.032H131.152V82.984H126.322V87.016L125.958 86.974C126.229 86.582 126.574 86.2787 126.994 86.064C127.424 85.8493 127.904 85.742 128.436 85.742C129.071 85.742 129.622 85.8773 130.088 86.148C130.555 86.4093 130.914 86.778 131.166 87.254C131.418 87.73 131.544 88.2807 131.544 88.906C131.544 89.5313 131.404 90.0867 131.124 90.572C130.854 91.048 130.466 91.4213 129.962 91.692C129.458 91.9627 128.861 92.098 128.17 92.098ZM136.411 92.112C135.272 92.112 134.404 91.6827 133.807 90.824C133.219 89.956 132.925 88.6867 132.925 87.016C132.925 85.3453 133.219 84.0807 133.807 83.222C134.395 82.354 135.263 81.92 136.411 81.92C137.559 81.92 138.427 82.354 139.015 83.222C139.603 84.0807 139.897 85.3407 139.897 87.002C139.897 88.6727 139.598 89.942 139.001 90.81C138.413 91.678 137.55 92.112 136.411 92.112ZM136.411 91.146C137.204 91.146 137.788 90.81 138.161 90.138C138.544 89.466 138.735 88.4207 138.735 87.002C138.735 85.5833 138.544 84.5473 138.161 83.894C137.788 83.2313 137.204 82.9 136.411 82.9C135.618 82.9 135.03 83.2313 134.647 83.894C134.274 84.5567 134.087 85.5927 134.087 87.002C134.087 88.4207 134.274 89.466 134.647 90.138C135.03 90.81 135.618 91.146 136.411 91.146ZM144.805 92.112C143.667 92.112 142.799 91.6827 142.201 90.824C141.613 89.956 141.319 88.6867 141.319 87.016C141.319 85.3453 141.613 84.0807 142.201 83.222C142.789 82.354 143.657 81.92 144.805 81.92C145.953 81.92 146.821 82.354 147.409 83.222C147.997 84.0807 148.291 85.3407 148.291 87.002C148.291 88.6727 147.993 89.942 147.395 90.81C146.807 91.678 145.944 92.112 144.805 92.112ZM144.805 91.146C145.599 91.146 146.182 90.81 146.555 90.138C146.938 89.466 147.129 88.4207 147.129 87.002C147.129 85.5833 146.938 84.5473 146.555 83.894C146.182 83.2313 145.599 82.9 144.805 82.9C144.012 82.9 143.424 83.2313 143.041 83.894C142.668 84.5567 142.481 85.5927 142.481 87.002C142.481 88.4207 142.668 89.466 143.041 90.138C143.424 90.81 144.012 91.146 144.805 91.146Z" fill="#A7B3BF"/>
    <path opacity="0.3" d="M160 88.5H730" stroke="#A7B3BF"/>
    <path d="M59.324 17.482V8.704L59.982 9.04L57.28 10.762V9.656L59.828 8.032H60.486V17.482H59.324ZM57.126 18V17.034H62.684V18H57.126ZM65.2125 19.61L64.6805 19.204C64.9325 18.9333 65.1005 18.686 65.1845 18.462C65.2685 18.238 65.3105 18.0093 65.3105 17.776L65.6465 18H64.6245V16.558H66.0665V17.58C66.0665 17.9533 66.0012 18.3033 65.8705 18.63C65.7492 18.966 65.5298 19.2927 65.2125 19.61ZM68.1308 18V17.132L71.6168 13.268C72.0834 12.7453 72.4241 12.274 72.6388 11.854C72.8534 11.434 72.9608 11.014 72.9608 10.594C72.9608 10.0433 72.8021 9.62333 72.4848 9.334C72.1674 9.03533 71.7148 8.886 71.1268 8.886C70.6414 8.886 70.1654 8.984 69.6988 9.18C69.2321 9.36667 68.7654 9.65133 68.2988 10.034L67.8648 9.152C68.2568 8.77867 68.7514 8.48 69.3488 8.256C69.9461 8.032 70.5481 7.92 71.1548 7.92C71.7614 7.92 72.2841 8.02733 72.7228 8.242C73.1708 8.44733 73.5161 8.746 73.7588 9.138C74.0014 9.53 74.1228 9.99667 74.1228 10.538C74.1228 11.1073 73.9921 11.658 73.7308 12.19C73.4788 12.7127 73.0541 13.3007 72.4568 13.954L69.0968 17.594L69.0128 17.034H74.5428V18H68.1308ZM79.7173 18.098C79.1106 18.098 78.5133 17.9907 77.9253 17.776C77.3373 17.552 76.8426 17.2487 76.4413 16.866L76.8753 15.984C77.3326 16.3573 77.7946 16.642 78.2613 16.838C78.7373 17.034 79.2226 17.132 79.7173 17.132C80.4173 17.132 80.9633 16.936 81.3553 16.544C81.7566 16.1427 81.9573 15.6013 81.9573 14.92C81.9573 14.4813 81.8686 14.0987 81.6913 13.772C81.5139 13.436 81.2619 13.1747 80.9353 12.988C80.6179 12.8013 80.2399 12.708 79.8013 12.708C79.3253 12.708 78.8959 12.806 78.5133 13.002C78.1399 13.1887 77.8086 13.478 77.5193 13.87H76.7213V8.032H82.6993V8.984H77.8693V13.016L77.5053 12.974C77.7759 12.582 78.1213 12.2787 78.5413 12.064C78.9706 11.8493 79.4513 11.742 79.9833 11.742C80.6179 11.742 81.1686 11.8773 81.6353 12.148C82.1019 12.4093 82.4613 12.778 82.7133 13.254C82.9653 13.73 83.0913 14.2807 83.0913 14.906C83.0913 15.5313 82.9513 16.0867 82.6713 16.572C82.4006 17.048 82.0133 17.4213 81.5093 17.692C81.0053 17.9627 80.4079 18.098 79.7173 18.098ZM87.9578 18.112C86.8191 18.112 85.9511 17.6827 85.3538 16.824C84.7658 15.956 84.4718 14.6867 84.4718 13.016C84.4718 11.3453 84.7658 10.0807 85.3538 9.222C85.9418 8.354 86.8098 7.92 87.9578 7.92C89.1058 7.92 89.9738 8.354 90.5618 9.222C91.1498 10.0807 91.4438 11.3407 91.4438 13.002C91.4438 14.6727 91.1451 15.942 90.5478 16.81C89.9598 17.678 89.0965 18.112 87.9578 18.112ZM87.9578 17.146C88.7511 17.146 89.3345 16.81 89.7078 16.138C90.0905 15.466 90.2818 14.4207 90.2818 13.002C90.2818 11.5833 90.0905 10.5473 89.7078 9.894C89.3345 9.23133 88.7511 8.9 87.9578 8.9C87.1645 8.9 86.5765 9.23133 86.1938 9.894C85.8205 10.5567 85.6338 11.5927 85.6338 13.002C85.6338 14.4207 85.8205 15.466 86.1938 16.138C86.5765 16.81 87.1645 17.146 87.9578 17.146ZM93.6363 19.61L93.1043 19.204C93.3563 18.9333 93.5243 18.686 93.6083 18.462C93.6923 18.238 93.7343 18.0093 93.7343 17.776L94.0703 18H93.0483V16.558H94.4903V17.58C94.4903 17.9533 94.425 18.3033 94.2943 18.63C94.173 18.966 93.9537 19.2927 93.6363 19.61ZM99.5926 18.112C98.4539 18.112 97.5859 17.6827 96.9886 16.824C96.4006 15.956 96.1066 14.6867 96.1066 13.016C96.1066 11.3453 96.4006 10.0807 96.9886 9.222C97.5766 8.354 98.4446 7.92 99.5926 7.92C100.741 7.92 101.609 8.354 102.197 9.222C102.785 10.0807 103.079 11.3407 103.079 13.002C103.079 14.6727 102.78 15.942 102.183 16.81C101.595 17.678 100.731 18.112 99.5926 18.112ZM99.5926 17.146C100.386 17.146 100.969 16.81 101.343 16.138C101.725 15.466 101.917 14.4207 101.917 13.002C101.917 11.5833 101.725 10.5473 101.343 9.894C100.969 9.23133 100.386 8.9 99.5926 8.9C98.7992 8.9 98.2112 9.23133 97.8286 9.894C97.4552 10.5567 97.2686 11.5927 97.2686 13.002C97.2686 14.4207 97.4552 15.466 97.8286 16.138C98.2112 16.81 98.7992 17.146 99.5926 17.146ZM107.987 18.112C106.848 18.112 105.98 17.6827 105.383 16.824C104.795 15.956 104.501 14.6867 104.501 13.016C104.501 11.3453 104.795 10.0807 105.383 9.222C105.971 8.354 106.839 7.92 107.987 7.92C109.135 7.92 110.003 8.354 110.591 9.222C111.179 10.0807 111.473 11.3407 111.473 13.002C111.473 14.6727 111.174 15.942 110.577 16.81C109.989 17.678 109.126 18.112 107.987 18.112ZM107.987 17.146C108.78 17.146 109.364 16.81 109.737 16.138C110.12 15.466 110.311 14.4207 110.311 13.002C110.311 11.5833 110.12 10.5473 109.737 9.894C109.364 9.23133 108.78 8.9 107.987 8.9C107.194 8.9 106.606 9.23133 106.223 9.894C105.85 10.5567 105.663 11.5927 105.663 13.002C105.663 14.4207 105.85 15.466 106.223 16.138C106.606 16.81 107.194 17.146 107.987 17.146ZM116.382 18.112C115.243 18.112 114.375 17.6827 113.778 16.824C113.19 15.956 112.896 14.6867 112.896 13.016C112.896 11.3453 113.19 10.0807 113.778 9.222C114.366 8.354 115.234 7.92 116.382 7.92C117.53 7.92 118.398 8.354 118.986 9.222C119.574 10.0807 119.868 11.3407 119.868 13.002C119.868 14.6727 119.569 15.942 118.972 16.81C118.384 17.678 117.52 18.112 116.382 18.112ZM116.382 17.146C117.175 17.146 117.758 16.81 118.132 16.138C118.514 15.466 118.706 14.4207 118.706 13.002C118.706 11.5833 118.514 10.5473 118.132 9.894C117.758 9.23133 117.175 8.9 116.382 8.9C115.588 8.9 115 9.23133 114.618 9.894C114.244 10.5567 114.058 11.5927 114.058 13.002C114.058 14.4207 114.244 15.466 114.618 16.138C115 16.81 115.588 17.146 116.382 17.146ZM122.06 19.61L121.528 19.204C121.78 18.9333 121.948 18.686 122.032 18.462C122.116 18.238 122.158 18.0093 122.158 17.776L122.494 18H121.472V16.558H122.914V17.58C122.914 17.9533 122.849 18.3033 122.718 18.63C122.597 18.966 122.378 19.2927 122.06 19.61ZM128.016 18.112C126.878 18.112 126.01 17.6827 125.412 16.824C124.824 15.956 124.53 14.6867 124.53 13.016C124.53 11.3453 124.824 10.0807 125.412 9.222C126 8.354 126.868 7.92 128.016 7.92C129.164 7.92 130.032 8.354 130.62 9.222C131.208 10.0807 131.502 11.3407 131.502 13.002C131.502 14.6727 131.204 15.942 130.606 16.81C130.018 17.678 129.155 18.112 128.016 18.112ZM128.016 17.146C128.81 17.146 129.393 16.81 129.766 16.138C130.149 15.466 130.34 14.4207 130.34 13.002C130.34 11.5833 130.149 10.5473 129.766 9.894C129.393 9.23133 128.81 8.9 128.016 8.9C127.223 8.9 126.635 9.23133 126.252 9.894C125.879 10.5567 125.692 11.5927 125.692 13.002C125.692 14.4207 125.879 15.466 126.252 16.138C126.635 16.81 127.223 17.146 128.016 17.146ZM136.411 18.112C135.272 18.112 134.404 17.6827 133.807 16.824C133.219 15.956 132.925 14.6867 132.925 13.016C132.925 11.3453 133.219 10.0807 133.807 9.222C134.395 8.354 135.263 7.92 136.411 7.92C137.559 7.92 138.427 8.354 139.015 9.222C139.603 10.0807 139.897 11.3407 139.897 13.002C139.897 14.6727 139.598 15.942 139.001 16.81C138.413 17.678 137.55 18.112 136.411 18.112ZM136.411 17.146C137.204 17.146 137.788 16.81 138.161 16.138C138.544 15.466 138.735 14.4207 138.735 13.002C138.735 11.5833 138.544 10.5473 138.161 9.894C137.788 9.23133 137.204 8.9 136.411 8.9C135.618 8.9 135.03 9.23133 134.647 9.894C134.274 10.5567 134.087 11.5927 134.087 13.002C134.087 14.4207 134.274 15.466 134.647 16.138C135.03 16.81 135.618 17.146 136.411 17.146ZM144.805 18.112C143.667 18.112 142.799 17.6827 142.201 16.824C141.613 15.956 141.319 14.6867 141.319 13.016C141.319 11.3453 141.613 10.0807 142.201 9.222C142.789 8.354 143.657 7.92 144.805 7.92C145.953 7.92 146.821 8.354 147.409 9.222C147.997 10.0807 148.291 11.3407 148.291 13.002C148.291 14.6727 147.993 15.942 147.395 16.81C146.807 17.678 145.944 18.112 144.805 18.112ZM144.805 17.146C145.599 17.146 146.182 16.81 146.555 16.138C146.938 15.466 147.129 14.4207 147.129 13.002C147.129 11.5833 146.938 10.5473 146.555 9.894C146.182 9.23133 145.599 8.9 144.805 8.9C144.012 8.9 143.424 9.23133 143.041 9.894C142.668 10.5567 142.481 11.5927 142.481 13.002C142.481 14.4207 142.668 15.466 143.041 16.138C143.424 16.81 144.012 17.146 144.805 17.146Z" fill="#A7B3BF"/>
    <path opacity="0.3" d="M160 14.5H730" stroke="#A7B3BF"/>
    <path d="M71.4908 166.112C70.2868 166.112 69.3581 165.697 68.7048 164.866C68.0514 164.026 67.7248 162.827 67.7248 161.268C67.7248 160.139 67.8741 159.177 68.1728 158.384C68.4808 157.581 68.9194 156.97 69.4888 156.55C70.0674 156.13 70.7581 155.92 71.5608 155.92C72.1394 155.92 72.6994 156.027 73.2408 156.242C73.7821 156.447 74.2628 156.751 74.6827 157.152L74.2488 158.034C73.7821 157.633 73.3294 157.343 72.8908 157.166C72.4614 156.979 72.0274 156.886 71.5888 156.886C70.7301 156.886 70.0628 157.269 69.5868 158.034C69.1108 158.79 68.8728 159.863 68.8728 161.254V162.458L68.7048 162.08C68.7794 161.604 68.9521 161.193 69.2228 160.848C69.4934 160.493 69.8294 160.223 70.2308 160.036C70.6414 159.84 71.0941 159.742 71.5888 159.742C72.2048 159.742 72.7461 159.877 73.2128 160.148C73.6794 160.409 74.0434 160.778 74.3048 161.254C74.5661 161.73 74.6968 162.281 74.6968 162.906C74.6968 163.522 74.5568 164.073 74.2768 164.558C74.0061 165.043 73.6281 165.426 73.1428 165.706C72.6668 165.977 72.1161 166.112 71.4908 166.112ZM71.4348 165.146C72.0694 165.146 72.5828 164.945 72.9748 164.544C73.3668 164.133 73.5628 163.592 73.5628 162.92C73.5628 162.257 73.3668 161.725 72.9748 161.324C72.5828 160.913 72.0648 160.708 71.4208 160.708C70.9914 160.708 70.6088 160.806 70.2728 161.002C69.9368 161.189 69.6754 161.45 69.4888 161.786C69.3021 162.113 69.2088 162.491 69.2088 162.92C69.2088 163.368 69.3021 163.76 69.4888 164.096C69.6754 164.423 69.9368 164.679 70.2728 164.866C70.6088 165.053 70.9961 165.146 71.4348 165.146ZM76.5253 166V165.132L80.0113 161.268C80.4779 160.745 80.8186 160.274 81.0333 159.854C81.2479 159.434 81.3553 159.014 81.3553 158.594C81.3553 158.043 81.1966 157.623 80.8793 157.334C80.5619 157.035 80.1093 156.886 79.5213 156.886C79.0359 156.886 78.5599 156.984 78.0933 157.18C77.6266 157.367 77.1599 157.651 76.6933 158.034L76.2593 157.152C76.6513 156.779 77.1459 156.48 77.7433 156.256C78.3406 156.032 78.9426 155.92 79.5493 155.92C80.1559 155.92 80.6786 156.027 81.1173 156.242C81.5653 156.447 81.9106 156.746 82.1533 157.138C82.3959 157.53 82.5173 157.997 82.5173 158.538C82.5173 159.107 82.3866 159.658 82.1253 160.19C81.8733 160.713 81.4486 161.301 80.8513 161.954L77.4913 165.594L77.4073 165.034H82.9373V166H76.5253ZM88.1118 166.098C87.5051 166.098 86.9078 165.991 86.3198 165.776C85.7318 165.552 85.2371 165.249 84.8358 164.866L85.2698 163.984C85.7271 164.357 86.1891 164.642 86.6558 164.838C87.1318 165.034 87.6171 165.132 88.1118 165.132C88.8118 165.132 89.3578 164.936 89.7498 164.544C90.1511 164.143 90.3518 163.601 90.3518 162.92C90.3518 162.481 90.2631 162.099 90.0858 161.772C89.9085 161.436 89.6565 161.175 89.3298 160.988C89.0125 160.801 88.6345 160.708 88.1958 160.708C87.7198 160.708 87.2905 160.806 86.9078 161.002C86.5345 161.189 86.2031 161.478 85.9138 161.87H85.1158V156.032H91.0938V156.984H86.2638V161.016L85.8998 160.974C86.1705 160.582 86.5158 160.279 86.9358 160.064C87.3651 159.849 87.8458 159.742 88.3778 159.742C89.0125 159.742 89.5631 159.877 90.0298 160.148C90.4965 160.409 90.8558 160.778 91.1078 161.254C91.3598 161.73 91.4858 162.281 91.4858 162.906C91.4858 163.531 91.3458 164.087 91.0658 164.572C90.7951 165.048 90.4078 165.421 89.9038 165.692C89.3998 165.963 88.8025 166.098 88.1118 166.098ZM93.6363 167.61L93.1043 167.204C93.3563 166.933 93.5243 166.686 93.6083 166.462C93.6923 166.238 93.7343 166.009 93.7343 165.776L94.0703 166H93.0483V164.558H94.4903V165.58C94.4903 165.953 94.425 166.303 94.2943 166.63C94.173 166.966 93.9537 167.293 93.6363 167.61ZM99.5926 166.112C98.4539 166.112 97.5859 165.683 96.9886 164.824C96.4006 163.956 96.1066 162.687 96.1066 161.016C96.1066 159.345 96.4006 158.081 96.9886 157.222C97.5766 156.354 98.4446 155.92 99.5926 155.92C100.741 155.92 101.609 156.354 102.197 157.222C102.785 158.081 103.079 159.341 103.079 161.002C103.079 162.673 102.78 163.942 102.183 164.81C101.595 165.678 100.731 166.112 99.5926 166.112ZM99.5926 165.146C100.386 165.146 100.969 164.81 101.343 164.138C101.725 163.466 101.917 162.421 101.917 161.002C101.917 159.583 101.725 158.547 101.343 157.894C100.969 157.231 100.386 156.9 99.5926 156.9C98.7992 156.9 98.2112 157.231 97.8286 157.894C97.4552 158.557 97.2686 159.593 97.2686 161.002C97.2686 162.421 97.4552 163.466 97.8286 164.138C98.2112 164.81 98.7992 165.146 99.5926 165.146ZM104.949 166V165.132L108.435 161.268C108.902 160.745 109.242 160.274 109.457 159.854C109.672 159.434 109.779 159.014 109.779 158.594C109.779 158.043 109.62 157.623 109.303 157.334C108.986 157.035 108.533 156.886 107.945 156.886C107.46 156.886 106.984 156.984 106.517 157.18C106.05 157.367 105.584 157.651 105.117 158.034L104.683 157.152C105.075 156.779 105.57 156.48 106.167 156.256C106.764 156.032 107.366 155.92 107.973 155.92C108.58 155.92 109.102 156.027 109.541 156.242C109.989 156.447 110.334 156.746 110.577 157.138C110.82 157.53 110.941 157.997 110.941 158.538C110.941 159.107 110.81 159.658 110.549 160.19C110.297 160.713 109.872 161.301 109.275 161.954L105.915 165.594L105.831 165.034H111.361V166H104.949ZM116.536 166.098C115.929 166.098 115.332 165.991 114.744 165.776C114.156 165.552 113.661 165.249 113.26 164.866L113.694 163.984C114.151 164.357 114.613 164.642 115.08 164.838C115.556 165.034 116.041 165.132 116.536 165.132C117.236 165.132 117.782 164.936 118.174 164.544C118.575 164.143 118.776 163.601 118.776 162.92C118.776 162.481 118.687 162.099 118.51 161.772C118.332 161.436 118.08 161.175 117.754 160.988C117.436 160.801 117.058 160.708 116.62 160.708C116.144 160.708 115.714 160.806 115.332 161.002C114.958 161.189 114.627 161.478 114.338 161.87H113.54V156.032H119.518V156.984H114.688V161.016L114.324 160.974C114.594 160.582 114.94 160.279 115.36 160.064C115.789 159.849 116.27 159.742 116.802 159.742C117.436 159.742 117.987 159.877 118.454 160.148C118.92 160.409 119.28 160.778 119.532 161.254C119.784 161.73 119.91 162.281 119.91 162.906C119.91 163.531 119.77 164.087 119.49 164.572C119.219 165.048 118.832 165.421 118.328 165.692C117.824 165.963 117.226 166.098 116.536 166.098ZM122.06 167.61L121.528 167.204C121.78 166.933 121.948 166.686 122.032 166.462C122.116 166.238 122.158 166.009 122.158 165.776L122.494 166H121.472V164.558H122.914V165.58C122.914 165.953 122.849 166.303 122.718 166.63C122.597 166.966 122.378 167.293 122.06 167.61ZM128.016 166.112C126.878 166.112 126.01 165.683 125.412 164.824C124.824 163.956 124.53 162.687 124.53 161.016C124.53 159.345 124.824 158.081 125.412 157.222C126 156.354 126.868 155.92 128.016 155.92C129.164 155.92 130.032 156.354 130.62 157.222C131.208 158.081 131.502 159.341 131.502 161.002C131.502 162.673 131.204 163.942 130.606 164.81C130.018 165.678 129.155 166.112 128.016 166.112ZM128.016 165.146C128.81 165.146 129.393 164.81 129.766 164.138C130.149 163.466 130.34 162.421 130.34 161.002C130.34 159.583 130.149 158.547 129.766 157.894C129.393 157.231 128.81 156.9 128.016 156.9C127.223 156.9 126.635 157.231 126.252 157.894C125.879 158.557 125.692 159.593 125.692 161.002C125.692 162.421 125.879 163.466 126.252 164.138C126.635 164.81 127.223 165.146 128.016 165.146ZM136.411 166.112C135.272 166.112 134.404 165.683 133.807 164.824C133.219 163.956 132.925 162.687 132.925 161.016C132.925 159.345 133.219 158.081 133.807 157.222C134.395 156.354 135.263 155.92 136.411 155.92C137.559 155.92 138.427 156.354 139.015 157.222C139.603 158.081 139.897 159.341 139.897 161.002C139.897 162.673 139.598 163.942 139.001 164.81C138.413 165.678 137.55 166.112 136.411 166.112ZM136.411 165.146C137.204 165.146 137.788 164.81 138.161 164.138C138.544 163.466 138.735 162.421 138.735 161.002C138.735 159.583 138.544 158.547 138.161 157.894C137.788 157.231 137.204 156.9 136.411 156.9C135.618 156.9 135.03 157.231 134.647 157.894C134.274 158.557 134.087 159.593 134.087 161.002C134.087 162.421 134.274 163.466 134.647 164.138C135.03 164.81 135.618 165.146 136.411 165.146ZM144.805 166.112C143.667 166.112 142.799 165.683 142.201 164.824C141.613 163.956 141.319 162.687 141.319 161.016C141.319 159.345 141.613 158.081 142.201 157.222C142.789 156.354 143.657 155.92 144.805 155.92C145.953 155.92 146.821 156.354 147.409 157.222C147.997 158.081 148.291 159.341 148.291 161.002C148.291 162.673 147.993 163.942 147.395 164.81C146.807 165.678 145.944 166.112 144.805 166.112ZM144.805 165.146C145.599 165.146 146.182 164.81 146.555 164.138C146.938 163.466 147.129 162.421 147.129 161.002C147.129 159.583 146.938 158.547 146.555 157.894C146.182 157.231 145.599 156.9 144.805 156.9C144.012 156.9 143.424 157.231 143.041 157.894C142.668 158.557 142.481 159.593 142.481 161.002C142.481 162.421 142.668 163.466 143.041 164.138C143.424 164.81 144.012 165.146 144.805 165.146Z" fill="#A7B3BF"/>
    <path opacity="0.3" d="M160 161.5H730" stroke="#A7B3BF"/>
    <path d="M71.0708 239.098C70.4268 239.098 69.8061 238.991 69.2088 238.776C68.6208 238.561 68.1214 238.258 67.7108 237.866L68.1588 236.984C68.6068 237.367 69.0688 237.656 69.5448 237.852C70.0208 238.039 70.5201 238.132 71.0428 238.132C71.7521 238.132 72.2888 237.973 72.6528 237.656C73.0261 237.339 73.2128 236.872 73.2128 236.256C73.2128 235.64 73.0214 235.183 72.6388 234.884C72.2561 234.576 71.6821 234.422 70.9168 234.422H69.7688V233.456H70.6928C71.4301 233.456 71.9948 233.293 72.3868 232.966C72.7788 232.639 72.9748 232.173 72.9748 231.566C72.9748 231.025 72.8114 230.609 72.4848 230.32C72.1674 230.031 71.7148 229.886 71.1268 229.886C70.6321 229.886 70.1514 229.984 69.6848 230.18C69.2181 230.367 68.7561 230.651 68.2988 231.034L67.8648 230.152C68.2661 229.769 68.7608 229.471 69.3488 229.256C69.9368 229.032 70.5434 228.92 71.1688 228.92C71.7661 228.92 72.2888 229.027 72.7368 229.242C73.1848 229.447 73.5254 229.741 73.7588 230.124C74.0014 230.507 74.1228 230.959 74.1228 231.482C74.1228 232.098 73.9594 232.625 73.6328 233.064C73.3154 233.493 72.8768 233.787 72.3168 233.946L72.2748 233.806C72.9468 233.946 73.4601 234.231 73.8148 234.66C74.1694 235.089 74.3468 235.635 74.3468 236.298C74.3468 237.166 74.0528 237.852 73.4648 238.356C72.8768 238.851 72.0788 239.098 71.0708 239.098ZM79.3533 238.482V229.704L80.0113 230.04L77.3093 231.762V230.656L79.8573 229.032H80.5153V238.482H79.3533ZM77.1553 239V238.034H82.7133V239H77.1553ZM84.9198 239V238.132L88.4058 234.268C88.8725 233.745 89.2131 233.274 89.4278 232.854C89.6425 232.434 89.7498 232.014 89.7498 231.594C89.7498 231.043 89.5911 230.623 89.2738 230.334C88.9565 230.035 88.5038 229.886 87.9158 229.886C87.4305 229.886 86.9545 229.984 86.4878 230.18C86.0211 230.367 85.5545 230.651 85.0878 231.034L84.6538 230.152C85.0458 229.779 85.5405 229.48 86.1378 229.256C86.7351 229.032 87.3371 228.92 87.9438 228.92C88.5505 228.92 89.0731 229.027 89.5118 229.242C89.9598 229.447 90.3051 229.746 90.5478 230.138C90.7905 230.53 90.9118 230.997 90.9118 231.538C90.9118 232.107 90.7811 232.658 90.5198 233.19C90.2678 233.713 89.8431 234.301 89.2458 234.954L85.8858 238.594L85.8018 238.034H91.3318V239H84.9198ZM93.6363 240.61L93.1043 240.204C93.3563 239.933 93.5243 239.686 93.6083 239.462C93.6923 239.238 93.7343 239.009 93.7343 238.776L94.0703 239H93.0483V237.558H94.4903V238.58C94.4903 238.953 94.425 239.303 94.2943 239.63C94.173 239.966 93.9537 240.293 93.6363 240.61ZM99.7466 239.098C99.1399 239.098 98.5426 238.991 97.9546 238.776C97.3666 238.552 96.8719 238.249 96.4706 237.866L96.9046 236.984C97.3619 237.357 97.8239 237.642 98.2906 237.838C98.7666 238.034 99.2519 238.132 99.7466 238.132C100.447 238.132 100.993 237.936 101.385 237.544C101.786 237.143 101.987 236.601 101.987 235.92C101.987 235.481 101.898 235.099 101.721 234.772C101.543 234.436 101.291 234.175 100.965 233.988C100.647 233.801 100.269 233.708 99.8306 233.708C99.3546 233.708 98.9252 233.806 98.5426 234.002C98.1692 234.189 97.8379 234.478 97.5486 234.87H96.7506V229.032H102.729V229.984H97.8986V234.016L97.5346 233.974C97.8052 233.582 98.1506 233.279 98.5706 233.064C98.9999 232.849 99.4806 232.742 100.013 232.742C100.647 232.742 101.198 232.877 101.665 233.148C102.131 233.409 102.491 233.778 102.743 234.254C102.995 234.73 103.121 235.281 103.121 235.906C103.121 236.531 102.981 237.087 102.701 237.572C102.43 238.048 102.043 238.421 101.539 238.692C101.035 238.963 100.437 239.098 99.7466 239.098ZM107.889 239.098C107.245 239.098 106.624 238.991 106.027 238.776C105.439 238.561 104.94 238.258 104.529 237.866L104.977 236.984C105.425 237.367 105.887 237.656 106.363 237.852C106.839 238.039 107.338 238.132 107.861 238.132C108.57 238.132 109.107 237.973 109.471 237.656C109.844 237.339 110.031 236.872 110.031 236.256C110.031 235.64 109.84 235.183 109.457 234.884C109.074 234.576 108.5 234.422 107.735 234.422H106.587V233.456H107.511C108.248 233.456 108.813 233.293 109.205 232.966C109.597 232.639 109.793 232.173 109.793 231.566C109.793 231.025 109.63 230.609 109.303 230.32C108.986 230.031 108.533 229.886 107.945 229.886C107.45 229.886 106.97 229.984 106.503 230.18C106.036 230.367 105.574 230.651 105.117 231.034L104.683 230.152C105.084 229.769 105.579 229.471 106.167 229.256C106.755 229.032 107.362 228.92 107.987 228.92C108.584 228.92 109.107 229.027 109.555 229.242C110.003 229.447 110.344 229.741 110.577 230.124C110.82 230.507 110.941 230.959 110.941 231.482C110.941 232.098 110.778 232.625 110.451 233.064C110.134 233.493 109.695 233.787 109.135 233.946L109.093 233.806C109.765 233.946 110.278 234.231 110.633 234.66C110.988 235.089 111.165 235.635 111.165 236.298C111.165 237.166 110.871 237.852 110.283 238.356C109.695 238.851 108.897 239.098 107.889 239.098ZM114.996 239H113.764L118.65 229.536L118.748 229.998H113.092V229.032H119.672V229.886L114.996 239ZM122.06 240.61L121.528 240.204C121.78 239.933 121.948 239.686 122.032 239.462C122.116 239.238 122.158 239.009 122.158 238.776L122.494 239H121.472V237.558H122.914V238.58C122.914 238.953 122.849 239.303 122.718 239.63C122.597 239.966 122.378 240.293 122.06 240.61ZM128.17 239.098C127.564 239.098 126.966 238.991 126.378 238.776C125.79 238.552 125.296 238.249 124.894 237.866L125.328 236.984C125.786 237.357 126.248 237.642 126.714 237.838C127.19 238.034 127.676 238.132 128.17 238.132C128.87 238.132 129.416 237.936 129.808 237.544C130.21 237.143 130.41 236.601 130.41 235.92C130.41 235.481 130.322 235.099 130.144 234.772C129.967 234.436 129.715 234.175 129.388 233.988C129.071 233.801 128.693 233.708 128.254 233.708C127.778 233.708 127.349 233.806 126.966 234.002C126.593 234.189 126.262 234.478 125.972 234.87H125.174V229.032H131.152V229.984H126.322V234.016L125.958 233.974C126.229 233.582 126.574 233.279 126.994 233.064C127.424 232.849 127.904 232.742 128.436 232.742C129.071 232.742 129.622 232.877 130.088 233.148C130.555 233.409 130.914 233.778 131.166 234.254C131.418 234.73 131.544 235.281 131.544 235.906C131.544 236.531 131.404 237.087 131.124 237.572C130.854 238.048 130.466 238.421 129.962 238.692C129.458 238.963 128.861 239.098 128.17 239.098ZM136.411 239.112C135.272 239.112 134.404 238.683 133.807 237.824C133.219 236.956 132.925 235.687 132.925 234.016C132.925 232.345 133.219 231.081 133.807 230.222C134.395 229.354 135.263 228.92 136.411 228.92C137.559 228.92 138.427 229.354 139.015 230.222C139.603 231.081 139.897 232.341 139.897 234.002C139.897 235.673 139.598 236.942 139.001 237.81C138.413 238.678 137.55 239.112 136.411 239.112ZM136.411 238.146C137.204 238.146 137.788 237.81 138.161 237.138C138.544 236.466 138.735 235.421 138.735 234.002C138.735 232.583 138.544 231.547 138.161 230.894C137.788 230.231 137.204 229.9 136.411 229.9C135.618 229.9 135.03 230.231 134.647 230.894C134.274 231.557 134.087 232.593 134.087 234.002C134.087 235.421 134.274 236.466 134.647 237.138C135.03 237.81 135.618 238.146 136.411 238.146ZM144.805 239.112C143.667 239.112 142.799 238.683 142.201 237.824C141.613 236.956 141.319 235.687 141.319 234.016C141.319 232.345 141.613 231.081 142.201 230.222C142.789 229.354 143.657 228.92 144.805 228.92C145.953 228.92 146.821 229.354 147.409 230.222C147.997 231.081 148.291 232.341 148.291 234.002C148.291 235.673 147.993 236.942 147.395 237.81C146.807 238.678 145.944 239.112 144.805 239.112ZM144.805 238.146C145.599 238.146 146.182 237.81 146.555 237.138C146.938 236.466 147.129 235.421 147.129 234.002C147.129 232.583 146.938 231.547 146.555 230.894C146.182 230.231 145.599 229.9 144.805 229.9C144.012 229.9 143.424 230.231 143.041 230.894C142.668 231.557 142.481 232.593 142.481 234.002C142.481 235.421 142.668 236.466 143.041 237.138C143.424 237.81 144.012 238.146 144.805 238.146Z" fill="#A7B3BF"/>
    <path opacity="0.3" d="M160 235.5H730" stroke="#A7B3BF"/>
    <path d="M108.141 313.098C107.534 313.098 106.937 312.991 106.349 312.776C105.761 312.552 105.266 312.249 104.865 311.866L105.299 310.984C105.756 311.357 106.218 311.642 106.685 311.838C107.161 312.034 107.646 312.132 108.141 312.132C108.841 312.132 109.387 311.936 109.779 311.544C110.18 311.143 110.381 310.601 110.381 309.92C110.381 309.481 110.292 309.099 110.115 308.772C109.938 308.436 109.686 308.175 109.359 307.988C109.042 307.801 108.664 307.708 108.225 307.708C107.749 307.708 107.32 307.806 106.937 308.002C106.564 308.189 106.232 308.478 105.943 308.87H105.145V303.032H111.123V303.984H106.293V308.016L105.929 307.974C106.2 307.582 106.545 307.279 106.965 307.064C107.394 306.849 107.875 306.742 108.407 306.742C109.042 306.742 109.592 306.877 110.059 307.148C110.526 307.409 110.885 307.778 111.137 308.254C111.389 308.73 111.515 309.281 111.515 309.906C111.515 310.531 111.375 311.087 111.095 311.572C110.824 312.048 110.437 312.421 109.933 312.692C109.429 312.963 108.832 313.098 108.141 313.098ZM116.382 313.112C115.243 313.112 114.375 312.683 113.778 311.824C113.19 310.956 112.896 309.687 112.896 308.016C112.896 306.345 113.19 305.081 113.778 304.222C114.366 303.354 115.234 302.92 116.382 302.92C117.53 302.92 118.398 303.354 118.986 304.222C119.574 305.081 119.868 306.341 119.868 308.002C119.868 309.673 119.569 310.942 118.972 311.81C118.384 312.678 117.52 313.112 116.382 313.112ZM116.382 312.146C117.175 312.146 117.758 311.81 118.132 311.138C118.514 310.466 118.706 309.421 118.706 308.002C118.706 306.583 118.514 305.547 118.132 304.894C117.758 304.231 117.175 303.9 116.382 303.9C115.588 303.9 115 304.231 114.618 304.894C114.244 305.557 114.058 306.593 114.058 308.002C114.058 309.421 114.244 310.466 114.618 311.138C115 311.81 115.588 312.146 116.382 312.146ZM122.06 314.61L121.528 314.204C121.78 313.933 121.948 313.686 122.032 313.462C122.116 313.238 122.158 313.009 122.158 312.776L122.494 313H121.472V311.558H122.914V312.58C122.914 312.953 122.849 313.303 122.718 313.63C122.597 313.966 122.378 314.293 122.06 314.61ZM128.016 313.112C126.878 313.112 126.01 312.683 125.412 311.824C124.824 310.956 124.53 309.687 124.53 308.016C124.53 306.345 124.824 305.081 125.412 304.222C126 303.354 126.868 302.92 128.016 302.92C129.164 302.92 130.032 303.354 130.62 304.222C131.208 305.081 131.502 306.341 131.502 308.002C131.502 309.673 131.204 310.942 130.606 311.81C130.018 312.678 129.155 313.112 128.016 313.112ZM128.016 312.146C128.81 312.146 129.393 311.81 129.766 311.138C130.149 310.466 130.34 309.421 130.34 308.002C130.34 306.583 130.149 305.547 129.766 304.894C129.393 304.231 128.81 303.9 128.016 303.9C127.223 303.9 126.635 304.231 126.252 304.894C125.879 305.557 125.692 306.593 125.692 308.002C125.692 309.421 125.879 310.466 126.252 311.138C126.635 311.81 127.223 312.146 128.016 312.146ZM136.411 313.112C135.272 313.112 134.404 312.683 133.807 311.824C133.219 310.956 132.925 309.687 132.925 308.016C132.925 306.345 133.219 305.081 133.807 304.222C134.395 303.354 135.263 302.92 136.411 302.92C137.559 302.92 138.427 303.354 139.015 304.222C139.603 305.081 139.897 306.341 139.897 308.002C139.897 309.673 139.598 310.942 139.001 311.81C138.413 312.678 137.55 313.112 136.411 313.112ZM136.411 312.146C137.204 312.146 137.788 311.81 138.161 311.138C138.544 310.466 138.735 309.421 138.735 308.002C138.735 306.583 138.544 305.547 138.161 304.894C137.788 304.231 137.204 303.9 136.411 303.9C135.618 303.9 135.03 304.231 134.647 304.894C134.274 305.557 134.087 306.593 134.087 308.002C134.087 309.421 134.274 310.466 134.647 311.138C135.03 311.81 135.618 312.146 136.411 312.146ZM144.805 313.112C143.667 313.112 142.799 312.683 142.201 311.824C141.613 310.956 141.319 309.687 141.319 308.016C141.319 306.345 141.613 305.081 142.201 304.222C142.789 303.354 143.657 302.92 144.805 302.92C145.953 302.92 146.821 303.354 147.409 304.222C147.997 305.081 148.291 306.341 148.291 308.002C148.291 309.673 147.993 310.942 147.395 311.81C146.807 312.678 145.944 313.112 144.805 313.112ZM144.805 312.146C145.599 312.146 146.182 311.81 146.555 311.138C146.938 310.466 147.129 309.421 147.129 308.002C147.129 306.583 146.938 305.547 146.555 304.894C146.182 304.231 145.599 303.9 144.805 303.9C144.012 303.9 143.424 304.231 143.041 304.894C142.668 305.557 142.481 306.593 142.481 308.002C142.481 309.421 142.668 310.466 143.041 311.138C143.424 311.81 144.012 312.146 144.805 312.146Z" fill="#A7B3BF"/>
    <path opacity="0.3" d="M160 309.5H730" stroke="#A7B3BF"/>
    <path opacity="0.3" d="M160.5 326V5" stroke="#A7B3BF"/>
    <path d="M198.424 346.096C197.984 346.096 197.572 346.06 197.188 345.988C196.804 345.908 196.448 345.788 196.12 345.628C195.792 345.46 195.496 345.256 195.232 345.016L195.604 344.26C196.036 344.62 196.468 344.876 196.9 345.028C197.34 345.18 197.852 345.256 198.436 345.256C199.116 345.256 199.644 345.124 200.02 344.86C200.396 344.588 200.584 344.208 200.584 343.72C200.584 343.424 200.488 343.188 200.296 343.012C200.112 342.828 199.856 342.684 199.528 342.58C199.208 342.468 198.844 342.364 198.436 342.268C198.028 342.18 197.64 342.08 197.272 341.968C196.904 341.848 196.576 341.7 196.288 341.524C196.008 341.348 195.788 341.124 195.628 340.852C195.468 340.58 195.388 340.24 195.388 339.832C195.388 339.344 195.516 338.916 195.772 338.548C196.028 338.172 196.388 337.88 196.852 337.672C197.316 337.464 197.864 337.36 198.496 337.36C198.888 337.36 199.264 337.404 199.624 337.492C199.984 337.572 200.316 337.692 200.62 337.852C200.932 338.012 201.208 338.208 201.448 338.44L201.064 339.196C200.672 338.852 200.268 338.6 199.852 338.44C199.436 338.28 198.984 338.2 198.496 338.2C197.832 338.2 197.312 338.34 196.936 338.62C196.56 338.9 196.372 339.292 196.372 339.796C196.372 340.108 196.456 340.36 196.624 340.552C196.792 340.744 197.028 340.9 197.332 341.02C197.636 341.132 197.984 341.236 198.376 341.332C198.792 341.428 199.192 341.532 199.576 341.644C199.96 341.756 200.3 341.896 200.596 342.064C200.9 342.224 201.14 342.436 201.316 342.7C201.492 342.956 201.58 343.284 201.58 343.684C201.58 344.172 201.452 344.596 201.196 344.956C200.94 345.316 200.576 345.596 200.104 345.796C199.632 345.996 199.072 346.096 198.424 346.096ZM208.013 345.28C207.749 345.528 207.409 345.724 206.993 345.868C206.585 346.012 206.165 346.084 205.733 346.084C205.109 346.084 204.569 345.96 204.113 345.712C203.665 345.464 203.317 345.108 203.069 344.644C202.829 344.172 202.709 343.612 202.709 342.964C202.709 342.34 202.829 341.792 203.069 341.32C203.309 340.848 203.641 340.48 204.065 340.216C204.497 339.952 204.993 339.82 205.553 339.82C206.089 339.82 206.549 339.94 206.933 340.18C207.317 340.412 207.609 340.748 207.809 341.188C208.017 341.628 208.121 342.156 208.121 342.772V342.952H203.561V342.316H207.569L207.257 342.76C207.273 342.056 207.133 341.516 206.837 341.14C206.549 340.764 206.125 340.576 205.565 340.576C204.981 340.576 204.521 340.784 204.185 341.2C203.857 341.608 203.693 342.176 203.693 342.904C203.693 343.688 203.865 344.28 204.209 344.68C204.561 345.08 205.073 345.28 205.745 345.28C206.097 345.28 206.433 345.224 206.753 345.112C207.081 344.992 207.393 344.812 207.689 344.572L208.013 345.28ZM209.596 348.592V341.656C209.596 341.376 209.588 341.096 209.572 340.816C209.564 340.528 209.54 340.244 209.5 339.964H210.424L210.532 341.212L210.436 341.392C210.572 340.888 210.832 340.5 211.216 340.228C211.6 339.956 212.064 339.82 212.608 339.82C213.136 339.82 213.6 339.952 214 340.216C214.408 340.48 214.724 340.848 214.948 341.32C215.18 341.792 215.296 342.344 215.296 342.976C215.296 343.608 215.18 344.16 214.948 344.632C214.724 345.096 214.412 345.456 214.012 345.712C213.612 345.96 213.144 346.084 212.608 346.084C212.064 346.084 211.6 345.948 211.216 345.676C210.832 345.404 210.572 345.016 210.436 344.512L210.568 344.392V348.592H209.596ZM212.428 345.28C213.012 345.28 213.468 345.08 213.796 344.68C214.124 344.28 214.288 343.712 214.288 342.976C214.288 342.24 214.124 341.668 213.796 341.26C213.468 340.844 213.012 340.636 212.428 340.636C211.828 340.636 211.368 340.836 211.048 341.236C210.728 341.636 210.568 342.208 210.568 342.952C210.568 343.696 210.728 344.272 211.048 344.68C211.368 345.08 211.828 345.28 212.428 345.28ZM216.424 344.764H217.66V346H216.424V344.764ZM222.559 346V345.256L225.547 341.944C225.947 341.496 226.239 341.092 226.423 340.732C226.607 340.372 226.699 340.012 226.699 339.652C226.699 339.18 226.563 338.82 226.291 338.572C226.019 338.316 225.631 338.188 225.127 338.188C224.711 338.188 224.303 338.272 223.903 338.44C223.503 338.6 223.103 338.844 222.703 339.172L222.331 338.416C222.667 338.096 223.091 337.84 223.603 337.648C224.115 337.456 224.631 337.36 225.151 337.36C225.671 337.36 226.119 337.452 226.495 337.636C226.879 337.812 227.175 338.068 227.383 338.404C227.591 338.74 227.695 339.14 227.695 339.604C227.695 340.092 227.583 340.564 227.359 341.02C227.143 341.468 226.779 341.972 226.267 342.532L223.387 345.652L223.315 345.172H228.055V346H222.559ZM232.358 346.096C231.382 346.096 230.638 345.728 230.126 344.992C229.622 344.248 229.37 343.16 229.37 341.728C229.37 340.296 229.622 339.212 230.126 338.476C230.63 337.732 231.374 337.36 232.358 337.36C233.342 337.36 234.086 337.732 234.59 338.476C235.094 339.212 235.346 340.292 235.346 341.716C235.346 343.148 235.09 344.236 234.578 344.98C234.074 345.724 233.334 346.096 232.358 346.096ZM232.358 345.268C233.038 345.268 233.538 344.98 233.858 344.404C234.186 343.828 234.35 342.932 234.35 341.716C234.35 340.5 234.186 339.612 233.858 339.052C233.538 338.484 233.038 338.2 232.358 338.2C231.678 338.2 231.174 338.484 230.846 339.052C230.526 339.62 230.366 340.508 230.366 341.716C230.366 342.932 230.526 343.828 230.846 344.404C231.174 344.98 231.678 345.268 232.358 345.268ZM236.949 346V345.256L239.937 341.944C240.337 341.496 240.629 341.092 240.813 340.732C240.997 340.372 241.089 340.012 241.089 339.652C241.089 339.18 240.953 338.82 240.681 338.572C240.409 338.316 240.021 338.188 239.517 338.188C239.101 338.188 238.693 338.272 238.293 338.44C237.893 338.6 237.493 338.844 237.093 339.172L236.721 338.416C237.057 338.096 237.481 337.84 237.993 337.648C238.505 337.456 239.021 337.36 239.541 337.36C240.061 337.36 240.509 337.452 240.885 337.636C241.269 337.812 241.565 338.068 241.773 338.404C241.981 338.74 242.085 339.14 242.085 339.604C242.085 340.092 241.973 340.564 241.749 341.02C241.533 341.468 241.169 341.972 240.657 342.532L237.777 345.652L237.705 345.172H242.445V346H236.949ZM246.748 346.096C245.772 346.096 245.028 345.728 244.516 344.992C244.012 344.248 243.76 343.16 243.76 341.728C243.76 340.296 244.012 339.212 244.516 338.476C245.02 337.732 245.764 337.36 246.748 337.36C247.732 337.36 248.476 337.732 248.98 338.476C249.484 339.212 249.736 340.292 249.736 341.716C249.736 343.148 249.48 344.236 248.968 344.98C248.464 345.724 247.724 346.096 246.748 346.096ZM246.748 345.268C247.428 345.268 247.928 344.98 248.248 344.404C248.576 343.828 248.74 342.932 248.74 341.716C248.74 340.5 248.576 339.612 248.248 339.052C247.928 338.484 247.428 338.2 246.748 338.2C246.068 338.2 245.564 338.484 245.236 339.052C244.916 339.62 244.756 340.508 244.756 341.716C244.756 342.932 244.916 343.828 245.236 344.404C245.564 344.98 246.068 345.268 246.748 345.268Z" fill="#A7B3BF"/>
    <path opacity="0.3" d="M223.5 326V5" stroke="#A7B3BF"/>
    <path d="M290.014 348.136V347.284C290.51 347.372 290.902 347.392 291.19 347.344C291.478 347.304 291.682 347.164 291.802 346.924C291.922 346.692 291.982 346.34 291.982 345.868V337.456H292.966V345.88C292.966 346.544 292.87 347.06 292.678 347.428C292.486 347.804 292.174 348.044 291.742 348.148C291.31 348.26 290.734 348.256 290.014 348.136ZM297.275 346.084C296.739 346.084 296.267 345.96 295.859 345.712C295.459 345.456 295.147 345.096 294.923 344.632C294.707 344.16 294.599 343.608 294.599 342.976C294.599 342.344 294.711 341.792 294.935 341.32C295.159 340.848 295.471 340.48 295.871 340.216C296.279 339.952 296.747 339.82 297.275 339.82C297.827 339.82 298.295 339.956 298.679 340.228C299.063 340.5 299.323 340.888 299.459 341.392L299.315 341.488V339.964H300.275V346H299.315V344.44L299.459 344.512C299.323 345.016 299.063 345.404 298.679 345.676C298.295 345.948 297.827 346.084 297.275 346.084ZM297.467 345.28C298.059 345.28 298.515 345.08 298.835 344.68C299.155 344.272 299.315 343.696 299.315 342.952C299.315 342.208 299.151 341.636 298.823 341.236C298.503 340.836 298.051 340.636 297.467 340.636C296.875 340.636 296.411 340.844 296.075 341.26C295.747 341.668 295.583 342.24 295.583 342.976C295.583 343.712 295.747 344.28 296.075 344.68C296.411 345.08 296.875 345.28 297.467 345.28ZM302.155 346V341.656C302.155 341.376 302.147 341.096 302.131 340.816C302.123 340.528 302.099 340.244 302.059 339.964H302.983L303.091 341.212L302.971 341.308C303.139 340.82 303.419 340.452 303.811 340.204C304.203 339.948 304.655 339.82 305.167 339.82C306.615 339.82 307.339 340.616 307.339 342.208V346H306.367V342.256C306.367 341.696 306.255 341.288 306.031 341.032C305.807 340.768 305.455 340.636 304.975 340.636C304.415 340.636 303.967 340.808 303.631 341.152C303.295 341.496 303.127 341.96 303.127 342.544V346H302.155ZM309.006 344.764H310.242V346H309.006V344.764ZM315.141 346V345.256L318.129 341.944C318.529 341.496 318.821 341.092 319.005 340.732C319.189 340.372 319.281 340.012 319.281 339.652C319.281 339.18 319.145 338.82 318.873 338.572C318.601 338.316 318.213 338.188 317.709 338.188C317.293 338.188 316.885 338.272 316.485 338.44C316.085 338.6 315.685 338.844 315.285 339.172L314.913 338.416C315.249 338.096 315.673 337.84 316.185 337.648C316.697 337.456 317.213 337.36 317.733 337.36C318.253 337.36 318.701 337.452 319.077 337.636C319.461 337.812 319.757 338.068 319.965 338.404C320.173 338.74 320.277 339.14 320.277 339.604C320.277 340.092 320.165 340.564 319.941 341.02C319.725 341.468 319.361 341.972 318.849 342.532L315.969 345.652L315.897 345.172H320.637V346H315.141ZM324.94 346.096C323.964 346.096 323.22 345.728 322.708 344.992C322.204 344.248 321.952 343.16 321.952 341.728C321.952 340.296 322.204 339.212 322.708 338.476C323.212 337.732 323.956 337.36 324.94 337.36C325.924 337.36 326.668 337.732 327.172 338.476C327.676 339.212 327.928 340.292 327.928 341.716C327.928 343.148 327.672 344.236 327.16 344.98C326.656 345.724 325.916 346.096 324.94 346.096ZM324.94 345.268C325.62 345.268 326.12 344.98 326.44 344.404C326.768 343.828 326.932 342.932 326.932 341.716C326.932 340.5 326.768 339.612 326.44 339.052C326.12 338.484 325.62 338.2 324.94 338.2C324.26 338.2 323.756 338.484 323.428 339.052C323.108 339.62 322.948 340.508 322.948 341.716C322.948 342.932 323.108 343.828 323.428 344.404C323.756 344.98 324.26 345.268 324.94 345.268ZM329.531 346V345.256L332.519 341.944C332.919 341.496 333.211 341.092 333.395 340.732C333.579 340.372 333.671 340.012 333.671 339.652C333.671 339.18 333.535 338.82 333.263 338.572C332.991 338.316 332.603 338.188 332.099 338.188C331.683 338.188 331.275 338.272 330.875 338.44C330.475 338.6 330.075 338.844 329.675 339.172L329.303 338.416C329.639 338.096 330.063 337.84 330.575 337.648C331.087 337.456 331.603 337.36 332.123 337.36C332.643 337.36 333.091 337.452 333.467 337.636C333.851 337.812 334.147 338.068 334.355 338.404C334.563 338.74 334.667 339.14 334.667 339.604C334.667 340.092 334.555 340.564 334.331 341.02C334.115 341.468 333.751 341.972 333.239 342.532L330.359 345.652L330.287 345.172H335.027V346H329.531ZM339.15 345.556V338.032L339.714 338.32L337.398 339.796V338.848L339.582 337.456H340.146V345.556H339.15ZM337.266 346V345.172H342.03V346H337.266Z" fill="#A7B3BF"/>
    <path opacity="0.3" d="M317.5 326V5" stroke="#A7B3BF"/>
    <path d="M384.014 348.136V347.284C384.51 347.372 384.902 347.392 385.19 347.344C385.478 347.304 385.682 347.164 385.802 346.924C385.922 346.692 385.982 346.34 385.982 345.868V337.456H386.966V345.88C386.966 346.544 386.87 347.06 386.678 347.428C386.486 347.804 386.174 348.044 385.742 348.148C385.31 348.26 384.734 348.256 384.014 348.136ZM391.275 346.084C390.739 346.084 390.267 345.96 389.859 345.712C389.459 345.456 389.147 345.096 388.923 344.632C388.707 344.16 388.599 343.608 388.599 342.976C388.599 342.344 388.711 341.792 388.935 341.32C389.159 340.848 389.471 340.48 389.871 340.216C390.279 339.952 390.747 339.82 391.275 339.82C391.827 339.82 392.295 339.956 392.679 340.228C393.063 340.5 393.323 340.888 393.459 341.392L393.315 341.488V339.964H394.275V346H393.315V344.44L393.459 344.512C393.323 345.016 393.063 345.404 392.679 345.676C392.295 345.948 391.827 346.084 391.275 346.084ZM391.467 345.28C392.059 345.28 392.515 345.08 392.835 344.68C393.155 344.272 393.315 343.696 393.315 342.952C393.315 342.208 393.151 341.636 392.823 341.236C392.503 340.836 392.051 340.636 391.467 340.636C390.875 340.636 390.411 340.844 390.075 341.26C389.747 341.668 389.583 342.24 389.583 342.976C389.583 343.712 389.747 344.28 390.075 344.68C390.411 345.08 390.875 345.28 391.467 345.28ZM396.155 346V341.656C396.155 341.376 396.147 341.096 396.131 340.816C396.123 340.528 396.099 340.244 396.059 339.964H396.983L397.091 341.212L396.971 341.308C397.139 340.82 397.419 340.452 397.811 340.204C398.203 339.948 398.655 339.82 399.167 339.82C400.615 339.82 401.339 340.616 401.339 342.208V346H400.367V342.256C400.367 341.696 400.255 341.288 400.031 341.032C399.807 340.768 399.455 340.636 398.975 340.636C398.415 340.636 397.967 340.808 397.631 341.152C397.295 341.496 397.127 341.96 397.127 342.544V346H396.155ZM403.006 344.764H404.242V346H403.006V344.764ZM409.141 346V345.256L412.129 341.944C412.529 341.496 412.821 341.092 413.005 340.732C413.189 340.372 413.281 340.012 413.281 339.652C413.281 339.18 413.145 338.82 412.873 338.572C412.601 338.316 412.213 338.188 411.709 338.188C411.293 338.188 410.885 338.272 410.485 338.44C410.085 338.6 409.685 338.844 409.285 339.172L408.913 338.416C409.249 338.096 409.673 337.84 410.185 337.648C410.697 337.456 411.213 337.36 411.733 337.36C412.253 337.36 412.701 337.452 413.077 337.636C413.461 337.812 413.757 338.068 413.965 338.404C414.173 338.74 414.277 339.14 414.277 339.604C414.277 340.092 414.165 340.564 413.941 341.02C413.725 341.468 413.361 341.972 412.849 342.532L409.969 345.652L409.897 345.172H414.637V346H409.141ZM418.94 346.096C417.964 346.096 417.22 345.728 416.708 344.992C416.204 344.248 415.952 343.16 415.952 341.728C415.952 340.296 416.204 339.212 416.708 338.476C417.212 337.732 417.956 337.36 418.94 337.36C419.924 337.36 420.668 337.732 421.172 338.476C421.676 339.212 421.928 340.292 421.928 341.716C421.928 343.148 421.672 344.236 421.16 344.98C420.656 345.724 419.916 346.096 418.94 346.096ZM418.94 345.268C419.62 345.268 420.12 344.98 420.44 344.404C420.768 343.828 420.932 342.932 420.932 341.716C420.932 340.5 420.768 339.612 420.44 339.052C420.12 338.484 419.62 338.2 418.94 338.2C418.26 338.2 417.756 338.484 417.428 339.052C417.108 339.62 416.948 340.508 416.948 341.716C416.948 342.932 417.108 343.828 417.428 344.404C417.756 344.98 418.26 345.268 418.94 345.268ZM423.531 346V345.256L426.519 341.944C426.919 341.496 427.211 341.092 427.395 340.732C427.579 340.372 427.671 340.012 427.671 339.652C427.671 339.18 427.535 338.82 427.263 338.572C426.991 338.316 426.603 338.188 426.099 338.188C425.683 338.188 425.275 338.272 424.875 338.44C424.475 338.6 424.075 338.844 423.675 339.172L423.303 338.416C423.639 338.096 424.063 337.84 424.575 337.648C425.087 337.456 425.603 337.36 426.123 337.36C426.643 337.36 427.091 337.452 427.467 337.636C427.851 337.812 428.147 338.068 428.355 338.404C428.563 338.74 428.667 339.14 428.667 339.604C428.667 340.092 428.555 340.564 428.331 341.02C428.115 341.468 427.751 341.972 427.239 342.532L424.359 345.652L424.287 345.172H429.027V346H423.531ZM430.726 346V345.256L433.714 341.944C434.114 341.496 434.406 341.092 434.59 340.732C434.774 340.372 434.866 340.012 434.866 339.652C434.866 339.18 434.73 338.82 434.458 338.572C434.186 338.316 433.798 338.188 433.294 338.188C432.878 338.188 432.47 338.272 432.07 338.44C431.67 338.6 431.27 338.844 430.87 339.172L430.498 338.416C430.834 338.096 431.258 337.84 431.77 337.648C432.282 337.456 432.798 337.36 433.318 337.36C433.838 337.36 434.286 337.452 434.662 337.636C435.046 337.812 435.342 338.068 435.55 338.404C435.758 338.74 435.862 339.14 435.862 339.604C435.862 340.092 435.75 340.564 435.526 341.02C435.31 341.468 434.946 341.972 434.434 342.532L431.554 345.652L431.482 345.172H436.222V346H430.726Z" fill="#A7B3BF"/>
    <path d="M478.014 348.136V347.284C478.51 347.372 478.902 347.392 479.19 347.344C479.478 347.304 479.682 347.164 479.802 346.924C479.922 346.692 479.982 346.34 479.982 345.868V337.456H480.966V345.88C480.966 346.544 480.87 347.06 480.678 347.428C480.486 347.804 480.174 348.044 479.742 348.148C479.31 348.26 478.734 348.256 478.014 348.136ZM485.275 346.084C484.739 346.084 484.267 345.96 483.859 345.712C483.459 345.456 483.147 345.096 482.923 344.632C482.707 344.16 482.599 343.608 482.599 342.976C482.599 342.344 482.711 341.792 482.935 341.32C483.159 340.848 483.471 340.48 483.871 340.216C484.279 339.952 484.747 339.82 485.275 339.82C485.827 339.82 486.295 339.956 486.679 340.228C487.063 340.5 487.323 340.888 487.459 341.392L487.315 341.488V339.964H488.275V346H487.315V344.44L487.459 344.512C487.323 345.016 487.063 345.404 486.679 345.676C486.295 345.948 485.827 346.084 485.275 346.084ZM485.467 345.28C486.059 345.28 486.515 345.08 486.835 344.68C487.155 344.272 487.315 343.696 487.315 342.952C487.315 342.208 487.151 341.636 486.823 341.236C486.503 340.836 486.051 340.636 485.467 340.636C484.875 340.636 484.411 340.844 484.075 341.26C483.747 341.668 483.583 342.24 483.583 342.976C483.583 343.712 483.747 344.28 484.075 344.68C484.411 345.08 484.875 345.28 485.467 345.28ZM490.155 346V341.656C490.155 341.376 490.147 341.096 490.131 340.816C490.123 340.528 490.099 340.244 490.059 339.964H490.983L491.091 341.212L490.971 341.308C491.139 340.82 491.419 340.452 491.811 340.204C492.203 339.948 492.655 339.82 493.167 339.82C494.615 339.82 495.339 340.616 495.339 342.208V346H494.367V342.256C494.367 341.696 494.255 341.288 494.031 341.032C493.807 340.768 493.455 340.636 492.975 340.636C492.415 340.636 491.967 340.808 491.631 341.152C491.295 341.496 491.127 341.96 491.127 342.544V346H490.155ZM497.006 344.764H498.242V346H497.006V344.764ZM503.141 346V345.256L506.129 341.944C506.529 341.496 506.821 341.092 507.005 340.732C507.189 340.372 507.281 340.012 507.281 339.652C507.281 339.18 507.145 338.82 506.873 338.572C506.601 338.316 506.213 338.188 505.709 338.188C505.293 338.188 504.885 338.272 504.485 338.44C504.085 338.6 503.685 338.844 503.285 339.172L502.913 338.416C503.249 338.096 503.673 337.84 504.185 337.648C504.697 337.456 505.213 337.36 505.733 337.36C506.253 337.36 506.701 337.452 507.077 337.636C507.461 337.812 507.757 338.068 507.965 338.404C508.173 338.74 508.277 339.14 508.277 339.604C508.277 340.092 508.165 340.564 507.941 341.02C507.725 341.468 507.361 341.972 506.849 342.532L503.969 345.652L503.897 345.172H508.637V346H503.141ZM512.94 346.096C511.964 346.096 511.22 345.728 510.708 344.992C510.204 344.248 509.952 343.16 509.952 341.728C509.952 340.296 510.204 339.212 510.708 338.476C511.212 337.732 511.956 337.36 512.94 337.36C513.924 337.36 514.668 337.732 515.172 338.476C515.676 339.212 515.928 340.292 515.928 341.716C515.928 343.148 515.672 344.236 515.16 344.98C514.656 345.724 513.916 346.096 512.94 346.096ZM512.94 345.268C513.62 345.268 514.12 344.98 514.44 344.404C514.768 343.828 514.932 342.932 514.932 341.716C514.932 340.5 514.768 339.612 514.44 339.052C514.12 338.484 513.62 338.2 512.94 338.2C512.26 338.2 511.756 338.484 511.428 339.052C511.108 339.62 510.948 340.508 510.948 341.716C510.948 342.932 511.108 343.828 511.428 344.404C511.756 344.98 512.26 345.268 512.94 345.268ZM517.531 346V345.256L520.519 341.944C520.919 341.496 521.211 341.092 521.395 340.732C521.579 340.372 521.671 340.012 521.671 339.652C521.671 339.18 521.535 338.82 521.263 338.572C520.991 338.316 520.603 338.188 520.099 338.188C519.683 338.188 519.275 338.272 518.875 338.44C518.475 338.6 518.075 338.844 517.675 339.172L517.303 338.416C517.639 338.096 518.063 337.84 518.575 337.648C519.087 337.456 519.603 337.36 520.123 337.36C520.643 337.36 521.091 337.452 521.467 337.636C521.851 337.812 522.147 338.068 522.355 338.404C522.563 338.74 522.667 339.14 522.667 339.604C522.667 340.092 522.555 340.564 522.331 341.02C522.115 341.468 521.751 341.972 521.239 342.532L518.359 345.652L518.287 345.172H523.027V346H517.531ZM527.246 346.084C526.694 346.084 526.162 345.992 525.65 345.808C525.146 345.624 524.718 345.364 524.366 345.028L524.75 344.272C525.134 344.6 525.53 344.848 525.938 345.016C526.346 345.176 526.774 345.256 527.222 345.256C527.83 345.256 528.29 345.12 528.602 344.848C528.922 344.576 529.082 344.176 529.082 343.648C529.082 343.12 528.918 342.728 528.59 342.472C528.262 342.208 527.77 342.076 527.114 342.076H526.13V341.248H526.922C527.554 341.248 528.038 341.108 528.374 340.828C528.71 340.548 528.878 340.148 528.878 339.628C528.878 339.164 528.738 338.808 528.458 338.56C528.186 338.312 527.798 338.188 527.294 338.188C526.87 338.188 526.458 338.272 526.058 338.44C525.658 338.6 525.262 338.844 524.87 339.172L524.498 338.416C524.842 338.088 525.266 337.832 525.77 337.648C526.274 337.456 526.794 337.36 527.33 337.36C527.842 337.36 528.29 337.452 528.674 337.636C529.058 337.812 529.35 338.064 529.55 338.392C529.758 338.72 529.862 339.108 529.862 339.556C529.862 340.084 529.722 340.536 529.442 340.912C529.17 341.28 528.794 341.532 528.314 341.668L528.278 341.548C528.854 341.668 529.294 341.912 529.598 342.28C529.902 342.648 530.054 343.116 530.054 343.684C530.054 344.428 529.802 345.016 529.298 345.448C528.794 345.872 528.11 346.084 527.246 346.084Z" fill="#A7B3BF"/>
    <path d="M572.014 348.136V347.284C572.51 347.372 572.902 347.392 573.19 347.344C573.478 347.304 573.682 347.164 573.802 346.924C573.922 346.692 573.982 346.34 573.982 345.868V337.456H574.966V345.88C574.966 346.544 574.87 347.06 574.678 347.428C574.486 347.804 574.174 348.044 573.742 348.148C573.31 348.26 572.734 348.256 572.014 348.136ZM579.275 346.084C578.739 346.084 578.267 345.96 577.859 345.712C577.459 345.456 577.147 345.096 576.923 344.632C576.707 344.16 576.599 343.608 576.599 342.976C576.599 342.344 576.711 341.792 576.935 341.32C577.159 340.848 577.471 340.48 577.871 340.216C578.279 339.952 578.747 339.82 579.275 339.82C579.827 339.82 580.295 339.956 580.679 340.228C581.063 340.5 581.323 340.888 581.459 341.392L581.315 341.488V339.964H582.275V346H581.315V344.44L581.459 344.512C581.323 345.016 581.063 345.404 580.679 345.676C580.295 345.948 579.827 346.084 579.275 346.084ZM579.467 345.28C580.059 345.28 580.515 345.08 580.835 344.68C581.155 344.272 581.315 343.696 581.315 342.952C581.315 342.208 581.151 341.636 580.823 341.236C580.503 340.836 580.051 340.636 579.467 340.636C578.875 340.636 578.411 340.844 578.075 341.26C577.747 341.668 577.583 342.24 577.583 342.976C577.583 343.712 577.747 344.28 578.075 344.68C578.411 345.08 578.875 345.28 579.467 345.28ZM584.155 346V341.656C584.155 341.376 584.147 341.096 584.131 340.816C584.123 340.528 584.099 340.244 584.059 339.964H584.983L585.091 341.212L584.971 341.308C585.139 340.82 585.419 340.452 585.811 340.204C586.203 339.948 586.655 339.82 587.167 339.82C588.615 339.82 589.339 340.616 589.339 342.208V346H588.367V342.256C588.367 341.696 588.255 341.288 588.031 341.032C587.807 340.768 587.455 340.636 586.975 340.636C586.415 340.636 585.967 340.808 585.631 341.152C585.295 341.496 585.127 341.96 585.127 342.544V346H584.155ZM591.006 344.764H592.242V346H591.006V344.764ZM597.141 346V345.256L600.129 341.944C600.529 341.496 600.821 341.092 601.005 340.732C601.189 340.372 601.281 340.012 601.281 339.652C601.281 339.18 601.145 338.82 600.873 338.572C600.601 338.316 600.213 338.188 599.709 338.188C599.293 338.188 598.885 338.272 598.485 338.44C598.085 338.6 597.685 338.844 597.285 339.172L596.913 338.416C597.249 338.096 597.673 337.84 598.185 337.648C598.697 337.456 599.213 337.36 599.733 337.36C600.253 337.36 600.701 337.452 601.077 337.636C601.461 337.812 601.757 338.068 601.965 338.404C602.173 338.74 602.277 339.14 602.277 339.604C602.277 340.092 602.165 340.564 601.941 341.02C601.725 341.468 601.361 341.972 600.849 342.532L597.969 345.652L597.897 345.172H602.637V346H597.141ZM606.94 346.096C605.964 346.096 605.22 345.728 604.708 344.992C604.204 344.248 603.952 343.16 603.952 341.728C603.952 340.296 604.204 339.212 604.708 338.476C605.212 337.732 605.956 337.36 606.94 337.36C607.924 337.36 608.668 337.732 609.172 338.476C609.676 339.212 609.928 340.292 609.928 341.716C609.928 343.148 609.672 344.236 609.16 344.98C608.656 345.724 607.916 346.096 606.94 346.096ZM606.94 345.268C607.62 345.268 608.12 344.98 608.44 344.404C608.768 343.828 608.932 342.932 608.932 341.716C608.932 340.5 608.768 339.612 608.44 339.052C608.12 338.484 607.62 338.2 606.94 338.2C606.26 338.2 605.756 338.484 605.428 339.052C605.108 339.62 604.948 340.508 604.948 341.716C604.948 342.932 605.108 343.828 605.428 344.404C605.756 344.98 606.26 345.268 606.94 345.268ZM611.531 346V345.256L614.519 341.944C614.919 341.496 615.211 341.092 615.395 340.732C615.579 340.372 615.671 340.012 615.671 339.652C615.671 339.18 615.535 338.82 615.263 338.572C614.991 338.316 614.603 338.188 614.099 338.188C613.683 338.188 613.275 338.272 612.875 338.44C612.475 338.6 612.075 338.844 611.675 339.172L611.303 338.416C611.639 338.096 612.063 337.84 612.575 337.648C613.087 337.456 613.603 337.36 614.123 337.36C614.643 337.36 615.091 337.452 615.467 337.636C615.851 337.812 616.147 338.068 616.355 338.404C616.563 338.74 616.667 339.14 616.667 339.604C616.667 340.092 616.555 340.564 616.331 341.02C616.115 341.468 615.751 341.972 615.239 342.532L612.359 345.652L612.287 345.172H617.027V346H611.531ZM622.254 346V338.692H622.554L619.002 343.816L619.014 343.324H624.534V344.14H618.318V343.396L622.434 337.456H623.238V346H622.254Z" fill="#A7B3BF"/>
    <path d="M666.014 348.136V347.284C666.51 347.372 666.902 347.392 667.19 347.344C667.478 347.304 667.682 347.164 667.802 346.924C667.922 346.692 667.982 346.34 667.982 345.868V337.456H668.966V345.88C668.966 346.544 668.87 347.06 668.678 347.428C668.486 347.804 668.174 348.044 667.742 348.148C667.31 348.26 666.734 348.256 666.014 348.136ZM673.275 346.084C672.739 346.084 672.267 345.96 671.859 345.712C671.459 345.456 671.147 345.096 670.923 344.632C670.707 344.16 670.599 343.608 670.599 342.976C670.599 342.344 670.711 341.792 670.935 341.32C671.159 340.848 671.471 340.48 671.871 340.216C672.279 339.952 672.747 339.82 673.275 339.82C673.827 339.82 674.295 339.956 674.679 340.228C675.063 340.5 675.323 340.888 675.459 341.392L675.315 341.488V339.964H676.275V346H675.315V344.44L675.459 344.512C675.323 345.016 675.063 345.404 674.679 345.676C674.295 345.948 673.827 346.084 673.275 346.084ZM673.467 345.28C674.059 345.28 674.515 345.08 674.835 344.68C675.155 344.272 675.315 343.696 675.315 342.952C675.315 342.208 675.151 341.636 674.823 341.236C674.503 340.836 674.051 340.636 673.467 340.636C672.875 340.636 672.411 340.844 672.075 341.26C671.747 341.668 671.583 342.24 671.583 342.976C671.583 343.712 671.747 344.28 672.075 344.68C672.411 345.08 672.875 345.28 673.467 345.28ZM678.155 346V341.656C678.155 341.376 678.147 341.096 678.131 340.816C678.123 340.528 678.099 340.244 678.059 339.964H678.983L679.091 341.212L678.971 341.308C679.139 340.82 679.419 340.452 679.811 340.204C680.203 339.948 680.655 339.82 681.167 339.82C682.615 339.82 683.339 340.616 683.339 342.208V346H682.367V342.256C682.367 341.696 682.255 341.288 682.031 341.032C681.807 340.768 681.455 340.636 680.975 340.636C680.415 340.636 679.967 340.808 679.631 341.152C679.295 341.496 679.127 341.96 679.127 342.544V346H678.155ZM685.006 344.764H686.242V346H685.006V344.764ZM691.141 346V345.256L694.129 341.944C694.529 341.496 694.821 341.092 695.005 340.732C695.189 340.372 695.281 340.012 695.281 339.652C695.281 339.18 695.145 338.82 694.873 338.572C694.601 338.316 694.213 338.188 693.709 338.188C693.293 338.188 692.885 338.272 692.485 338.44C692.085 338.6 691.685 338.844 691.285 339.172L690.913 338.416C691.249 338.096 691.673 337.84 692.185 337.648C692.697 337.456 693.213 337.36 693.733 337.36C694.253 337.36 694.701 337.452 695.077 337.636C695.461 337.812 695.757 338.068 695.965 338.404C696.173 338.74 696.277 339.14 696.277 339.604C696.277 340.092 696.165 340.564 695.941 341.02C695.725 341.468 695.361 341.972 694.849 342.532L691.969 345.652L691.897 345.172H696.637V346H691.141ZM700.94 346.096C699.964 346.096 699.22 345.728 698.708 344.992C698.204 344.248 697.952 343.16 697.952 341.728C697.952 340.296 698.204 339.212 698.708 338.476C699.212 337.732 699.956 337.36 700.94 337.36C701.924 337.36 702.668 337.732 703.172 338.476C703.676 339.212 703.928 340.292 703.928 341.716C703.928 343.148 703.672 344.236 703.16 344.98C702.656 345.724 701.916 346.096 700.94 346.096ZM700.94 345.268C701.62 345.268 702.12 344.98 702.44 344.404C702.768 343.828 702.932 342.932 702.932 341.716C702.932 340.5 702.768 339.612 702.44 339.052C702.12 338.484 701.62 338.2 700.94 338.2C700.26 338.2 699.756 338.484 699.428 339.052C699.108 339.62 698.948 340.508 698.948 341.716C698.948 342.932 699.108 343.828 699.428 344.404C699.756 344.98 700.26 345.268 700.94 345.268ZM705.531 346V345.256L708.519 341.944C708.919 341.496 709.211 341.092 709.395 340.732C709.579 340.372 709.671 340.012 709.671 339.652C709.671 339.18 709.535 338.82 709.263 338.572C708.991 338.316 708.603 338.188 708.099 338.188C707.683 338.188 707.275 338.272 706.875 338.44C706.475 338.6 706.075 338.844 705.675 339.172L705.303 338.416C705.639 338.096 706.063 337.84 706.575 337.648C707.087 337.456 707.603 337.36 708.123 337.36C708.643 337.36 709.091 337.452 709.467 337.636C709.851 337.812 710.147 338.068 710.355 338.404C710.563 338.74 710.667 339.14 710.667 339.604C710.667 340.092 710.555 340.564 710.331 341.02C710.115 341.468 709.751 341.972 709.239 342.532L706.359 345.652L706.287 345.172H711.027V346H705.531ZM715.462 346.084C714.942 346.084 714.43 345.992 713.926 345.808C713.422 345.616 712.998 345.356 712.654 345.028L713.026 344.272C713.418 344.592 713.814 344.836 714.214 345.004C714.622 345.172 715.038 345.256 715.462 345.256C716.062 345.256 716.53 345.088 716.866 344.752C717.21 344.408 717.382 343.944 717.382 343.36C717.382 342.984 717.306 342.656 717.154 342.376C717.002 342.088 716.786 341.864 716.506 341.704C716.234 341.544 715.91 341.464 715.534 341.464C715.126 341.464 714.758 341.548 714.43 341.716C714.11 341.876 713.826 342.124 713.578 342.46H712.894V337.456H718.018V338.272H713.878V341.728L713.566 341.692C713.798 341.356 714.094 341.096 714.454 340.912C714.822 340.728 715.234 340.636 715.69 340.636C716.234 340.636 716.706 340.752 717.106 340.984C717.506 341.208 717.814 341.524 718.03 341.932C718.246 342.34 718.354 342.812 718.354 343.348C718.354 343.884 718.234 344.36 717.994 344.776C717.762 345.184 717.43 345.504 716.998 345.736C716.566 345.968 716.054 346.084 715.462 346.084Z" fill="#A7B3BF"/>
    <path opacity="0.3" d="M410.5 326V5" stroke="#A7B3BF"/>
    <path opacity="0.3" d="M504.5 326V5" stroke="#A7B3BF"/>
    <path opacity="0.3" d="M598.5 326V5" stroke="#A7B3BF"/>
    <path opacity="0.3" d="M692.5 326V5" stroke="#A7B3BF"/>
    <path d="M694 64C598.426 116.211 396.32 230.083 351.273 253.807C324.037 268.15 308.66 276.649 221 281" stroke="#276BFB" stroke-width="6" stroke-linecap="round" stroke-linejoin="round"/>
    <path d="M18 200.768L8.032 200.768L8.032 196.764C8.032 195.756 8.26067 194.967 8.718 194.398C9.166 193.829 9.80533 193.544 10.636 193.544C11.2147 193.544 11.7047 193.703 12.106 194.02C12.498 194.328 12.778 194.757 12.946 195.308L12.834 195.308C12.9553 194.683 13.2307 194.193 13.66 193.838C14.0893 193.483 14.6307 193.306 15.284 193.306C16.1613 193.306 16.8333 193.595 17.3 194.174C17.7667 194.753 18 195.569 18 196.624L18 200.768ZM17.048 199.634L17.048 196.722C17.048 195.938 16.9033 195.364 16.614 195C16.3247 194.627 15.872 194.44 15.256 194.44C14.6493 194.44 14.192 194.627 13.884 195C13.576 195.373 13.422 195.947 13.422 196.722L13.422 199.634L17.048 199.634ZM12.456 199.634L12.456 196.946C12.456 196.19 12.3067 195.625 12.008 195.252C11.7093 194.869 11.2707 194.678 10.692 194.678C10.1227 194.678 9.698 194.865 9.418 195.238C9.12867 195.611 8.984 196.181 8.984 196.946L8.984 199.634L12.456 199.634ZM18 191.841L17.146 191.841L8.41 185.723L8.998 185.751L8.998 191.841L8.032 191.841L8.032 184.799L8.872 184.799L17.622 190.917L17.034 190.889L17.034 184.659L18 184.659L18 191.841ZM18 182.899L8.032 182.899L8.032 178.937C8.032 177.864 8.27 177.042 8.746 176.473C9.222 175.894 9.908 175.605 10.804 175.605C11.6627 175.605 12.3393 175.899 12.834 176.487C13.3193 177.066 13.562 177.882 13.562 178.937L13.366 177.901C13.366 177.537 13.4687 177.224 13.674 176.963C13.87 176.702 14.1873 176.492 14.626 176.333L18 175.073L18 176.291L14.682 177.523C14.262 177.682 13.9867 177.901 13.856 178.181C13.716 178.452 13.646 178.816 13.646 179.273L13.646 181.765L18 181.765L18 182.899ZM12.694 181.765L12.694 179.035C12.694 178.26 12.5353 177.686 12.218 177.313C11.9007 176.93 11.434 176.739 10.818 176.739C10.202 176.739 9.74467 176.926 9.446 177.299C9.138 177.672 8.984 178.251 8.984 179.035L8.984 181.765L12.694 181.765ZM18 173.077L18 174.449L12.89 170.655L12.036 169.983L8.032 167.071L8.032 165.713L12.904 169.339L13.772 169.997L18 173.077ZM18 166.903L13.772 169.997L12.89 170.655L8.032 174.267L8.032 172.895L12.036 169.983L12.904 169.339L18 165.545L18 166.903ZM18.112 156.289C18.112 157.241 17.9067 158.063 17.496 158.753C17.0853 159.444 16.4973 159.976 15.732 160.349C14.9667 160.723 14.0567 160.909 13.002 160.909C11.9473 160.909 11.042 160.723 10.286 160.349C9.53 159.976 8.94667 159.444 8.536 158.753C8.12533 158.063 7.92 157.241 7.92 156.289C7.92 155.608 8.02733 154.978 8.242 154.399C8.44733 153.821 8.76 153.321 9.18 152.901L10.062 153.335C9.65133 153.811 9.35733 154.283 9.18 154.749C9.00267 155.216 8.914 155.725 8.914 156.275C8.914 157.367 9.26867 158.217 9.978 158.823C10.6873 159.421 11.6953 159.719 13.002 159.719C14.318 159.719 15.3353 159.421 16.054 158.823C16.7633 158.226 17.118 157.377 17.118 156.275C17.118 155.725 17.0293 155.216 16.852 154.749C16.6747 154.283 16.3807 153.811 15.97 153.335L16.852 152.901C17.272 153.321 17.5893 153.821 17.804 154.399C18.0093 154.978 18.112 155.608 18.112 156.289ZM18 151.115L10.958 151.115L10.958 149.981L18 149.981L18 151.115ZM7.976 151.227L7.976 149.841L9.264 149.841L9.264 151.227L7.976 151.227ZM18 147.779L12.932 147.779C12.6053 147.779 12.2787 147.788 11.952 147.807C11.616 147.816 11.2847 147.844 10.958 147.891L10.958 146.813L12.694 146.659L12.652 146.813C12.036 146.682 11.574 146.402 11.266 145.973C10.9487 145.534 10.79 145.044 10.79 144.503C10.79 144.382 10.7993 144.27 10.818 144.167C10.8273 144.055 10.846 143.952 10.874 143.859L11.91 143.887C11.8353 144.102 11.798 144.349 11.798 144.629C11.798 145.114 11.9053 145.506 12.12 145.805C12.3347 146.094 12.61 146.309 12.946 146.449C13.2727 146.58 13.618 146.645 13.982 146.645L18 146.645L18 147.779ZM18.098 139.89C18.098 140.58 17.9487 141.178 17.65 141.682C17.3513 142.186 16.9313 142.578 16.39 142.858C15.8487 143.128 15.2093 143.264 14.472 143.264C13.744 143.264 13.1047 143.124 12.554 142.844C11.994 142.564 11.56 142.167 11.252 141.654C10.944 141.14 10.79 140.534 10.79 139.834C10.79 139.358 10.874 138.9 11.042 138.462C11.2007 138.014 11.4247 137.645 11.714 137.356L12.554 137.734C12.2833 138.079 12.0827 138.42 11.952 138.756C11.812 139.082 11.742 139.423 11.742 139.778C11.742 140.487 11.98 141.052 12.456 141.472C12.932 141.882 13.604 142.088 14.472 142.088C15.3307 142.088 15.9933 141.882 16.46 141.472C16.9267 141.061 17.16 140.496 17.16 139.778C17.16 139.432 17.0947 139.092 16.964 138.756C16.824 138.42 16.6187 138.079 16.348 137.734L17.188 137.356C17.468 137.654 17.692 138.032 17.86 138.49C18.0187 138.938 18.098 139.404 18.098 139.89ZM18.098 133.42C18.098 134.26 17.8647 134.895 17.398 135.324C16.9313 135.744 16.2407 135.954 15.326 135.954L10.958 135.954L10.958 134.82L15.298 134.82C15.9327 134.82 16.3993 134.689 16.698 134.428C16.9967 134.167 17.146 133.77 17.146 133.238C17.146 132.613 16.9453 132.109 16.544 131.726C16.1427 131.343 15.606 131.152 14.934 131.152L10.958 131.152L10.958 130.018L18 130.018L18 131.124L16.474 131.124L16.39 130.956C16.95 131.143 17.3747 131.46 17.664 131.908C17.9533 132.347 18.098 132.851 18.098 133.42ZM18 127.832L7.696 127.832L7.696 126.698L18 126.698L18 127.832ZM18.098 121.794C18.098 122.419 17.9533 122.97 17.664 123.446C17.3653 123.913 16.9453 124.277 16.404 124.538C15.8533 124.79 15.2093 124.916 14.472 124.916C13.7347 124.916 13.0907 124.785 12.54 124.524C11.9893 124.263 11.56 123.899 11.252 123.432C10.944 122.956 10.79 122.41 10.79 121.794C10.79 121.15 10.9487 120.604 11.266 120.156C11.5833 119.708 12.036 119.405 12.624 119.246L12.736 119.414L10.958 119.414L10.958 118.294L18 118.294L18 119.414L16.18 119.414L16.264 119.246C16.852 119.405 17.3047 119.708 17.622 120.156C17.9393 120.604 18.098 121.15 18.098 121.794ZM17.16 121.57C17.16 120.879 16.9267 120.347 16.46 119.974C15.984 119.601 15.312 119.414 14.444 119.414C13.576 119.414 12.9087 119.605 12.442 119.988C11.9753 120.361 11.742 120.889 11.742 121.57C11.742 122.261 11.9847 122.802 12.47 123.194C12.946 123.577 13.6133 123.768 14.472 123.768C15.3307 123.768 15.9933 123.577 16.46 123.194C16.9267 122.802 17.16 122.261 17.16 121.57ZM11.854 117.095L10.958 117.095L10.958 112.573L11.854 112.573L11.854 117.095ZM16.992 112.601L17.958 112.601C18.0047 112.76 18.0373 112.919 18.056 113.077C18.084 113.227 18.098 113.395 18.098 113.581C18.098 114.235 17.9113 114.757 17.538 115.149C17.1647 115.532 16.6047 115.723 15.858 115.723L9.152 115.723L8.746 114.589L15.704 114.589C16.0773 114.589 16.3667 114.538 16.572 114.435C16.7773 114.323 16.922 114.174 17.006 113.987C17.0807 113.801 17.118 113.591 17.118 113.357C17.118 113.217 17.1087 113.091 17.09 112.979C17.0713 112.867 17.0387 112.741 16.992 112.601ZM18 111.207L10.958 111.207L10.958 110.073L18 110.073L18 111.207ZM7.976 111.319L7.976 109.933L9.264 109.933L9.264 111.319L7.976 111.319ZM18 107.871L12.932 107.871C12.6053 107.871 12.2787 107.88 11.952 107.899C11.616 107.908 11.2847 107.936 10.958 107.983L10.958 106.905L12.414 106.779L12.526 106.919C11.9567 106.723 11.5273 106.396 11.238 105.939C10.9393 105.482 10.79 104.954 10.79 104.357C10.79 102.668 11.7187 101.823 13.576 101.823L18 101.823L18 102.957L13.632 102.957C12.9787 102.957 12.5027 103.088 12.204 103.349C11.896 103.61 11.742 104.021 11.742 104.581C11.742 105.234 11.9427 105.757 12.344 106.149C12.7453 106.541 13.2867 106.737 13.968 106.737L18 106.737L18 107.871ZM21.122 96.5874C21.122 97.6514 20.8793 98.5754 20.394 99.3594L19.47 99.1634C19.722 98.7248 19.904 98.3094 20.016 97.9174C20.128 97.5254 20.184 97.0821 20.184 96.5874C20.184 95.9154 20.002 95.4068 19.638 95.0614C19.2833 94.7068 18.7513 94.5294 18.042 94.5294L16.138 94.5294L15.956 94.3754C16.3293 94.4874 16.656 94.6648 16.936 94.9074C17.2067 95.1408 17.4167 95.4301 17.566 95.7754C17.7153 96.1208 17.79 96.5128 17.79 96.9514C17.79 97.5768 17.6453 98.1274 17.356 98.6034C17.0573 99.0701 16.6467 99.4388 16.124 99.7094C15.6013 99.9708 14.99 100.101 14.29 100.101C13.59 100.101 12.9787 99.9708 12.456 99.7094C11.9333 99.4388 11.5273 99.0701 11.238 98.6034C10.9393 98.1274 10.79 97.5768 10.79 96.9514C10.79 96.2981 10.9533 95.7474 11.28 95.2994C11.5973 94.8421 12.0453 94.5341 12.624 94.3754L12.47 94.5434L10.958 94.5434L10.958 93.4094L17.944 93.4094C18.9987 93.4094 19.792 93.6801 20.324 94.2214C20.856 94.7534 21.122 95.5421 21.122 96.5874ZM16.838 96.7274C16.838 96.0461 16.614 95.5141 16.166 95.1314C15.7087 94.7394 15.0833 94.5434 14.29 94.5434C13.4967 94.5434 12.876 94.7394 12.428 95.1314C11.9707 95.5141 11.742 96.0461 11.742 96.7274C11.742 97.4181 11.9707 97.9641 12.428 98.3654C12.876 98.7574 13.4967 98.9534 14.29 98.9534C15.0927 98.9534 15.718 98.7574 16.166 98.3654C16.614 97.9641 16.838 97.4181 16.838 96.7274Z" fill="#A7B3BF"/>
</svg>