<svg width="58" height="58" viewBox="0 0 58 58" fill="none" 
    xmlns="http://www.w3.org/2000/svg">
    <circle cx="29" cy="29" r="29" fill="white"/>
    <path d="M13.5136 29.8235C13.5136 38.5951 20.5742 45.7059 29.2839 45.7059C33.5818 45.7059 37.4737 43.9779 40.3208 41.1682L44 44.9495C40.2102 48.6896 35.0123 51 29.2839 51C17.671 51 8.25679 41.519 8.25679 29.8235L3 29.8235L10.8852 21L18.7704 29.8235H13.5136Z" fill="#276BFB"/>
    <path d="M28.7161 14.2941C24.4182 14.2941 20.5263 16.0221 17.6792 18.8318L14 15.0505C17.7898 11.3104 22.9877 9 28.7161 9C40.329 9 49.7432 18.481 49.7432 30.1765H55L47.1148 39L39.2296 30.1765H44.4864C44.4864 21.4049 37.4258 14.2941 28.7161 14.2941Z" fill="#33DFCC"/>
</svg>