<svg width="58" height="58" viewBox="0 0 58 58" fill="none" 
    xmlns="http://www.w3.org/2000/svg">
    <circle cx="29" cy="29" r="29" fill="white"/>
    <circle cx="29" cy="29" r="22" fill="white" stroke="#33DFCC" stroke-width="4"/>
    <path d="M27.9231 15H30.2308V17.4001C32.2139 17.5958 34.1985 18.342 35.6868 19.6573L33.9019 22.8479C32.6806 21.7844 30.7704 20.9639 29.0167 20.9639C26.9812 20.9639 25.6347 21.9363 25.6347 23.4253C25.6347 25.1629 27.5797 25.9539 29.7847 26.8506C32.6698 28.0239 36 29.3782 36 33.2708C36 36.6493 33.5414 39.4597 29.0769 39.6427V42H26.7692V39.5043C24.6293 39.1601 22.5589 38.2173 21 36.7046L23.1921 33.757C24.5073 34.9117 26.6367 36.0361 28.7036 36.0361C30.7077 36.0361 31.9603 35.0333 31.9603 33.5747C31.9603 31.775 29.9655 30.9286 27.726 29.9784C24.8607 28.7627 21.595 27.3771 21.595 23.6076C21.595 20.1853 24.2388 17.8483 27.9231 17.4191V15Z" fill="#276BFB"/>
</svg>