<svg width="70" height="70" viewBox="0 0 70 70" fill="none"
  xmlns="http://www.w3.org/2000/svg">
  <path d="M59.6392 59.9399C56.3788 63.201 52.4967 65.7717 48.224 67.4989C43.9513 69.2261 39.3754 70.0744 34.7686 69.9935C30.1907 70.0836 25.6425 69.2378 21.4019 67.5078C17.1612 65.7777 13.3173 63.1997 10.1048 59.9313C6.81669 56.7242 4.22329 52.8731 2.48623 48.6179C0.749174 44.3627 -0.0943081 39.7947 0.00836463 35.1986C0.00836463 25.1422 3.37958 16.7627 10.122 10.0604C13.3365 6.79283 17.1823 4.21608 21.4244 2.48752C25.6665 0.758947 30.2158 -0.0851533 34.7945 0.00677779C39.4003 -0.0713788 43.9748 0.779138 48.2459 2.50775C52.517 4.23635 56.3975 6.80774 59.6565 10.069C66.5482 16.7771 69.9941 25.1594 69.9941 35.2159C70.0812 39.832 69.2051 44.4155 67.4221 48.6729C65.639 52.9303 62.9881 56.7679 59.6392 59.9399Z" fill="#C43C86"/>
  <path d="M24.8989 41.1396L45.057 41.1757L35.0105 23.7642L24.8989 41.1396Z" fill="white"/>
  <path d="M35.0395 11C34.8697 11.0008 34.7031 11.0459 34.556 11.1308C34.409 11.2157 34.2867 11.3376 34.2011 11.4843L14.1298 45.9821C14.0448 46.1294 14 46.2964 14 46.4664C14 46.6364 14.0448 46.8034 14.1298 46.9507L26.359 39.8819L34.9962 25.0145L35.0395 11Z" fill="#EF4B2D"/>
  <path d="M55.8192 46.0544L35.8707 11.4843C35.7864 11.3381 35.6653 11.2166 35.5195 11.1316C35.3737 11.0467 35.2083 11.0013 35.0396 11V25.0218L43.6044 39.9181L55.812 47.0229C55.9003 46.8771 55.9476 46.7101 55.9488 46.5397C55.9501 46.3692 55.9053 46.2015 55.8192 46.0544Z" fill="#9D2063"/>
  <path d="M55.8121 47.0084L43.6045 39.9036H26.3592L14.1299 46.9361C14.2131 47.0832 14.3339 47.2056 14.48 47.2907C14.626 47.3758 14.792 47.4205 14.9611 47.4204L54.9737 47.4927C55.1435 47.4919 55.3102 47.4468 55.4572 47.3619C55.6043 47.2769 55.7266 47.1551 55.8121 47.0084Z" fill="#662F8E"/>
</svg>