<svg viewBox="0 0 100 100" fill="none" 
    xmlns="http://www.w3.org/2000/svg">
    <g>
        <path d="M50 89.1953C71.647 89.1953 89.1953 71.647 89.1953 50C89.1953 28.353 71.647 10.8047 50 10.8047C28.353 10.8047 10.8047 28.353 10.8047 50C10.8047 71.647 28.353 89.1953 50 89.1953Z" fill="white"/>
        <circle cx="50" cy="50" r="32" fill="#F8A608"/>
        <path fill-rule="evenodd" clip-rule="evenodd" d="M37.3094 34.8206H50.2871C58.672 34.8206 65.4694 41.6179 65.4694 50.0028C65.4694 58.3877 58.672 65.185 50.2871 65.185H37.3094V34.8206ZM40.6516 38.1628V61.8428H50.2871C56.8262 61.8428 62.1271 56.5418 62.1271 50.0028C62.1271 43.4637 56.8262 38.1628 50.2871 38.1628H40.6516Z" fill="white"/>
        <path d="M33.0427 48.1457H68.4205V44.8035H33.0427V48.1457Z" fill="white"/>
        <path d="M33.0427 55.2568H68.4205V51.9146H33.0427V55.2568Z" fill="white"/>
    </g>
</svg>
