<svg width="70" height="70" viewBox="0 0 70 70" fill="none" xmlns="http://www.w3.org/2000/svg">
<path d="M50 59.5C50 62.0603 46.4442 64.9403 40.8235 66C38.5294 66 37.4114 66 33.8 66C21.2079 66 11 63.0899 11 59.5C11 55.9101 21.2079 53 33.8 53C46.3921 53 50 55.9101 50 59.5Z" fill="black"/>
<path d="M67 33.1622C67 49.2033 52.7793 65 36.625 65C20.4707 65 4 48.0862 4 32.045C4 16.0039 17.0957 3 33.25 3C49.4043 3 67 17.121 67 33.1622Z" fill="#F61F7D"/>
<path fill-rule="evenodd" clip-rule="evenodd" d="M55.6803 53.0462C60.8104 47.5666 64 40.3169 64 33.1622C64 26.2563 60.1895 19.4828 54.2236 14.3375C48.2632 9.1969 40.5009 6 33.25 6C18.7326 6 7 17.6806 7 32.045C7 39.0803 10.6517 46.6021 16.3925 52.4333C22.1332 58.2644 29.5627 62 36.625 62C43.7113 62 50.5529 58.523 55.6803 53.0462ZM36.625 65C52.7793 65 67 49.2033 67 33.1622C67 17.121 49.4043 3 33.25 3C17.0957 3 4 16.0039 4 32.045C4 48.0862 20.4707 65 36.625 65Z" fill="black"/>
<path d="M69 36.5C69 52.7924 55.7924 66 39.5 66C23.2076 66 10 52.7924 10 36.5C10 20.2076 23.2076 7 39.5 7C55.7924 7 69 20.2076 69 36.5Z" fill="white"/>
<path fill-rule="evenodd" clip-rule="evenodd" d="M39.5 63C54.1355 63 66 51.1355 66 36.5C66 21.8645 54.1355 10 39.5 10C24.8645 10 13 21.8645 13 36.5C13 51.1355 24.8645 63 39.5 63ZM39.5 66C55.7924 66 69 52.7924 69 36.5C69 20.2076 55.7924 7 39.5 7C23.2076 7 10 20.2076 10 36.5C10 52.7924 23.2076 66 39.5 66Z" fill="black"/>
<path fill-rule="evenodd" clip-rule="evenodd" d="M11.0396 32.1523L5.03955 27.1523L6.9601 24.8477L12.9601 29.8477L11.0396 32.1523Z" fill="black"/>
<path d="M19 30H21.7553L22.6254 38.158L23.7312 30.0173H25.8883L27.0485 38.1062L27.9367 30H30.6558L28.8974 44H26.0696L24.8188 35.5481L23.6406 44H20.7765L19 30Z" fill="black"/>
<path d="M33.144 30H39.7423V32.1086H36.3888V35.5827H38.9447V37.7259H36.3888V41.9086H39.7786V44H33.144V30Z" fill="black"/>
<path d="M43.4995 32.2988H41.2517V30H48.992V32.2988H46.7623V44H43.4995V32.2988Z" fill="black"/>
<path d="M51.2264 30H54.4712V35.6691H56.7371V30H60V44H56.7371V37.8815H54.4712V44H51.2264V30Z" fill="black"/>
</svg>
