<svg viewBox="0 0 100 100" fill="none" 
    xmlns="http://www.w3.org/2000/svg">
    <g>
        <path d="M50 89.1953C71.647 89.1953 89.1953 71.647 89.1953 50C89.1953 28.353 71.647 10.8047 50 10.8047C28.353 10.8047 10.8047 28.353 10.8047 50C10.8047 71.647 28.353 89.1953 50 89.1953Z" fill="white"/>
        <path d="M72.3594 72.5782C69.4026 75.5305 65.8819 77.8577 62.0071 79.4213C58.1323 80.985 53.9825 81.753 49.8047 81.6797C45.6531 81.7613 41.5284 80.9956 37.6826 79.4294C33.8369 77.8631 30.3509 75.5293 27.4375 72.5703C24.4556 69.667 22.1037 66.1805 20.5284 62.3282C18.9531 58.476 18.1882 54.3406 18.2813 50.1797C18.2813 41.0756 21.3386 33.4896 27.4531 27.4219C30.3683 24.4638 33.856 22.1311 37.7031 20.5662C41.5501 19.0013 45.6758 18.2371 49.8281 18.3203C54.0051 18.2496 58.1536 19.0196 62.027 20.5845C65.9004 22.1494 69.4195 24.4773 72.375 27.4297C78.625 33.5026 81.75 41.0912 81.75 50.1953C81.829 54.3743 81.0345 58.5238 79.4175 62.378C77.8005 66.2323 75.3965 69.7065 72.3594 72.5782Z" fill="#4160AB"/>
        <path d="M50.0406 27.4336L45.8732 29.7827L34.5002 36.2406L30.3571 38.6623V61.1923L34.5083 63.6141L45.9382 70.1446L50.0975 72.5663L54.2324 70.1446L65.4754 63.6867L69.6428 61.265V38.7349L65.4917 36.3132L54.1999 29.7827L50.0406 27.4336ZM38.6269 56.4216V43.4008L50 36.9429L61.373 43.5057V56.5265L50 62.9844L38.6269 56.4216Z" fill="white"/>
    </g>
</svg>
