<svg width="70" height="70" viewBox="0 0 70 70" fill="none"
  xmlns="http://www.w3.org/2000/svg">
  <path d="M59.6392 59.9399C56.3788 63.201 52.4967 65.7717 48.224 67.4989C43.9513 69.2261 39.3754 70.0744 34.7686 69.9935C30.1907 70.0836 25.6425 69.2378 21.4019 67.5078C17.1612 65.7777 13.3173 63.1997 10.1048 59.9313C6.81669 56.7242 4.22329 52.8731 2.48623 48.6179C0.749174 44.3627 -0.0943081 39.7947 0.00836463 35.1986C0.00836463 25.1422 3.37958 16.7627 10.122 10.0604C13.3365 6.79283 17.1823 4.21608 21.4244 2.48752C25.6665 0.758947 30.2158 -0.0851533 34.7945 0.00677779C39.4003 -0.0713788 43.9748 0.779138 48.2459 2.50775C52.517 4.23635 56.3975 6.80774 59.6565 10.069C66.5482 16.7771 69.9941 25.1594 69.9941 35.2159C70.0812 39.832 69.2051 44.4155 67.4221 48.6729C65.639 52.9303 62.9881 56.7679 59.6392 59.9399Z" fill="#21CCA9"/>
  <path d="M18.413 23.4558C16.5439 22.2855 14 23.5042 14 25.57V44.8338C14 45.4779 14.5733 46 15.2805 46C15.9877 46 16.561 45.4779 16.561 44.8338V25.57C16.561 25.3822 16.7922 25.2714 16.9622 25.3778L30.3902 33.7855V44.8338C30.3902 45.4779 30.9635 46 31.6707 46C32.3779 46 32.9512 45.4779 32.9512 44.8338V33.172C32.9512 32.788 32.7436 32.4286 32.3962 32.2111L18.413 23.4558Z" fill="white"/>
  <path d="M51.587 23.4558C53.4561 22.2855 56 23.5042 56 25.57V44.8338C56 45.4779 55.4267 46 54.7195 46C54.0123 46 53.439 45.4779 53.439 44.8338V25.57C53.439 25.3822 53.2078 25.2714 53.0378 25.3778L39.6098 33.7855V44.8338C39.6098 45.4779 39.0365 46 38.3293 46C37.6221 46 37.0488 45.4779 37.0488 44.8338V33.172C37.0488 32.788 37.2564 32.4286 37.6038 32.2111L51.587 23.4558Z" fill="white"/>
</svg>