<svg width="70" height="70" viewBox="0 0 70 70" fill="none"
  xmlns="http://www.w3.org/2000/svg">
  <path d="M59.6329 59.9748C56.3659 63.2322 52.4773 65.7979 48.199 67.5192C43.9206 69.2404 39.34 70.082 34.7299 69.9937C30.1488 70.0769 25.5989 69.2236 21.3585 67.4861C17.1181 65.7486 13.2764 63.1633 10.0682 59.8885C3.33886 53.1747 -0.0171738 44.9277 6.60814e-05 35.1475C6.60814e-05 25.0969 3.38484 16.7234 10.1544 10.0268C13.3755 6.76304 17.2277 4.1912 21.4754 2.46855C25.7232 0.745895 30.2772 -0.0913829 34.8592 0.00790145C39.4683 -0.0642554 44.0447 0.793275 48.3157 2.52939C52.5868 4.2655 56.4649 6.84465 59.7191 10.1131C66.6151 16.8269 70.0401 25.212 69.9941 35.2683C70.081 39.8818 69.2042 44.4625 67.42 48.7171C65.6357 52.9716 62.9834 56.8061 59.6329 59.9748Z" fill="#5F2652"/>
  <path fill-rule="evenodd" clip-rule="evenodd" d="M28.3671 35.7796L28.3014 36.1863L28.2798 36.3474C28.0038 38.5864 27.1718 39.2408 25.1061 40.1947C25.1014 40.1967 25.0967 40.1957 25.093 40.1977L17.6028 43.6501L34.5145 53.7252V47.9582C34.5145 45.8429 34.3925 45.4627 32.5934 44.4252C32.2404 44.2219 31.8826 44.0096 31.4911 43.7768L31.2469 43.6314C30.1267 43.0065 29.2141 42.084 28.5408 40.9886C28.5164 40.9493 28.3361 40.6653 28.3127 40.6251C28.4527 40.545 28.5824 40.4467 28.6986 40.3323C28.8213 40.218 28.9259 40.084 29.0084 39.9354C29.5972 41.132 30.492 42.1439 31.6375 42.8032L31.9155 42.9682C32.3014 43.1971 32.6948 43.4221 33.0479 43.6245C35.2544 44.8968 35.43 45.6779 35.43 47.9591V53.7321L52.4985 43.4732L45.1943 40.1397L44.7192 39.9265C44.5333 39.8322 43.9492 39.5827 43.4985 39.5689C43.0384 39.5394 42.3399 39.5699 41.9633 40.07C41.6154 40.5302 41.2674 40.9903 40.9192 41.4503C40.1136 42.5409 39.0601 43.432 37.8018 43.9664C37.7982 43.969 37.7945 43.9713 37.7906 43.9733C37.4591 44.1148 37.1023 44.1963 36.7483 44.2828C36.6751 44.1364 36.5605 43.9664 36.4554 43.8289C36.3793 43.7296 36.2657 43.6068 36.1596 43.4919C36.6948 43.3828 37.3098 43.205 37.7887 42.9653L37.7906 42.9643C38.7464 42.4898 39.5727 41.8246 40.2075 40.9699C40.2386 40.933 40.2669 40.8936 40.292 40.852C40.3568 40.7636 40.4216 40.6771 40.4807 40.5838C40.6497 40.346 40.907 39.9914 41.2666 39.5178C41.5079 39.1975 41.846 38.9863 42.2056 38.8497L42.2046 38.8517C42.5924 38.7063 43.0403 38.6415 43.5295 38.6454C44.2713 38.6709 45.0938 39.0836 45.1107 39.0914L45.3671 39.2074L45.3868 39.2152L46.0516 39.5149C46.0563 39.5159 46.0563 39.5208 46.06 39.5227L52.4431 42.4367L35.445 14.1221V26.1082C35.445 28.1792 35.5906 28.6321 37.4056 29.6785C37.5494 29.7596 37.6957 29.8359 37.8441 29.9074L38.0788 30.0282C38.138 30.0557 38.1943 30.0881 38.2516 30.1176L38.2544 30.1186H38.2554C40.6366 31.3123 42.2995 33.7331 42.4441 36.5577C42.2882 36.6019 42.0516 36.6716 41.9192 36.7139C41.8225 36.7433 41.676 36.82 41.553 36.8888C41.5295 34.2783 40.0197 32.0265 37.8385 30.9399L37.8375 30.939C37.831 30.936 37.8263 30.937 37.8206 30.934C37.6939 30.8664 37.5662 30.8009 37.4375 30.7376C36.9748 30.5125 36.5307 30.2476 36.1098 29.9457C36.0432 29.9005 35.9878 29.8524 35.9267 29.8072C35.7934 29.706 35.6685 29.6028 35.5596 29.5026C35.4957 29.4446 35.4375 29.3906 35.3972 29.3375C34.6704 28.5683 34.5277 27.7017 34.5277 26.1082V14.1172L17.477 42.6931L25.0028 39.225H25.0066C26.6761 38.4548 27.1831 37.8103 27.4066 35.9574C27.4103 35.9328 27.4169 35.869 27.4225 35.8454C27.8526 32.8832 29.9728 30.5067 32.7577 29.6755L33.1333 29.5625C33.1802 29.7138 33.2425 29.8594 33.3192 29.9968C33.4038 30.144 33.5037 30.2811 33.6169 30.4055L33.2666 30.487C30.7624 31.1256 28.8253 33.1809 28.3671 35.7796ZM16.0667 43.2659L34.5896 12.223C34.6315 12.1542 34.6894 12.0976 34.7579 12.0586C34.8264 12.0196 34.9032 11.9994 34.9812 12C35.0592 11.9994 35.136 12.0196 35.2045 12.0586C35.273 12.0976 35.3309 12.1542 35.3727 12.223L53.9361 43.1411C53.9666 43.1934 53.9867 43.2516 53.9953 43.3122C54.0039 43.3729 54.0007 43.4347 53.986 43.494C53.9713 43.5533 53.9453 43.6089 53.9096 43.6575C53.8739 43.706 53.8293 43.7466 53.7783 43.7768L35.215 54.9356C35.144 54.9778 35.0638 55 34.9821 55C34.9005 55 34.8203 54.9778 34.7493 54.9356L16.2254 43.9026C16.174 43.872 16.1288 43.8311 16.0926 43.7822C16.0563 43.7333 16.0296 43.6774 16.0141 43.6176C15.9991 43.5584 15.996 43.4965 16.0051 43.436C16.0141 43.3755 16.0351 43.3175 16.0667 43.2659Z" fill="white" stroke="white"/>
</svg>