<svg viewBox="0 0 256 256" fill="none" 
    xmlns="http://www.w3.org/2000/svg">
    <path d="M128 49.36C143.554 49.36 158.758 53.9722 171.69 62.6132C184.622 71.2543 194.702 83.5362 200.654 97.9058C206.606 112.275 208.163 128.087 205.129 143.342C202.095 158.597 194.605 172.609 183.607 183.607C172.609 194.605 158.597 202.095 143.342 205.129C128.087 208.163 112.275 206.606 97.9058 200.654C83.5363 194.702 71.2544 184.622 62.6133 171.69C53.9722 158.758 49.3601 143.554 49.3601 128C49.3865 107.151 57.6803 87.1645 72.4224 72.4223C87.1645 57.6802 107.152 49.3865 128 49.36V49.36ZM128 0C102.684 0 77.9366 7.50707 56.8871 21.5719C35.8376 35.6367 19.4315 55.6276 9.74348 79.0165C0.05546 102.405 -2.47937 128.142 2.45954 152.972C7.39845 177.801 19.5893 200.609 37.4904 218.51C55.3915 236.411 78.1989 248.602 103.029 253.541C127.858 258.479 153.595 255.945 176.984 246.257C200.372 236.569 220.363 220.162 234.428 199.113C248.493 178.063 256 153.316 256 128C256 94.0523 242.514 61.495 218.51 37.4903C194.505 13.4857 161.948 0 128 0V0Z" fill="url(#iSAI)"/>
    <path d="M128 229C183.228 229 228 184.228 228 129C228 73.7715 183.228 29 128 29C72.7715 29 28 73.7715 28 129C28 184.228 72.7715 229 128 229Z" fill="white"/>
    <path d="M184.354 185.986C176.904 193.44 168.033 199.317 158.269 203.269C148.506 207.22 138.048 209.164 127.519 208.985C117.051 209.191 106.651 207.258 96.9535 203.304C87.2561 199.35 78.4653 193.457 71.1179 185.986C63.6031 178.657 57.6742 169.858 53.7001 160.136C49.7261 150.414 47.7918 139.976 48.0177 129.473C48.0177 106.5 55.7178 87.3473 71.1179 72.0143C78.4653 64.5431 87.2561 58.6503 96.9535 54.6959C106.651 50.7415 117.051 48.8085 127.519 49.0149C138.048 48.8363 148.506 50.7803 158.269 54.7315C168.033 58.6826 176.904 64.5601 184.354 72.0143C200.108 87.3473 207.986 106.5 207.986 129.473C208.19 140.022 206.193 150.496 202.124 160.228C198.055 169.959 192.002 178.732 184.354 185.986Z" fill="#8778B7"/>
    <path d="M127.435 81.5L174.884 128.328L127.992 175.734L80.5215 128.906L127.435 81.5Z" fill="#FFCE45"/>
    <path d="M127.799 143.994L80.5 128.885L127.435 81.5L174.927 128.328L127.799 143.994Z" fill="#FDBC43"/>
    <path d="M96.895 125.713L118.455 125.584L127.628 115.276L137.958 125.477L159.518 125.349L127.478 91.187L96.895 125.713Z" fill="white"/>
    <path d="M174.862 128.349L127.799 143.994L127.992 175.733L174.862 128.349Z" fill="#EDBB46"/>
    <path d="M127.435 81.5L127.478 91.187L159.518 125.349L137.958 125.477L127.628 115.276L127.799 143.994L174.863 128.349L174.884 128.328L127.435 81.5Z" fill="#ECB343"/>
    <path d="M127.478 91.187L127.628 115.276L137.958 125.477L159.518 125.349L127.478 91.187Z" fill="#EFD8B1"/>
    <defs>
        <linearGradient id="iSAI" x1="239.36" y1="239.36" x2="34.56" y2="34.56" gradientUnits="userSpaceOnUse">
            <stop offset="0.159375" stop-color="#003CDA"/>
            <stop offset="1" stop-color="#33DFCC"/>
        </linearGradient>
    </defs>
</svg>
