<svg width="70" height="70" viewBox="0 0 70 70" fill="none"
  xmlns="http://www.w3.org/2000/svg">
  <ellipse cx="35" cy="35" rx="35" ry="35" fill="url(#itoken-susd)"/>
  <path d="M51.8787 42.8903C51.8787 40.5985 50.2374 39.0874 48.2173 39.0874L42.2201 39.0874L42.2201 41.0518L48.2299 41.0518C49.2652 41.0518 50.0985 41.7192 50.0985 42.9028C50.0985 44.0361 49.2652 44.6909 48.2299 44.6909L42.2201 44.6909L42.2201 46.7813L48.2173 46.7813C50.2374 46.7813 51.8787 45.2702 51.8787 42.8903Z" fill="white"/>
  <path d="M51.8787 34.0784C51.8787 31.9755 50.7424 30.5399 48.9369 30.5399C47.3587 30.5399 46.4118 31.5851 46.0583 33.3102L45.8563 34.2169C45.6543 35.1235 45.3134 35.4761 44.7958 35.4761C44.1645 35.4761 43.7478 34.9976 43.7478 34.1161C43.7478 33.1339 44.2276 32.668 44.8715 32.5043L44.8715 30.8673L43.912 30.8673C42.7504 31.1318 42.0308 32.328 42.0308 34.0658C42.0308 36.1435 43.0913 37.5034 44.9094 37.5034C46.4371 37.5034 47.3587 36.5464 47.6996 34.8213L47.8638 33.9524C48.0784 32.9954 48.4319 32.5673 49.0506 32.5673C49.7576 32.5673 50.1616 33.1591 50.1616 34.0406C50.1616 35.048 49.7197 35.6524 49.0127 35.9042L49.0127 37.5538L49.9596 37.5538C51.0075 37.1509 51.8787 36.0302 51.8787 34.0784Z" fill="white"/>
  <path d="M51.6893 28.985L51.6893 25.6732C51.6893 22.7644 49.5429 20.9638 46.9168 20.9638C44.3286 20.9638 42.2201 22.7644 42.2201 25.6732L42.2201 28.985L51.6893 28.985ZM49.9091 26.8947L44.0003 26.8947L44.0003 25.711C44.0003 24.0614 45.3134 23.117 46.9168 23.117C48.5708 23.117 49.9091 24.0614 49.9091 25.711L49.9091 26.8947Z" fill="white"/>
  <path d="M29.9437 32.5555C30.9052 32.5555 31.6846 33.332 31.6846 34.2899C31.6846 35.2477 30.9052 36.0243 29.9437 36.0243H25.4247C21.048 36.0243 17.5 32.4896 17.5 28.1293C17.5 23.7691 21.048 20.2344 25.4247 20.2344H37.0788C38.0403 20.2344 38.8198 21.0109 38.8198 21.9688C38.8198 22.9266 38.0403 23.7031 37.0788 23.7031H25.4247C22.971 23.7031 20.9819 25.6848 20.9819 28.1293C20.9819 30.5738 22.971 32.5555 25.4247 32.5555H29.9437Z" fill="white"/>
  <path d="M26.3762 36.0246C25.4147 36.0246 24.6352 35.2481 24.6352 34.2902C24.6352 33.3323 25.4147 32.5558 26.3762 32.5558H30.8951C35.2718 32.5558 38.8198 36.0905 38.8198 40.4508C38.8198 44.811 35.2718 48.3457 30.8951 48.3457H19.241C18.2795 48.3457 17.5001 47.5692 17.5001 46.6113C17.5001 45.6534 18.2795 44.8769 19.241 44.8769H30.8951C33.3488 44.8769 35.338 42.8953 35.338 40.4508C35.338 38.0063 33.3488 36.0246 30.8951 36.0246H26.3762Z" fill="white"/>
  <path d="M20.6169 47.6455L17.7866 45.6251L35.5878 20.876L38.4181 22.8964L20.6169 47.6455Z" fill="white" fill-opacity="0.5"/>
  <defs>
    <linearGradient id="itoken-susd" x1="16.1328" y1="5.74219" x2="66.9922" y2="56.6016" gradientUnits="userSpaceOnUse">
      <stop stop-color="#342F49"/>
      <stop offset="1"/>
    </linearGradient>
  </defs>
</svg>
