<svg width="70" height="70" viewBox="0 0 70 70" fill="none"
  xmlns="http://www.w3.org/2000/svg">
  <path d="M59.6329 59.9748C56.3659 63.2322 52.4773 65.7979 48.199 67.5192C43.9206 69.2404 39.34 70.082 34.7299 69.9937C30.1488 70.0769 25.5989 69.2236 21.3585 67.4861C17.1181 65.7486 13.2764 63.1633 10.0682 59.8885C3.33886 53.1747 -0.0171738 44.9277 6.60814e-05 35.1475C6.60814e-05 25.0969 3.38484 16.7234 10.1544 10.0268C13.3755 6.76304 17.2277 4.1912 21.4754 2.46855C25.7232 0.745895 30.2772 -0.0913829 34.8592 0.00790145C39.4683 -0.0642554 44.0447 0.793275 48.3157 2.52939C52.5868 4.2655 56.4649 6.84465 59.7191 10.1131C66.6151 16.8269 70.0401 25.212 69.9941 35.2683C70.081 39.8818 69.2042 44.4625 67.42 48.7171C65.6357 52.9716 62.9834 56.8061 59.6329 59.9748Z" fill="#000004"/>
  <path d="M22.1083 27C21.8144 26.5996 21.5252 26.206 21.2395 25.8173C20.4084 24.6864 19.6069 23.5959 18.8102 22.497C18.5518 22.1426 18.3004 21.7827 18.0494 21.4234C17.769 21.022 17.4889 20.6211 17.2003 20.2294C17.1374 20.1734 17.087 20.104 17.0525 20.026C17.0179 19.948 17 19.8633 17 19.7775C17 19.6917 17.0179 19.607 17.0525 19.529C17.087 19.451 17.1374 19.3817 17.2003 19.3256C20.5212 15.4695 24.9257 12.7807 29.7985 11.635C33.0262 10.8563 36.3771 10.793 39.6302 11.4494C42.0754 11.9409 44.4323 12.8201 46.617 14.056C46.7521 14.1538 46.8801 14.2617 47 14.3788L46.8225 14.5126C45.9033 15.2057 45.0285 15.8652 44.1474 16.5173C43.0214 17.3471 41.8939 18.1754 40.7671 19.003L40.7658 19.004C38.2332 20.8644 35.7046 22.7219 33.206 24.5871C32.7058 24.9583 32.4245 24.9583 31.9712 24.4822C31.5139 23.9851 31.0359 23.5072 30.5575 23.0288C30.1039 22.5751 29.6498 22.121 29.2124 21.6497C29.0792 21.4706 28.8829 21.3532 28.6663 21.323C28.4496 21.2927 28.2301 21.3522 28.0557 21.4883C25.9828 22.6248 24.1787 24.2204 22.7726 26.1607C22.6907 26.2655 22.6103 26.3661 22.5237 26.4742C22.4036 26.6242 22.2717 26.7891 22.1083 27Z" fill="white"/>
  <path d="M25.615 49.0203L25.6187 49.0176L25.6385 49.0033C26.0888 48.6761 26.5423 48.3466 27 48.0148C26.8669 47.9057 26.7628 47.8186 26.6733 47.7437C26.5626 47.6511 26.474 47.577 26.3806 47.503C24.4116 46.0941 22.7787 44.2834 21.5947 42.1961C21.5065 42.0929 21.4409 41.9731 21.4019 41.8441C21.3629 41.7151 21.3513 41.5796 21.3679 41.446C21.3845 41.3125 21.4289 41.1837 21.4983 41.0675C21.5678 40.9514 21.6608 40.8505 21.7716 40.771C22.3021 40.2839 22.8074 39.7742 23.3122 39.2649C23.7947 38.7782 24.2768 38.2918 24.78 37.8262C24.8824 37.7594 24.9678 37.6706 25.0296 37.5664C25.0915 37.4623 25.1281 37.3456 25.1366 37.2255C25.1452 37.1053 25.1254 36.9848 25.0789 36.8733C25.0325 36.7618 24.9604 36.6622 24.8684 36.5821C22.7617 33.9019 20.6714 31.2095 18.5829 28.5195C17.7449 27.4401 16.9071 26.3611 16.0687 25.2834C15.8146 24.9681 15.5573 24.6372 15.2933 24.2977C14.9639 23.8741 14.6241 23.437 14.2669 23C14.1833 23.1486 14.1092 23.2761 14.0424 23.3912C13.9356 23.5749 13.8474 23.7269 13.7682 23.8819C12.1563 26.9309 11.2242 30.2802 11.0334 33.7082C10.8641 36.8218 11.3401 39.9367 12.433 42.8654C13.7954 46.6882 16.1419 50.1025 19.2459 52.7784C19.3643 52.8764 19.5052 52.9448 19.6565 52.9777C19.8078 53.0106 19.965 53.0071 20.1146 52.9673C21.9477 51.6848 23.7548 50.3718 25.615 49.0203Z" fill="white"/>
  <path d="M28.3981 51.4656C26.6054 52.8363 24.8088 54.21 23 55.5974C23.1066 55.7064 23.2219 55.8062 23.3445 55.8956C26.491 57.6961 29.9914 58.743 33.5852 58.9583C36.5283 59.1395 39.4774 58.7289 42.2679 57.7494C46.2907 56.4032 49.8983 53.9903 52.7279 50.7535C52.8085 50.689 52.8745 50.6072 52.9214 50.5138C52.9683 50.4204 52.9949 50.3176 52.9993 50.2126C53.0038 50.1076 52.986 50.0028 52.9473 49.9055C52.9085 49.8083 52.8497 49.7208 52.7748 49.6493C52.4189 49.1583 52.0695 48.664 51.7177 48.1664C51.2957 47.5695 50.87 46.9674 50.4261 46.3609C49.7194 45.3956 49.0068 44.4424 48.2678 43.454L47.9285 43C47.8609 43.0863 47.8008 43.161 47.7462 43.2289C47.6429 43.3573 47.559 43.4616 47.4822 43.5722C46.077 45.5789 44.2489 47.2321 42.1348 48.4081C42.0288 48.4928 41.9071 48.5544 41.7771 48.5891C41.6472 48.6237 41.5117 48.6307 41.379 48.6095C41.2464 48.5884 41.1193 48.5396 41.0056 48.4662C40.8919 48.3928 40.7939 48.2962 40.7177 48.1824C39.9436 47.34 39.1265 46.5217 38.3024 45.6962L38.3016 45.6954C37.959 45.3524 37.6152 45.0081 37.2728 44.6603C34.2999 46.9532 31.3542 49.2054 28.3981 51.4656Z" fill="white"/>
  <path d="M44.4888 21.0491C43.9999 21.4143 43.5048 21.7841 43 22.16L43.7715 22.7443C45.7303 24.1739 47.3415 26.0131 48.4886 28.1292C48.6328 28.3166 48.6968 28.552 48.6667 28.7851C48.6367 29.0182 48.5151 29.2305 48.3279 29.3767C47.4038 30.2453 46.4555 31.2322 45.6519 32.085C45.2531 32.5082 45.0106 32.6552 44.9776 32.8398C44.944 33.0271 45.1262 33.2531 45.5796 33.8457C48.3065 37.3883 51.0226 40.9255 53.7281 44.4576C54.1074 44.9545 54.4922 45.4434 54.8793 45.9352C55.1564 46.2873 55.4347 46.6409 55.713 47C55.7697 46.9502 55.8197 46.9134 55.8602 46.8836C55.9289 46.8332 55.9702 46.8028 55.9702 46.7631C57.7699 43.5349 58.7977 39.9464 58.9756 36.2697C59.0968 33.6753 58.7652 31.0796 57.9952 28.5951C56.6967 24.1837 54.1396 20.23 50.6262 17.2015C50.2967 16.9173 50.0717 16.9489 49.7342 17.2015C49.2164 17.6245 48.6523 18.0144 48.0753 18.4132C47.8554 18.5652 47.6336 18.7185 47.4118 18.8754C46.4435 19.5889 45.4788 20.3095 44.4888 21.0491Z" fill="white"/>
</svg>