<svg width="209" height="42" viewBox="0 0 209 42" fill="none" xmlns="http://www.w3.org/2000/svg">
<path d="M6.05187 23.4937L28.8121 11.8125L28.7946 11.7323C31.0483 10.8303 32.6274 8.73751 32.6274 6.29974C32.6274 3.03781 29.8001 0.393494 26.3124 0.393494L26.2989 0.393507L4.34156 0H4.20999C1.84187 0 0 1.8375 0 4.2V19.8188C0 20.475 0.131562 21.1313 0.394687 21.6562C1.44719 23.7563 4.07843 24.5437 6.05187 23.4937Z" fill="white"/>
<path fill-rule="evenodd" clip-rule="evenodd" d="M4.20993 28.7437L29.8646 15.4875C32.2327 14.3062 34.9955 15.225 36.1796 17.4562C36.5742 18.1125 36.7058 18.9 36.7058 19.5562V37.275C36.7058 39.9 34.6008 42 31.9696 42H31.838L7.10586 41.6062H7.10436C3.18073 41.6062 0 38.6094 0 34.9125C0 32.1828 1.73413 29.8348 4.22102 28.793L4.20993 28.7437ZM30.391 30.8437C30.391 32.6559 28.9185 34.125 27.102 34.125C25.2855 34.125 23.8129 32.6559 23.8129 30.8437C23.8129 29.0316 25.2855 27.5625 27.102 27.5625C28.9185 27.5625 30.391 29.0316 30.391 30.8437Z" fill="white"/>
<path fill-rule="evenodd" clip-rule="evenodd" d="M48.8096 30.7124H46.573L46.8361 41.9999H49.2043V37.6687C49.4674 38.0624 49.8621 38.3249 50.2568 38.4562C50.6515 38.5874 51.0461 38.7187 51.5724 38.7187C52.0986 38.7187 52.6249 38.5874 53.0196 38.3249C53.4143 38.0624 53.8089 37.7999 54.0721 37.4062C54.3352 37.0124 54.5983 36.6187 54.7299 36.0937C54.8614 35.5687 54.993 35.0437 54.993 34.5187C54.993 33.9937 54.8615 33.4687 54.7299 32.9437C54.5983 32.4187 54.3352 32.0249 53.9405 31.6312C53.6774 31.3687 53.1511 30.9749 52.7564 30.8437C52.2302 30.7124 51.704 30.5812 51.1777 30.5812C50.9146 30.5812 50.6515 30.5812 50.3883 30.7124C50.1957 30.7124 50.0736 30.7828 49.9188 30.872C49.8621 30.9046 49.801 30.9398 49.7305 30.9749C49.6647 31.0406 49.5661 31.1062 49.4674 31.1718C49.3687 31.2374 49.2701 31.3031 49.2043 31.3687L48.8096 31.7624V30.7124ZM49.3358 35.9624C48.9411 35.5687 48.8096 35.0437 48.8096 34.5187C48.678 34.1249 48.9411 33.5999 49.3358 33.2062C50.1252 32.5499 51.3093 32.5499 52.0986 33.2062C52.7564 33.9937 52.7564 35.1749 52.0986 35.9624C51.3093 36.6187 50.1252 36.6187 49.3358 35.9624Z" fill="white"/>
<path d="M56.9665 30.7126H59.3346V31.8938C59.5977 31.5001 59.8609 31.1063 60.2555 30.8438C60.6502 30.5813 61.0449 30.4501 61.5712 30.4501H62.3605V32.8126C62.2948 32.8126 62.1961 32.7798 62.0974 32.7469C61.9988 32.7141 61.9001 32.6813 61.8343 32.6813H61.308C60.9134 32.6813 60.5187 32.6813 60.2555 32.8126C59.9924 32.9438 59.8609 33.075 59.5978 33.3375C59.4663 33.6 59.3346 33.8626 59.3346 34.1251V38.3251H56.9665V30.7126Z" fill="white"/>
<path fill-rule="evenodd" clip-rule="evenodd" d="M63.9393 32.8124C63.6762 33.3374 63.5446 33.9937 63.5446 34.5187C63.5446 35.1749 63.6762 35.6999 63.9393 36.0937C64.2024 36.6187 64.4655 37.0124 64.8602 37.4062C65.2549 37.7999 65.6496 38.0624 66.1758 38.1937C67.2283 38.5874 68.4124 38.5874 69.4649 38.1937C69.8596 38.0624 70.3858 37.7999 70.7805 37.4062C71.1752 37.0124 71.4383 36.6187 71.7015 36.0937C72.0962 35.0437 72.0962 33.8624 71.7015 32.8124C71.4383 32.2874 71.1752 31.8937 70.7805 31.4999C70.3858 31.1062 69.9912 30.8437 69.4649 30.7124C68.4124 30.3187 67.2283 30.3187 66.1758 30.7124C65.7812 30.8437 65.2549 31.1062 64.8602 31.4999C64.4655 31.8937 64.2024 32.2874 63.9393 32.8124ZM66.439 35.9624C66.0443 35.5687 65.9127 35.0437 65.9127 34.5187C65.9127 34.1249 66.1758 33.5999 66.439 33.2062C67.2283 32.5499 68.4124 32.5499 69.2018 33.2062C69.8596 33.9937 69.8596 35.1749 69.2018 35.9624C68.4124 36.6187 67.2283 36.6187 66.439 35.9624Z" fill="white"/>
<path d="M79.4636 32.6813H77.3586V35.7001C77.3586 35.8313 77.3587 35.9626 77.4902 36.0938C77.6218 36.2251 77.7533 36.3563 77.8849 36.3563C78.0165 36.4876 78.2796 36.4876 78.5427 36.4876H79.069C79.1347 36.4876 79.2334 36.4548 79.3321 36.4219C79.4308 36.3891 79.5294 36.3563 79.5952 36.3563V38.3251C79.3321 38.4563 79.069 38.4563 78.8058 38.4563H78.0165C77.6218 38.4563 77.2271 38.4563 76.964 38.3251C76.8324 38.2594 76.6679 38.1938 76.5035 38.1282C76.339 38.0626 76.1746 37.9969 76.043 37.9313C75.8731 37.8466 75.7581 37.7071 75.627 37.5482C75.5551 37.461 75.4784 37.368 75.3852 37.2751C74.9905 37.0126 74.9905 36.6188 74.9905 36.2251V32.5501H73.4118V30.7126H74.9905V28.4813H77.3586V30.7126H79.4636V32.6813Z" fill="white"/>
<path fill-rule="evenodd" clip-rule="evenodd" d="M81.4371 32.8124C81.174 33.3374 81.0424 33.9937 81.0424 34.5187C81.0424 35.1749 81.174 35.6999 81.4371 36.0937C81.7002 36.6187 81.9633 37.0124 82.358 37.4062C82.7527 37.7999 83.1474 38.0624 83.6737 38.1937C84.7262 38.5874 85.9102 38.5874 86.9627 38.1937C87.3574 38.0624 87.8836 37.7999 88.2783 37.4062C88.673 37.0124 88.9361 36.6187 89.1993 36.0937C89.594 35.0437 89.594 33.8624 89.1993 32.8124C88.9361 32.2874 88.673 31.8937 88.2783 31.4999C87.8836 31.1062 87.489 30.8437 86.9627 30.7124C85.9102 30.3187 84.7262 30.3187 83.6737 30.7124C83.279 30.8437 82.7527 31.1062 82.358 31.4999C81.9633 31.8937 81.7002 32.2874 81.4371 32.8124ZM83.9368 35.9624C83.5421 35.5687 83.4105 35.0437 83.4105 34.5187C83.4105 34.1249 83.5421 33.5999 83.9368 33.2062C84.7262 32.5499 85.9102 32.5499 86.6996 33.2062C87.3574 33.9937 87.3574 35.1749 86.6996 35.9624C85.9102 36.6187 84.7262 36.6187 83.9368 35.9624Z" fill="white"/>
<path d="M96.8299 33.2062C96.6983 33.0749 96.5668 32.9437 96.3036 32.8124C96.0405 32.6812 95.9089 32.6812 95.6458 32.6812C95.1196 32.6812 94.5933 32.8124 94.1986 33.2062C93.5408 33.9937 93.5408 35.1749 94.1986 35.9624C94.5933 36.3562 95.1196 36.4874 95.6458 36.4874C95.9089 36.4874 96.1721 36.4874 96.3036 36.3562C96.3694 36.2906 96.4681 36.2249 96.5668 36.1593C96.6653 36.0938 96.7643 36.0279 96.8299 35.9624L98.4086 37.5374C98.014 37.9312 97.6193 38.1937 97.093 38.3249C97.0332 38.3399 96.9751 38.3548 96.9183 38.3695L96.8325 38.3918C96.4275 38.4974 96.0818 38.5874 95.6458 38.5874C95.1196 38.5874 94.4618 38.4562 93.9355 38.3249C93.4093 38.1937 93.0146 37.9312 92.6199 37.5374C92.2252 37.1437 91.9621 36.7499 91.6989 36.2249C91.3043 35.1749 91.3043 33.9937 91.6989 32.9437C91.9621 32.4187 92.2252 32.0249 92.6199 31.6312C93.0146 31.2374 93.5408 30.9749 93.9355 30.8437C94.4618 30.7124 94.988 30.5812 95.6458 30.5812C96.0818 30.5812 96.4275 30.6713 96.8324 30.7768C96.9163 30.7987 97.0027 30.8212 97.093 30.8437C97.6193 30.9749 98.014 31.2374 98.4086 31.6312L96.8299 33.2062Z" fill="white"/>
<path fill-rule="evenodd" clip-rule="evenodd" d="M100.119 32.8124C99.8558 33.3374 99.7242 33.9937 99.7242 34.5187C99.7242 35.1749 99.8558 35.6999 100.119 36.0937C100.382 36.6187 100.645 37.0124 101.04 37.4062C101.435 37.7999 101.829 38.0624 102.355 38.1937C103.408 38.5874 104.592 38.5874 105.645 38.1937C106.039 38.0624 106.565 37.7999 106.96 37.4062C107.355 37.0124 107.618 36.6187 107.881 36.0937C108.276 35.0437 108.276 33.8624 107.881 32.8124C107.618 32.2874 107.355 31.8937 106.96 31.4999C106.565 31.1062 106.171 30.8437 105.645 30.7124C104.592 30.3187 103.408 30.3187 102.355 30.7124C101.961 30.8437 101.435 31.1062 101.04 31.4999C100.645 31.8937 100.382 32.2874 100.119 32.8124ZM102.619 35.9624C102.224 35.5687 102.092 35.0437 102.092 34.5187C102.092 34.1249 102.224 33.5999 102.619 33.2062C103.408 32.5499 104.592 32.5499 105.381 33.2062C106.039 33.9937 106.039 35.1749 105.381 35.9624C104.592 36.6187 103.408 36.6187 102.619 35.9624Z" fill="white"/>
<path d="M110.381 26.5126H112.749V38.4563H110.381V26.5126Z" fill="white"/>
<path fill-rule="evenodd" clip-rule="evenodd" d="M50.5199 0H45.9153V23.625H50.2568V21.6562L51.0462 22.4438C51.3093 22.7063 51.704 22.9688 52.0987 23.2313C52.2586 23.2844 52.4185 23.3591 52.5871 23.4379C52.8348 23.5536 53.1013 23.6782 53.4143 23.7563C53.9406 23.8875 54.4668 24.0187 54.9931 24.0187C56.1771 24.15 57.2296 23.8875 58.1506 23.4937C59.0715 23.2312 59.8609 22.575 60.5187 21.9188C61.1765 21.2625 61.7027 20.3438 62.0974 19.425C62.4921 18.375 62.6237 17.325 62.6237 16.275C62.6237 15.3311 62.411 14.4932 62.1769 13.5707C62.1506 13.4671 62.124 13.3623 62.0974 13.2563C61.7027 12.3375 61.308 11.4188 60.6502 10.6313C59.9924 9.84375 59.203 9.1875 58.2821 8.79375C57.3612 8.4 56.4402 8.1375 55.3877 8.1375C54.4668 8.00625 53.5459 8.26875 52.6249 8.53125C51.8356 8.79375 51.0462 9.45 50.5199 10.1062V0ZM51.1778 18.9C50.3884 18.1125 50.1253 17.1938 50.1253 16.1438C50.1253 15.0938 50.5199 14.175 51.1778 13.3875C52.7565 11.9437 55.1246 11.9437 56.7034 13.3875C57.4927 14.175 57.7559 15.0938 57.7559 16.1438C57.7559 17.0625 57.3612 18.1125 56.7034 18.9C55.1246 20.3438 52.7565 20.3438 51.1778 18.9Z" fill="white"/>
<path fill-rule="evenodd" clip-rule="evenodd" d="M79.7267 21.1312C78.9374 22.05 78.0164 22.8375 76.8324 23.3625C75.6483 23.8875 74.4642 24.15 73.2802 24.15C72.0961 24.15 71.0436 24.0187 69.9911 23.625C68.9386 23.2312 68.0177 22.7062 67.2283 22.05C66.4389 21.3937 65.7811 20.475 65.3865 19.5562C64.9918 18.5062 64.7286 17.325 64.7286 16.275C64.7286 15.0937 64.9918 14.0437 65.3865 12.9937C65.7811 12.075 66.4389 11.1562 67.2283 10.5C68.0177 9.84372 68.9386 9.18747 69.9911 8.92497C71.0436 8.53122 72.2277 8.39997 73.2802 8.39997C74.3327 8.39997 75.2536 8.53122 76.3061 8.92497C77.2271 9.31872 78.0164 9.84372 78.5427 10.5C79.2005 11.2875 79.7267 12.075 79.9899 12.9937C80.3846 14.0437 80.5161 15.225 80.5161 16.275V17.7187H69.5964C69.728 18.5062 70.1227 19.2937 70.7805 19.8187C71.4383 20.3437 72.2277 20.6062 73.1486 20.6062C73.8064 20.6062 74.4642 20.475 75.1221 20.0812C75.6483 19.6875 76.1746 19.2937 76.5692 18.7687L79.7267 21.1312ZM75.7799 14.4375C75.7799 13.65 75.5167 12.9937 74.9905 12.3375C74.4642 11.8125 73.6749 11.4187 72.8855 11.55C72.4495 11.55 72.1039 11.64 71.6989 11.7456L71.6977 11.7459C71.6142 11.7676 71.5282 11.7901 71.4383 11.8125C71.0436 11.9437 70.6489 12.2062 70.3858 12.4687C70.1227 12.7312 69.8596 12.9937 69.728 13.3875C69.7008 13.4689 69.6736 13.5446 69.6476 13.6171L69.6472 13.6182L69.6468 13.6192C69.5473 13.8965 69.4649 14.1259 69.4649 14.4375H75.7799Z" fill="white"/>
<path d="M88.0152 8.53131H83.4105V24.0188H88.1467V16.4063C88.1467 16.1438 88.1796 15.9141 88.2125 15.6844C88.2454 15.4547 88.2783 15.2251 88.2783 14.9626C88.2783 14.5688 88.4098 14.1751 88.673 13.7813C88.9361 13.3876 89.1992 13.1251 89.5939 12.8626C89.9886 12.6001 90.5148 12.4688 91.0411 12.4688C91.962 12.3376 92.883 12.8626 93.1461 13.7813C93.2776 14.1751 93.4092 14.7001 93.4092 15.0938V23.8876H98.1454V15.4876C98.1454 14.5688 98.0139 13.5188 97.8823 12.6001C97.7508 11.6813 97.4876 10.8938 97.0929 10.2376C96.6983 9.58131 96.0404 9.05631 95.3826 8.66256C94.4617 8.26881 93.5408 8.13756 92.4883 8.13756C91.962 8.13756 91.4358 8.26881 90.9095 8.40006C90.3833 8.53131 89.9886 8.66256 89.5939 8.92506C89.4623 9.05631 89.2979 9.18755 89.1334 9.3188C88.969 9.45005 88.8045 9.58131 88.673 9.71256C88.4098 9.97506 88.1467 10.3688 88.0152 10.6313V8.53131Z" fill="white"/>
<path d="M111.828 13.3876C111.565 12.9938 111.302 12.7313 110.907 12.6001C110.512 12.3376 109.986 12.2063 109.591 12.2063C108.539 12.2063 107.486 12.6001 106.829 13.2563C106.171 14.0438 105.776 15.0938 105.776 16.0126C105.776 17.0626 106.039 17.9813 106.829 18.7688C107.618 19.5563 108.539 19.9501 109.591 19.8188C110.118 19.8188 110.512 19.6876 110.907 19.4251C111.302 19.1626 111.565 18.9002 111.828 18.6377L114.985 21.9188C114.328 22.7063 113.407 23.2313 112.354 23.4938C111.433 23.7563 110.512 23.8876 109.46 23.8876C108.276 23.8876 107.223 23.7563 106.171 23.3626C105.118 22.9688 104.197 22.4438 103.408 21.7876C102.619 21.1313 101.961 20.2126 101.566 19.2938C101.171 18.2438 100.908 17.0626 100.908 16.0126C100.908 14.8313 101.171 13.7813 101.566 12.7313C101.961 11.8126 102.619 10.8938 103.408 10.2376C104.197 9.58131 105.118 8.92506 106.171 8.66256C107.223 8.26881 108.407 8.13756 109.46 8.13756C110.381 8.13756 111.433 8.26881 112.354 8.53131C113.407 8.79381 114.196 9.31881 114.985 10.1063L111.828 13.3876Z" fill="white"/>
<path d="M121.432 10.6313V0H116.827V24.0187H121.564V16.4062C121.564 16.1437 121.596 15.9141 121.629 15.6844C121.662 15.4547 121.695 15.225 121.695 14.9625C121.695 14.5687 121.827 14.175 122.09 13.7812C122.353 13.3875 122.616 13.125 123.011 12.8625C123.405 12.6 123.932 12.4688 124.458 12.4688C125.379 12.3375 126.3 12.8625 126.563 13.7812C126.694 14.175 126.826 14.7 126.826 15.0938V23.8875H131.562V15.4875C131.562 14.5688 131.431 13.5188 131.299 12.6C131.168 11.6813 130.904 10.8938 130.51 10.2375C130.115 9.58125 129.457 9.05625 128.799 8.6625C127.879 8.26875 126.958 8.1375 125.905 8.1375C125.379 8.1375 124.853 8.26875 124.326 8.4C123.8 8.53125 123.405 8.6625 123.011 8.925C122.813 9.05625 122.649 9.1875 122.485 9.31875C122.32 9.45 122.156 9.58125 121.958 9.7125C121.757 9.91303 121.633 10.1902 121.527 10.4269C121.494 10.4999 121.463 10.5693 121.432 10.6313Z" fill="white"/>
<path d="M134.851 8.53131H139.456V10.6313H139.588C139.719 10.3688 139.982 9.97506 140.245 9.71256C140.377 9.58131 140.541 9.45006 140.706 9.31881C140.87 9.18756 141.035 9.05631 141.166 8.92506C141.561 8.66256 141.956 8.53131 142.482 8.40006C143.008 8.26881 143.534 8.13756 144.061 8.13756C145.113 8.13756 146.034 8.40006 146.955 8.79381C147.744 9.31881 148.402 9.97506 148.797 10.8938C149.192 9.97506 149.981 9.31881 150.77 8.79381C151.691 8.40006 152.612 8.13756 153.665 8.13756C154.586 8.13756 155.507 8.26881 156.296 8.66256C156.954 8.92506 157.612 9.45006 158.006 10.1063C158.401 10.7626 158.796 11.4188 158.927 12.2063L158.954 12.3939L158.971 12.5118C159.087 13.3039 159.19 14.0159 159.19 14.8313V23.8876H154.454V14.9626C154.454 14.3063 154.323 13.6501 154.059 13.1251C153.665 12.6001 153.139 12.3376 152.481 12.3376C151.954 12.3376 151.56 12.4688 151.165 12.6001C150.77 12.7313 150.507 12.9938 150.244 13.3876C149.981 13.7813 149.849 14.0438 149.718 14.4376C149.586 14.8313 149.586 15.3563 149.586 15.7501V23.8876H144.85V14.7001C144.85 14.3063 144.719 13.9126 144.587 13.5188C144.455 13.1251 144.192 12.8626 143.929 12.6001C143.534 12.3376 143.14 12.2063 142.745 12.2063C142.219 12.2063 141.693 12.3376 141.298 12.6001C140.903 12.8626 140.64 13.1251 140.377 13.5188C140.114 13.9126 139.982 14.3063 139.982 14.7001C139.982 14.9626 139.949 15.1922 139.917 15.4219C139.884 15.6516 139.851 15.8813 139.851 16.1438V23.7563H135.114L134.851 8.53131Z" fill="white"/>
<path fill-rule="evenodd" clip-rule="evenodd" d="M169.847 23.625C170.636 23.3625 171.426 22.7063 171.952 21.9188L172.347 23.7563H176.688V16.0125C176.82 14.8313 176.688 13.65 176.425 12.6C176.162 11.6813 175.767 10.8938 175.241 10.1063C174.715 9.31878 173.925 8.79378 173.136 8.53128C172.083 8.13753 170.899 8.00628 169.715 8.00628C168.4 8.00628 167.216 8.26878 166.032 8.66253C164.848 9.05628 163.795 9.71253 162.874 10.5L165.374 13.125C165.9 12.6 166.426 12.2063 167.084 11.8125C167.742 11.4188 168.4 11.2875 169.189 11.2875C169.978 11.2875 170.636 11.55 171.294 12.075C171.952 12.4688 172.215 13.2563 172.215 14.0438H170.11C169.321 14.0438 168.531 14.0438 167.742 14.175C166.953 14.3063 166.295 14.4375 165.505 14.7C164.716 14.8313 164.058 15.225 163.532 15.6188C163.006 16.0125 162.479 16.5375 162.216 17.1938C161.822 17.85 161.69 18.6375 161.69 19.425C161.69 20.2125 161.822 20.8688 162.085 21.525C162.348 22.05 162.743 22.575 163.269 22.9688C163.795 23.3625 164.321 23.7563 164.979 23.8875C165.637 24.0188 166.426 24.15 167.084 24.15C168.005 24.15 168.926 24.0188 169.847 23.625ZM169.452 17.0625H171.952V17.9813C171.952 18.5063 171.952 18.9 171.689 19.2938C171.557 19.6875 171.294 19.95 170.899 20.2125C170.505 20.475 170.11 20.6063 169.715 20.7375C169.321 20.8688 168.794 20.8688 168.4 20.8688C167.742 20.8688 167.347 20.7375 166.821 20.475C166.295 20.2125 166.032 19.6875 166.032 19.1625C166.032 18.7688 166.163 18.2438 166.558 17.9813C166.953 17.7188 167.347 17.4563 167.873 17.325C168.4 17.1938 168.926 17.0625 169.452 17.0625Z" fill="white"/>
<path d="M179.319 8.53122H184.056V11.025C184.45 10.2375 185.108 9.44997 185.898 8.92497C186.687 8.39997 187.608 8.13747 188.529 8.26872H189.318C189.581 8.26872 189.844 8.26872 190.108 8.39997V12.7312C189.965 12.6602 189.784 12.6276 189.585 12.5918C189.417 12.5615 189.236 12.5289 189.055 12.4687C188.858 12.4687 188.693 12.4359 188.529 12.4031C188.364 12.3703 188.2 12.3375 188.003 12.3375C187.213 12.3375 186.555 12.4687 185.898 12.7312C185.371 12.9937 184.977 13.2562 184.713 13.7812C184.45 14.3062 184.187 14.8312 184.187 15.3562C184.056 16.0125 184.056 16.8 184.056 17.4562V23.8875H179.319V8.53122Z" fill="white"/>
<path d="M196.817 0H192.081V23.8875H197.08V16.1438L202.211 23.8875H208.132L201.817 15.4875L207.868 8.53125H202.08L196.817 14.5688V0Z" fill="white"/>
</svg>
