<?xml version="1.0" encoding="utf-8"?>
<!-- Generator: Adobe Illustrator 25.0.0, SVG Export Plug-In . SVG Version: 6.00 Build 0)  -->
<svg version="1.1" id="Layer_1" xmlns="http://www.w3.org/2000/svg" xmlns:xlink="http://www.w3.org/1999/xlink" x="0px" y="0px"
	 viewBox="0 0 158.1 32" style="enable-background:new 0 0 158.1 32;" xml:space="preserve">
<style type="text/css">
	.st0-benchmark{fill:#FFFFFF;}
	.st1-benchmark{fill:#FFFFFF;}
</style>
<ellipse class="st0-benchmark" cx="5.4" cy="26.6" rx="5.4" ry="5.1"/>
<path class="st0-benchmark" d="M3.2,21.9l19.5-10.1c1.8-0.9,3.9-0.2,4.8,1.5c0.3,0.5,0.4,1.1,0.4,1.6v13.5c0,2-1.6,3.6-3.6,3.6c0,0,0,0-0.1,0
	L5.4,31.7L3.2,21.9z"/>
<ellipse class="st0-benchmark" cx="20" cy="4.8" rx="4.8" ry="4.5"/>
<path class="st0-benchmark" d="M21.9,9L4.6,17.9c-1.5,0.8-3.5,0.2-4.3-1.4C0.1,16.1,0,15.6,0,15.1V3.2C0,1.4,1.4,0,3.2,0c0,0,0,0,0.1,0L20,0.3
	L21.9,9z"/>
<circle class="st1-benchmark" cx="20.6" cy="23.5" r="2.5"/>
<path class="st0-benchmark" d="M35.4,23.4h1.7v0.8h0c0.1-0.1,0.2-0.2,0.3-0.3c0.1-0.1,0.3-0.2,0.4-0.3c0.2-0.1,0.3-0.2,0.5-0.2
	c0.2-0.1,0.4-0.1,0.6-0.1c0.4,0,0.8,0.1,1.2,0.2c0.3,0.1,0.7,0.4,0.9,0.6c0.3,0.3,0.5,0.6,0.6,1c0.1,0.4,0.2,0.8,0.2,1.2
	c0,0.4-0.1,0.8-0.2,1.2c-0.1,0.4-0.3,0.7-0.5,1c-0.2,0.3-0.5,0.5-0.8,0.7c-0.3,0.2-0.7,0.3-1.1,0.3c-0.4,0-0.7-0.1-1-0.2
	c-0.3-0.1-0.6-0.3-0.8-0.6h0V32h-1.8L35.4,23.4z M37.1,26.3c0,0.4,0.1,0.8,0.4,1.1c0.6,0.5,1.5,0.5,2.1,0c0.5-0.6,0.5-1.5,0-2.1
	c-0.6-0.5-1.5-0.5-2.1,0C37.2,25.6,37,26,37.1,26.3z"/>
<path class="st0-benchmark" d="M43.3,23.4h1.8v0.9h0c0.2-0.3,0.4-0.6,0.7-0.8c0.3-0.2,0.6-0.3,1-0.3c0.1,0,0.2,0,0.3,0c0.1,0,0.2,0,0.3,0V25
	c-0.1,0-0.3-0.1-0.4-0.1c-0.1,0-0.3,0-0.4,0c-0.3,0-0.6,0-0.8,0.1c-0.2,0.1-0.3,0.2-0.5,0.4c-0.1,0.2-0.2,0.4-0.2,0.6
	c0,0.3,0,0.5,0,0.8v2.4h-1.8L43.3,23.4z"/>
<path class="st0-benchmark" d="M48.3,26.3c0-0.4,0.1-0.9,0.3-1.3c0.2-0.4,0.4-0.7,0.7-1c0.3-0.3,0.7-0.5,1-0.6c0.8-0.3,1.7-0.3,2.5,0
	c0.4,0.1,0.7,0.3,1,0.6c0.3,0.3,0.5,0.6,0.7,1c0.3,0.8,0.3,1.7,0,2.5c-0.2,0.4-0.4,0.7-0.7,1c-0.3,0.3-0.7,0.5-1,0.6
	c-0.8,0.3-1.7,0.3-2.5,0c-0.4-0.1-0.7-0.3-1-0.6c-0.3-0.3-0.5-0.6-0.7-1C48.4,27.2,48.3,26.8,48.3,26.3z M50.1,26.3
	c0,0.4,0.1,0.8,0.4,1.1c0.6,0.5,1.5,0.5,2.1,0c0.5-0.6,0.5-1.5,0-2.1c-0.6-0.5-1.5-0.5-2.1,0C50.3,25.6,50.1,26,50.1,26.3z"/>
<path class="st0-benchmark" d="M60.4,24.9h-1.6v1.9c0,0.1,0,0.3,0,0.4c0,0.1,0,0.2,0.1,0.3c0.1,0.1,0.2,0.2,0.3,0.2c0.1,0.1,0.3,0.1,0.5,0.1
	c0.1,0,0.3,0,0.4,0c0.1,0,0.3-0.1,0.4-0.1v1.5c-0.2,0.1-0.4,0.1-0.6,0.1c-0.2,0-0.4,0-0.6,0c-0.3,0-0.6,0-0.8-0.1
	c-0.2-0.1-0.5-0.2-0.7-0.3c-0.2-0.1-0.3-0.3-0.5-0.5C57,28.2,57,27.9,57,27.6v-2.8h-1.2v-1.4H57v-1.7h1.8v1.7h1.6V24.9z"/>
<path class="st0-benchmark" d="M61.6,26.3c0-0.4,0.1-0.9,0.3-1.3c0.2-0.4,0.4-0.7,0.7-1c0.3-0.3,0.7-0.5,1-0.6c0.8-0.3,1.7-0.3,2.5,0
	c0.4,0.1,0.7,0.3,1,0.6c0.3,0.3,0.5,0.6,0.7,1c0.3,0.8,0.3,1.7,0,2.5c-0.2,0.4-0.4,0.7-0.7,1c-0.3,0.3-0.7,0.5-1,0.6
	c-0.8,0.3-1.7,0.3-2.5,0c-0.4-0.1-0.7-0.3-1-0.6c-0.3-0.3-0.5-0.6-0.7-1C61.7,27.2,61.6,26.8,61.6,26.3z M63.4,26.3
	c0,0.4,0.1,0.8,0.4,1.1c0.6,0.5,1.5,0.5,2.1,0c0.5-0.6,0.5-1.5,0-2.1c-0.6-0.5-1.5-0.5-2.1,0C63.5,25.6,63.4,26,63.4,26.3z"/>
<path class="st0-benchmark" d="M73.6,25.3c-0.1-0.1-0.2-0.2-0.4-0.3c-0.2-0.1-0.3-0.1-0.5-0.1c-0.4,0-0.8,0.1-1.1,0.4c-0.5,0.6-0.5,1.5,0,2.1
	c0.3,0.3,0.7,0.4,1.1,0.4c0.2,0,0.4,0,0.5-0.1c0.1-0.1,0.3-0.2,0.4-0.3l1.2,1.2c-0.3,0.3-0.6,0.5-1,0.6c-0.4,0.1-0.7,0.2-1.1,0.2
	c-0.4,0-0.9-0.1-1.3-0.2c-0.4-0.1-0.7-0.3-1-0.6c-0.3-0.3-0.5-0.6-0.7-1c-0.3-0.8-0.3-1.7,0-2.5c0.2-0.4,0.4-0.7,0.7-1
	c0.3-0.3,0.7-0.5,1-0.6c0.4-0.1,0.8-0.2,1.3-0.2c0.4,0,0.7,0.1,1.1,0.2c0.4,0.1,0.7,0.3,1,0.6L73.6,25.3z"/>
<path class="st0-benchmark" d="M75.8,26.3c0-0.4,0.1-0.9,0.3-1.3c0.2-0.4,0.4-0.7,0.7-1c0.3-0.3,0.7-0.5,1-0.6c0.8-0.3,1.7-0.3,2.5,0
	c0.4,0.1,0.7,0.3,1,0.6c0.3,0.3,0.5,0.6,0.7,1c0.3,0.8,0.3,1.7,0,2.5c-0.2,0.4-0.4,0.7-0.7,1c-0.3,0.3-0.7,0.5-1,0.6
	c-0.8,0.3-1.7,0.3-2.5,0c-0.4-0.1-0.7-0.3-1-0.6c-0.3-0.3-0.5-0.6-0.7-1C75.9,27.2,75.8,26.8,75.8,26.3z M77.6,26.3
	c0,0.4,0.1,0.8,0.4,1.1c0.6,0.5,1.5,0.5,2.1,0c0.5-0.6,0.5-1.5,0-2.1c-0.6-0.5-1.5-0.5-2.1,0C77.7,25.6,77.6,26,77.6,26.3z"/>
<path class="st0-benchmark" d="M83.9,20.2h1.8v9.1h-1.8V20.2z"/>
<path class="st0-benchmark" d="M34.8,0h3.6v7.7h0c0.4-0.5,1-1,1.6-1.2c0.7-0.2,1.4-0.4,2.1-0.3c0.8,0,1.5,0.2,2.2,0.5C45,7,45.6,7.5,46.1,8.1
	c0.5,0.6,0.8,1.3,1.1,2c0.2,0.8,0.4,1.5,0.4,2.3c0,0.8-0.1,1.6-0.4,2.4c-0.3,0.7-0.7,1.4-1.2,1.9c-0.5,0.5-1.1,1-1.8,1.2
	c-0.7,0.3-1.5,0.5-2.4,0.4c-0.4,0-0.8-0.1-1.2-0.2c-0.4-0.1-0.7-0.3-1-0.4c-0.3-0.2-0.6-0.4-0.8-0.6c-0.2-0.2-0.4-0.4-0.6-0.6h0v1.5
	h-3.3V0z M38.1,12.3c0,0.8,0.2,1.5,0.8,2.1c1.2,1.1,3,1.1,4.2,0c0.5-0.6,0.8-1.4,0.8-2.1c0-0.8-0.2-1.5-0.8-2.1
	c-1.2-1.1-3-1.1-4.2,0C38.4,10.8,38.1,11.5,38.1,12.3z"/>
<path class="st0-benchmark" d="M60.6,16.1c-0.6,0.7-1.3,1.3-2.2,1.7c-0.9,0.4-1.8,0.6-2.7,0.6c-0.9,0-1.7-0.1-2.5-0.4
	c-0.8-0.3-1.5-0.7-2.1-1.2c-0.6-0.5-1.1-1.2-1.4-1.9c-0.3-0.8-0.5-1.7-0.5-2.5c0-0.9,0.2-1.7,0.5-2.5c0.3-0.7,0.8-1.4,1.4-1.9
	c0.6-0.5,1.3-1,2.1-1.2c0.8-0.3,1.7-0.4,2.5-0.4c0.8,0,1.5,0.1,2.3,0.4c0.7,0.3,1.3,0.7,1.7,1.2c0.5,0.6,0.9,1.2,1.1,1.9
	c0.3,0.8,0.4,1.7,0.4,2.5v1.1h-8.3c0.1,0.6,0.4,1.2,0.9,1.6c0.5,0.4,1.1,0.6,1.8,0.6c0.5,0,1-0.1,1.5-0.4c0.4-0.3,0.8-0.6,1.1-1
	L60.6,16.1z M57.6,11c0-0.6-0.2-1.1-0.6-1.6c-0.4-0.4-1-0.7-1.6-0.6c-0.4,0-0.7,0.1-1.1,0.2c-0.3,0.1-0.6,0.3-0.8,0.5
	c-0.2,0.2-0.4,0.4-0.5,0.7c-0.1,0.3-0.2,0.5-0.2,0.8L57.6,11z"/>
<path class="st0-benchmark" d="M63.4,6.5h3.5v1.6h0c0.1-0.2,0.3-0.5,0.5-0.7c0.2-0.2,0.5-0.4,0.7-0.6c0.3-0.2,0.6-0.3,1-0.4
	c0.4-0.1,0.8-0.2,1.2-0.2c0.8,0,1.5,0.1,2.2,0.4c0.5,0.3,1,0.7,1.3,1.2c0.3,0.5,0.5,1.1,0.6,1.8c0.1,0.7,0.2,1.5,0.2,2.2v6.4H71
	v-5.7c0-0.3,0-0.7,0-1c0-0.3-0.1-0.7-0.2-1c-0.2-0.7-0.9-1.1-1.6-1c-0.4,0-0.8,0.1-1.1,0.3c-0.3,0.2-0.5,0.4-0.7,0.7
	c-0.2,0.3-0.3,0.6-0.3,0.9c0,0.4-0.1,0.7-0.1,1.1v5.8h-3.6L63.4,6.5z"/>
<path class="st0-benchmark" d="M85,10.2c-0.2-0.3-0.4-0.5-0.7-0.6c-0.3-0.2-0.7-0.3-1-0.3c-0.8,0-1.6,0.3-2.1,0.8c-0.5,0.6-0.8,1.4-0.8,2.1
	c0,0.8,0.2,1.5,0.8,2.1c0.6,0.6,1.3,0.9,2.1,0.8c0.4,0,0.7-0.1,1-0.3c0.3-0.2,0.5-0.4,0.7-0.6l2.4,2.5c-0.5,0.6-1.2,1-2,1.2
	c-0.7,0.2-1.4,0.3-2.2,0.3c-0.9,0-1.7-0.1-2.5-0.4c-0.8-0.3-1.5-0.7-2.1-1.2c-0.6-0.5-1.1-1.2-1.4-1.9c-0.3-0.8-0.5-1.7-0.5-2.5
	c0-0.9,0.2-1.7,0.5-2.5c0.3-0.7,0.8-1.4,1.4-1.9c0.6-0.5,1.3-1,2.1-1.2c0.8-0.3,1.7-0.4,2.5-0.4c0.7,0,1.5,0.1,2.2,0.3
	c0.8,0.2,1.4,0.6,2,1.2L85,10.2z"/>
<path class="st0-benchmark" d="M92.3,0v8.1h0c0.1-0.2,0.2-0.5,0.4-0.7C93,7.2,93.2,7,93.5,6.8c0.3-0.2,0.6-0.3,1-0.4c0.4-0.1,0.8-0.2,1.2-0.2
	c0.8,0,1.5,0.1,2.2,0.4c0.5,0.3,1,0.7,1.3,1.2c0.3,0.5,0.5,1.1,0.6,1.8c0.1,0.7,0.2,1.5,0.2,2.2v6.4h-3.6v-5.7c0-0.3,0-0.7,0-1
	c0-0.3-0.1-0.7-0.2-1c-0.2-0.7-0.9-1.1-1.6-1c-0.4,0-0.8,0.1-1.1,0.3c-0.3,0.2-0.5,0.4-0.7,0.7c-0.2,0.3-0.3,0.6-0.3,0.9
	c0,0.4-0.1,0.7-0.1,1.1v5.8h-3.6V0H92.3z"/>
<path class="st0-benchmark" d="M102.5,6.5h3.5v1.6h0.1c0.1-0.2,0.3-0.5,0.5-0.7c0.2-0.2,0.5-0.4,0.7-0.6c0.3-0.2,0.6-0.3,1-0.4
	c0.4-0.1,0.8-0.2,1.2-0.2c0.8,0,1.5,0.2,2.2,0.5c0.6,0.4,1.1,0.9,1.4,1.6c0.3-0.7,0.9-1.2,1.5-1.6c0.7-0.3,1.4-0.5,2.2-0.5
	c0.7,0,1.4,0.1,2,0.4c0.5,0.2,0.9,0.6,1.3,1.1c0.3,0.5,0.6,1,0.7,1.6c0.1,0.7,0.2,1.3,0.2,2v6.9h-3.6v-6.8c0-0.5-0.1-1-0.3-1.4
	c-0.3-0.4-0.7-0.6-1.2-0.6c-0.4,0-0.7,0.1-1,0.2c-0.3,0.1-0.5,0.3-0.7,0.6c-0.2,0.3-0.3,0.5-0.4,0.8c-0.1,0.3-0.1,0.7-0.1,1v6.2
	h-3.6V12c0-0.2,0-0.5,0-0.8c0-0.3-0.1-0.6-0.2-0.9c-0.1-0.3-0.3-0.5-0.5-0.7c-0.3-0.2-0.6-0.3-0.9-0.3c-0.4,0-0.8,0.1-1.1,0.3
	c-0.3,0.2-0.5,0.4-0.7,0.7c-0.2,0.3-0.3,0.6-0.3,0.9c0,0.4-0.1,0.7-0.1,1.1v5.8h-3.6L102.5,6.5z"/>
<path class="st0-benchmark" d="M130.7,16.7L130.7,16.7c-0.4,0.6-1,1.1-1.6,1.3c-0.7,0.3-1.4,0.4-2.1,0.4c-0.5,0-1.1-0.1-1.6-0.2
	c-0.5-0.1-0.9-0.4-1.3-0.7c-0.4-0.3-0.7-0.7-0.9-1.1c-0.2-0.5-0.3-1-0.3-1.6c0-0.6,0.1-1.2,0.4-1.7c0.2-0.5,0.6-0.9,1-1.2
	c0.4-0.3,0.9-0.6,1.5-0.7c0.6-0.2,1.1-0.3,1.7-0.4c0.6-0.1,1.2-0.1,1.8-0.1c0.6,0,1.1,0,1.6,0c0-0.6-0.2-1.2-0.7-1.5
	c-0.5-0.4-1-0.6-1.6-0.6c-0.6,0-1.1,0.1-1.6,0.4c-0.5,0.3-0.9,0.6-1.3,1l-1.9-2c0.7-0.6,1.5-1.1,2.4-1.4c0.9-0.3,1.8-0.5,2.8-0.5
	c0.9,0,1.8,0.1,2.6,0.4c0.6,0.2,1.2,0.6,1.6,1.2c0.4,0.6,0.7,1.2,0.9,1.9c0.2,0.8,0.3,1.7,0.2,2.6v5.9h-3.3L130.7,16.7z M129.8,13
	c-0.3,0-0.6,0-1,0c-0.4,0-0.8,0.1-1.2,0.2c-0.4,0.1-0.7,0.3-1,0.5c-0.3,0.2-0.4,0.6-0.4,0.9c0,0.4,0.2,0.8,0.6,1
	c0.3,0.2,0.7,0.3,1.2,0.3c0.3,0,0.7,0,1-0.1c0.3-0.1,0.6-0.2,0.9-0.4c0.3-0.2,0.5-0.4,0.6-0.7c0.2-0.3,0.2-0.6,0.2-1V13L129.8,13z"
	/>
<path class="st0-benchmark" d="M136.3,6.5h3.6v1.9h0c0.3-0.6,0.8-1.2,1.4-1.6c0.6-0.4,1.3-0.6,2-0.5c0.2,0,0.4,0,0.6,0c0.2,0,0.4,0,0.6,0.1
	v3.3c-0.2-0.1-0.5-0.1-0.8-0.2c-0.3,0-0.5-0.1-0.8-0.1c-0.6,0-1.1,0.1-1.6,0.3c-0.4,0.2-0.7,0.5-0.9,0.8c-0.2,0.4-0.4,0.8-0.4,1.2
	c-0.1,0.5-0.1,1.1-0.1,1.6v4.9h-3.6L136.3,6.5z"/>
<path class="st0-benchmark" d="M146,0h3.6v11.1l4-4.6h4.4l-4.6,5.3l4.8,6.4h-4.5l-3.9-5.9h0v5.9H146L146,0z"/>
</svg>
