<svg width="198" height="50" viewBox="0 0 198 50" fill="none"
  xmlns="http://www.w3.org/2000/svg">
  <g>
    <path d="M103.453 50C94.2815 50 93.7055 44.6208 95.3891 38.492C97.8702 38.492 100.351 38.492 102.788 38.492C102.079 41.843 101.592 44.709 105.668 44.709C108.193 44.709 109.744 43.0776 110.276 40.6966C111.649 34.3474 96.7626 33.9506 99.0222 23.4568C100.218 17.9453 103.807 13.5361 112.845 13.5361C120.067 13.5361 122.947 16.7548 120.909 24.1622C118.516 24.1622 116.08 24.1622 113.687 24.1622C114.263 21.5167 114.396 18.8271 111.383 18.8271C108.991 18.8271 107.263 20.1499 106.731 22.5749C105.313 29.2769 120.377 28.7037 117.985 39.7707C116.035 48.8977 109.079 50 103.453 50Z" fill="white"/>
    <path d="M146.783 49.4268L154.315 14.1094H173.676L172.525 19.5327H160.606L158.746 28.2628H169.733L168.581 33.6861H157.594L155.378 44.0036H167.695L166.543 49.4268H146.783Z" fill="white"/>
    <path d="M139.561 28.2628L142.618 14.1094H150.017L142.486 49.4268H135.042L138.409 33.6861H129.903L126.58 49.4268H119.137L126.669 14.1094H134.112L131.099 28.2628H139.561Z" fill="white"/>
    <path d="M84.2686 24.1182L85.7307 49.4268H93.5727L91.4904 14.1094H81.6989L64.3313 49.4268H71.8189L84.2686 24.1182Z" fill="white"/>
    <path d="M189.006 14.1094C184.886 14.1094 180.765 14.1094 176.645 14.1094C174.12 25.8819 171.638 37.6543 169.113 49.3827C173.145 49.3827 177.177 49.3827 181.208 49.3827C193.88 49.3827 195.696 36.9489 196.848 31.5256C199.152 20.5468 198.709 14.1094 189.006 14.1094ZM189.272 31.7461C187.367 40.6085 185.772 43.9595 181.253 43.9595C180.056 43.9595 178.86 43.9595 177.664 43.9595C179.392 35.8025 181.164 27.6455 182.892 19.5327C184.177 19.5327 185.462 19.5327 186.747 19.5327C191.886 19.5327 190.645 25.2646 189.272 31.7461Z" fill="white"/>
    <path d="M62.5589 49.4268L70.1351 14.1094H62.6918L59.6791 28.2628H51.1725L54.1852 14.1094H46.7863L39.2544 49.4268H46.6534L50.0206 33.6861H58.5272L55.16 49.4268H62.5589Z" fill="white"/>
    <path d="M41.1596 19.5326L42.3558 14.1093H34.9125L37.9253 0H30.5263L27.5135 14.1093H19.0069L22.0197 0H14.6207L11.608 14.1093H4.16469L3.01276 19.5326H10.4117L8.55091 28.2187H1.15194L0 33.6861H7.39897L4.03178 49.4268H11.4307L14.7979 33.6861H23.3045L19.9373 49.4268H27.3363L30.7035 33.6861H38.1025L39.2544 28.2628H31.8998L33.7606 19.5767H41.1596V19.5326ZM24.5008 28.2628H15.9942L17.855 19.5767H26.3616L24.5008 28.2628Z" fill="white"/>
  </g>
</svg>