<svg width="252" height="66" viewBox="0 0 252 66" fill="none" 
    xmlns="http://www.w3.org/2000/svg">
    <g clip-path="url(#idle-logo-0)">
        <path d="M130.113 17.6599H123.975V51.8662H130.113V17.6599Z" fill="#4D4D4D"/>
        <path d="M172.412 17.6599V50.549L166.273 54.0661V17.6599H172.412Z" fill="#4D4D4D"/>
        <path d="M155.781 15.2344V29.7862C153.882 27.3607 151.141 25.1836 146.797 25.1836C140.511 25.1836 134.572 30.085 134.572 38.7445V38.8451C134.572 47.5045 140.608 52.4059 146.797 52.4059C151.091 52.4059 153.837 50.2289 155.781 47.5045V51.8662H161.92V11.7173L155.781 15.2344ZM155.878 38.8451C155.878 39.3238 155.844 39.7903 155.781 40.24C155.18 44.46 151.896 47.2118 148.243 47.2118C144.153 47.2118 140.658 43.8913 140.658 38.8451V38.7445C140.658 33.5458 144.101 30.3777 148.243 30.3777C151.896 30.3777 155.187 33.0899 155.781 37.3388C155.844 37.7886 155.878 38.2612 155.878 38.746V38.8451Z" fill="#4D4D4D"/>
        <path d="M175.545 38.8939V38.7948C175.545 31.32 180.884 25.1821 188.419 25.1821C196.803 25.1821 201.046 31.7163 201.046 39.2415C201.046 39.7858 200.996 40.33 200.947 40.9246H181.583C182.232 45.1811 185.276 47.5579 189.168 47.5579C192.113 47.5579 194.209 46.4694 196.304 44.4387L199.848 47.5579C197.352 50.5277 193.909 52.4593 189.068 52.4593C181.434 52.4578 175.545 46.9618 175.545 38.8939ZM195.057 36.9623C194.659 33.1006 192.363 30.082 188.37 30.082C184.677 30.082 182.081 32.904 181.533 36.9623H195.057Z" fill="#4D4D4D"/>
        <path fill-rule="evenodd" clip-rule="evenodd" d="M71.5482 4.15247V51.2945H51.1291L51 51.2214V15.9205L51.7838 15.4707L71.5482 4.15247Z" fill="url(#idle-logo-1)"/>
        <path fill-rule="evenodd" clip-rule="evenodd" d="M78.1289 62.9999V15.8579H98.548L98.677 15.9311V51.232L97.8932 51.6817L78.1289 62.9999Z" fill="url(#idle-logo-2)"/>
    </g>
    <defs>
        <linearGradient id="idle-logo-1" x1="85.1472" y1="59.4156" x2="54.4313" y2="17.9292" gradientUnits="userSpaceOnUse">
            <stop offset="3.76579e-07" stop-color="#6FA4F2"/>
            <stop offset="0.5051" stop-color="#0F6BEB"/>
            <stop offset="1" stop-color="#0B50B0"/>
        </linearGradient>
        <linearGradient id="idle-logo-2" x1="96.8783" y1="50.7299" x2="66.1624" y2="9.24349" gradientUnits="userSpaceOnUse">
            <stop offset="3.76579e-07" stop-color="#6FA4F2"/>
            <stop offset="0.5051" stop-color="#0F6BEB"/>
            <stop offset="1" stop-color="#0B50B0"/>
        </linearGradient>
        <clipPath id="idle-logo-0">
            <rect x="51" y="4" width="150" height="59" fill="white"/>
        </clipPath>
    </defs>
</svg>
