<svg width="62" height="62" viewBox="0 0 62 62" fill="none" 
    xmlns="http://www.w3.org/2000/svg">
    <path d="M25.1736 3.11504C28.0313 1.797 31.0508 0.769775 34.194 0.0712891V18.8872H25.1736V3.11504Z" fill="white"/>
    <path d="M0.0117188 34.4628C0.691777 31.3113 1.70191 28.2827 3.00412 25.4149H49.3354C56.1006 25.4149 61.5772 30.9083 61.5772 37.6941V49.6504C61.5772 56.4362 56.1006 61.9297 49.3354 61.9297H37.4154C30.6502 61.9297 25.1736 56.4362 25.1736 49.6504V40.9257H34.194V49.5857C34.194 51.3954 35.6111 52.8173 37.4154 52.8173H49.3354C51.1391 52.8173 52.5568 51.3954 52.5568 49.5857V37.6941C52.5568 35.8846 51.1391 34.4628 49.3354 34.4628H0.0117188Z" fill="white"/>
</svg>