<svg viewBox="0 0 256 256" fill="none" 
    xmlns="http://www.w3.org/2000/svg">
    <path d="M83.8058 12.5072C83.1809 10.2341 80.733 8.98669 78.5588 9.89798C68.2122 14.2345 58.5559 19.8911 49.8005 26.6569C47.9359 28.0978 47.8112 30.8406 49.4774 32.5068L52.8234 35.8529C56.4318 39.4613 62.1524 39.7303 66.3771 36.868C70.4803 34.088 74.7813 31.5779 79.2545 29.363C83.8246 27.1002 86.4147 21.9976 85.063 17.0804L83.8058 12.5072Z" fill="#00CBBE"/>
    <path d="M15.9979 109.152C17.9611 109.701 19.1895 111.637 18.9264 113.659C18.3152 118.353 18 123.14 18 128C18 188.751 67.2487 238 128 238C188.751 238 238 188.751 238 128C238 67.2487 188.751 18 128 18C123.301 18 118.671 18.2946 114.128 18.8664C112.105 19.1209 110.174 17.8841 109.634 15.9186L108.701 12.526C107.138 6.83918 110.813 1.00744 116.688 0.492981C120.415 0.166622 124.188 0 128 0C198.692 0 256 57.3076 256 128C256 198.692 198.692 256 128 256C57.3076 256 0 198.692 0 128C0 124.001 0.183376 120.045 0.542174 116.14C1.08176 110.267 6.9292 106.617 12.6092 108.205L15.9979 109.152Z" fill="#00CBBE"/>
    <path d="M35.8529 52.8234C39.4613 56.4319 39.7303 62.1524 36.868 66.3772C34.1758 70.3509 31.7366 74.51 29.5736 78.8315C27.2911 83.3917 22.1776 85.9597 17.2663 84.5869L12.6984 83.3101C10.4279 82.6754 9.19107 80.2221 10.1118 78.0517C14.4198 67.8966 20.0017 58.4127 26.6569 49.8005C28.0978 47.9359 30.8406 47.8112 32.5068 49.4774L35.8529 52.8234Z" fill="#00CBBE"/>
    <path d="M190.896 192.147C182.512 200.533 172.529 207.143 161.542 211.584C150.555 216.025 138.789 218.207 126.943 217.999C115.171 218.231 103.475 216.056 92.571 211.607C81.6665 207.158 71.782 200.529 63.5213 192.125C55.0662 183.878 48.3975 173.975 43.9308 163.033C39.464 152.091 37.2951 140.345 37.5591 128.526C37.5591 102.667 46.2279 81.1198 63.5656 63.8851C71.8315 55.4829 81.7206 48.857 92.6288 44.4121C103.537 39.9672 115.235 37.7967 127.009 38.0331C138.853 37.8321 150.616 40.0191 161.599 44.4641C172.581 48.9091 182.56 55.5212 190.94 63.9073C208.662 81.1568 217.522 102.711 217.522 128.571C217.746 140.441 215.494 152.227 210.909 163.174C206.324 174.122 199.507 183.99 190.896 192.147Z" fill="#49BC98"/>
    <path d="M158.397 95.5777L132.66 76.5872L131.361 76.6885C130.742 77.4613 130.243 78.322 129.879 79.2422C127.604 89.045 125.378 98.8727 123.154 108.696L123.153 108.702L123.148 108.724C122.537 111.423 121.926 114.121 121.314 116.818C121.108 117.749 120.915 118.692 120.696 119.762L120.502 120.709C120.798 120.557 121.053 120.433 121.279 120.322C121.595 120.168 121.857 120.04 122.105 119.899L149.771 104.657C152.836 102.996 155.88 101.334 158.925 99.6312C159.231 99.4736 159.491 99.241 159.683 98.9552C159.874 98.6693 159.989 98.3397 160.017 97.9972C160.046 97.6547 159.986 97.3106 159.845 96.9972C159.704 96.6839 159.485 96.4116 159.209 96.206L158.397 95.5777Z" fill="white"/>
    <path d="M95.2723 97.726C93.6345 98.836 92.3575 100.4 91.5985 102.225L91.5376 154.698C92.2616 156.025 93.1479 157.257 94.1763 158.366C99.9765 163.135 105.844 167.848 111.703 172.554L111.707 172.557C113.741 174.191 115.774 175.824 117.802 177.458C118.574 178.086 119.406 178.552 120.38 177.944C120.791 177.663 121.096 177.254 121.247 176.78C121.397 176.306 121.385 175.796 121.212 175.33C118.141 160.318 115.103 145.294 112.099 130.255C111.865 129.098 111.865 127.906 112.099 126.749C115.143 111.765 118.222 96.7938 121.334 81.8364C121.557 80.742 121.537 79.7286 120.482 79.1206C119.426 78.5126 118.594 79.1003 117.802 79.7489C115.69 81.4367 113.578 83.1261 111.467 84.8152C106.075 89.1302 100.684 93.4438 95.2723 97.726Z" fill="white"/>
    <path d="M131.178 179.444C130.576 178.709 130.083 177.889 129.717 177.012C127.345 166.569 125.023 156.1 122.702 145.636C122.063 142.758 121.425 139.881 120.786 137.004C120.786 136.708 120.723 136.412 120.646 136.045C120.606 135.859 120.563 135.655 120.522 135.424C120.714 135.516 120.886 135.597 121.045 135.672C121.407 135.842 121.695 135.978 121.963 136.133L158.377 156.258C160.63 157.515 160.711 158.873 158.58 160.312L132.66 179.161L132.477 179.343L131.178 179.444Z" fill="white"/>
    <path d="M126.896 124.459L121.639 127.438L122.998 128.269L147.031 141.788L160.163 149.327C161.421 150.036 162.578 149.915 163.126 148.962C163.428 148.331 163.567 147.634 163.532 146.935V108.427C163.532 105.631 162.193 104.86 159.757 106.218L126.896 124.459Z" fill="white"/>
</svg>