<svg viewBox="0 0 256 256" fill="none" 
    xmlns="http://www.w3.org/2000/svg">
    <path d="M191.275 192.228C182.891 200.614 172.908 207.224 161.921 211.666C150.934 216.107 139.167 218.289 127.322 218.08C115.55 218.312 103.854 216.137 92.9499 211.689C82.0454 207.24 72.1609 200.611 63.9002 192.206C55.4451 183.959 48.7764 174.056 44.3097 163.115C39.843 152.173 37.674 140.426 37.938 128.608C37.938 102.748 46.6068 81.2014 63.9445 63.9666C72.2104 55.5644 82.0996 48.9385 93.0078 44.4936C103.916 40.0487 115.614 37.8782 127.388 38.1146C139.232 37.9136 150.995 40.1007 161.977 44.5457C172.96 48.9906 182.939 55.6028 191.319 63.9888C209.04 81.2383 217.901 102.793 217.901 128.652C218.125 140.522 215.873 152.308 211.288 163.256C206.702 174.204 199.886 184.072 191.275 192.228Z" fill="#2A5ADA"/>
    <path fill-rule="evenodd" clip-rule="evenodd" d="M127.916 72.4751L176.774 100.975V157.791L127.916 186.291L79.0593 157.791V100.975L127.916 72.4751ZM99.6308 112.791V145.975L127.916 162.475L156.202 145.975V112.791L127.916 96.2907L99.6308 112.791Z" fill="white"/>
    <path d="M76.8636 15.4375C76.111 13.1937 73.5825 12.0857 71.4599 13.1325C62.0531 17.7716 53.2985 23.5321 45.3708 30.2395C43.5681 31.7647 43.5693 34.5173 45.3163 36.1059L48.8349 39.3056C52.6004 42.7298 58.3092 42.7373 62.3922 39.6987C65.8833 37.1006 69.5337 34.7046 73.3262 32.5281C77.7272 30.0023 80.0001 24.7879 78.3864 19.977L76.8636 15.4375Z" fill="#00CBBE"/>
    <path d="M136.949 10.8708C136.129 15.0882 132.296 18 128 18C122.839 18 117.761 18.3554 112.789 19.0431C107.716 19.7448 102.687 16.955 101.058 12.0998L99.5627 7.64118C98.8153 5.41317 100.14 3.01847 102.443 2.55177C110.701 0.878372 119.248 0 128 0C130.189 0 132.366 0.0549658 134.528 0.163593C136.904 0.282934 138.576 2.50078 138.122 4.83572L136.949 10.8708Z" fill="#00CBBE"/>
    <path d="M22.2059 169.556C24.1891 168.973 26.2823 170.002 27.1079 171.897C44.0586 210.802 82.853 238 128 238C188.751 238 238 188.751 238 128C238 79.343 206.408 38.0647 162.618 23.5578C160.659 22.9091 159.444 20.9241 159.838 18.8992L160.523 15.3752C161.637 9.64034 167.429 6.04663 172.899 8.0962C221.445 26.2828 256 73.1059 256 128C256 198.692 198.692 256 128 256C77.2142 256 33.3364 226.423 12.6519 183.555C10.1169 178.301 13.1543 172.213 18.7516 170.57L22.2059 169.556Z" fill="#00CBBE"/>
    <path d="M10.104 111.589C15.1124 112.752 18.3728 117.525 18.1273 122.661C18.0428 124.43 18 126.21 18 128C18 130.91 18.113 133.793 18.3348 136.646C18.7246 141.659 15.7523 146.437 10.9275 147.854L6.25453 149.226C3.96773 149.898 1.59959 148.433 1.26607 146.073C0.431593 140.169 0 134.135 0 128C0 123.224 0.261589 118.509 0.771221 113.868C1.02699 111.54 3.27963 110.004 5.56174 110.534L10.104 111.589Z" fill="#00CBBE"/>
    <path d="M32.5788 56.9624C36.364 60.4045 36.8959 66.1245 34.2169 70.4834C31.9173 74.2251 29.8353 78.1149 27.9885 82.1353C25.8786 86.7285 20.9209 89.4626 15.9973 88.319L11.2973 87.2273C8.9853 86.6903 7.64198 84.2674 8.49426 82.0521C12.2916 72.182 17.2765 62.9012 23.2739 54.3848C24.6279 52.4622 27.3552 52.2123 29.095 53.7944L32.5788 56.9624Z" fill="#00CBBE"/>
</svg>