<svg viewBox="0 0 256 256" fill="none" 
    xmlns="http://www.w3.org/2000/svg">
    <path d="M190.84 191.592C182.456 199.978 172.474 206.588 161.487 211.029C150.5 215.471 138.733 217.652 126.887 217.444C115.116 217.676 103.42 215.501 92.5158 211.052C81.6113 206.603 71.7268 199.974 63.4661 191.57C55.0111 183.323 48.3423 173.42 43.8756 162.478C39.4089 151.536 37.2399 139.79 37.5039 127.971C37.5039 102.112 46.1728 80.5649 63.5104 63.3302C71.7764 54.928 81.6655 48.3021 92.5737 43.8572C103.482 39.4123 115.18 37.2417 126.954 37.4781C138.798 37.2771 150.561 39.4642 161.543 43.9092C172.526 48.3542 182.504 54.9663 190.885 63.3524C208.606 80.6019 217.467 102.156 217.467 128.016C217.691 139.886 215.439 151.672 210.853 162.62C206.268 173.567 199.452 183.435 190.84 191.592Z" fill="#2A5ADA"/>
    <path fill-rule="evenodd" clip-rule="evenodd" d="M127.482 71.8386L176.34 100.339V157.154L127.482 185.654L78.6252 157.154V100.339L127.482 71.8386ZM99.1967 112.154V145.339L127.482 161.839L155.768 145.339V112.154L127.482 95.6542L99.1967 112.154Z" fill="white"/>
    <path d="M115.445 4.38916C115.445 2.03377 113.419 0.182829 111.082 0.480954C99.2412 1.99183 87.9057 5.12055 77.3043 9.63845C75.1368 10.5622 74.3249 13.1848 75.5172 15.217L77.914 19.3025C80.4962 23.7039 85.9638 25.4059 90.775 23.7053C95.8786 21.9012 101.155 20.4632 106.573 19.4225C111.586 18.4595 115.445 14.2235 115.445 9.11817V4.38916Z" fill="#00CBBE"/>
    <path d="M14.5024 139.445C16.5446 139.445 18.2514 140.989 18.5378 143.011C26.0992 196.391 71.9777 237.445 127.445 237.445C188.196 237.445 237.445 188.196 237.445 127.445C237.445 71.9777 196.391 26.0991 143.011 18.5378C140.989 18.2514 139.445 16.5446 139.445 14.5024V10.9729C139.445 5.08442 144.524 0.437403 150.318 1.48279C210.097 12.2666 255.445 64.56 255.445 127.445C255.445 198.137 198.137 255.445 127.445 255.445C64.56 255.445 12.2666 210.097 1.48279 150.318C0.437402 144.523 5.08442 139.445 10.9729 139.445H14.5024Z" fill="#00CBBE"/>
    <path d="M19.3025 77.914C23.7039 80.4961 25.4059 85.9638 23.7053 90.775C21.9012 95.8785 20.4632 101.155 19.4225 106.573C18.4595 111.586 14.2235 115.445 9.11817 115.445H4.38916C2.03377 115.445 0.182829 113.419 0.480954 111.082C1.99184 99.2412 5.12056 87.9057 9.63846 77.3043C10.5622 75.1367 13.1848 74.3249 15.217 75.5172L19.3025 77.914Z" fill="#00CBBE"/>
    <path d="M57.2301 31.4753C59.8096 35.8722 58.6334 41.4698 54.8065 44.8375C51.2754 47.945 47.945 51.2754 44.8375 54.8066C41.4698 58.6334 35.8722 59.8096 31.4753 57.2301L27.3853 54.8306C25.351 53.6372 24.7816 50.948 26.2267 49.084C32.8529 40.5375 40.5375 32.8529 49.084 26.2267C50.948 24.7816 53.6372 25.351 54.8306 27.3853L57.2301 31.4753Z" fill="#00CBBE"/>
</svg>