<svg viewBox="0 0 256 256" fill="none" 
    xmlns="http://www.w3.org/2000/svg">
    <path d="M83.8058 12.5072C83.1809 10.2341 80.733 8.98669 78.5588 9.89798C68.2122 14.2345 58.5559 19.8911 49.8005 26.6569C47.9359 28.0978 47.8112 30.8406 49.4774 32.5068L52.8234 35.8529C56.4318 39.4613 62.1524 39.7303 66.3771 36.868C70.4803 34.088 74.7813 31.5779 79.2545 29.363C83.8246 27.1002 86.4147 21.9976 85.063 17.0804L83.8058 12.5072Z" fill="#00CBBE"/>
    <path d="M15.9979 109.152C17.9611 109.701 19.1895 111.637 18.9264 113.659C18.3152 118.353 18 123.14 18 128C18 188.751 67.2487 238 128 238C188.751 238 238 188.751 238 128C238 67.2487 188.751 18 128 18C123.301 18 118.671 18.2946 114.128 18.8664C112.105 19.1209 110.174 17.8841 109.634 15.9186L108.701 12.526C107.138 6.83918 110.813 1.00744 116.688 0.492981C120.415 0.166622 124.188 0 128 0C198.692 0 256 57.3076 256 128C256 198.692 198.692 256 128 256C57.3076 256 0 198.692 0 128C0 124.001 0.183376 120.045 0.542174 116.14C1.08176 110.267 6.9292 106.617 12.6092 108.205L15.9979 109.152Z" fill="#00CBBE"/>
    <path d="M35.8529 52.8234C39.4613 56.4319 39.7303 62.1524 36.868 66.3772C34.1758 70.3509 31.7366 74.51 29.5736 78.8315C27.2911 83.3917 22.1776 85.9597 17.2663 84.5869L12.6984 83.3101C10.4279 82.6754 9.19107 80.2221 10.1118 78.0517C14.4198 67.8966 20.0017 58.4127 26.6569 49.8005C28.0978 47.9359 30.8406 47.8112 32.5068 49.4774L35.8529 52.8234Z" fill="#00CBBE"/>
    <path fill-rule="evenodd" clip-rule="evenodd" d="M185.505 186.702L185.579 186.632C193.414 179.222 199.616 170.255 203.789 160.305C207.962 150.355 210.013 139.641 209.81 128.851L209.808 128.761L209.808 128.67C209.917 104.8 201.878 85.2797 185.72 69.5483L185.677 69.5064L185.634 69.4638C177.997 61.7929 168.896 55.7404 158.873 51.6663C148.851 47.5923 138.112 45.5801 127.296 45.7494L127.152 45.7517L127.008 45.7485C116.276 45.516 105.609 47.4771 95.6593 51.5122C85.7094 55.5474 76.6855 61.5718 69.1395 69.2178L69.1069 69.2508L69.074 69.2833C53.2196 84.9669 45.2521 104.484 45.2521 128.395V128.409C45.2112 151.57 53.072 170.786 68.8757 186.554L68.907 186.585L68.9378 186.616C76.4532 194.288 85.4523 200.343 95.3844 204.413C105.317 208.483 115.973 210.481 126.703 210.287L126.847 210.284L126.991 210.287C137.809 210.494 148.558 208.519 158.599 204.48C168.639 200.44 177.765 194.419 185.433 186.774L185.505 186.702ZM126.843 218C138.697 218.227 150.476 216.063 161.478 211.636C172.479 207.21 182.478 200.613 190.879 192.237C199.495 184.088 206.315 174.228 210.903 163.288C215.491 152.348 217.746 140.569 217.522 128.706C217.641 102.847 208.834 81.285 191.101 64.0209C182.733 55.6163 172.761 48.9842 161.778 44.5199C150.795 40.0556 139.027 37.8505 127.175 38.0361C115.393 37.7808 103.683 39.9338 92.7601 44.3634C81.8373 48.7931 71.9317 55.4064 63.6488 63.799C46.2415 81.0187 37.5378 102.551 37.5378 128.395C37.4934 153.544 46.1232 174.751 63.4272 192.015C71.6768 200.436 81.5556 207.084 92.4595 211.551C103.363 216.019 115.063 218.213 126.843 218Z" fill="#282237"/>
    <path d="M173.187 77.9509C147.351 54.3152 107.756 54.3152 81.9201 77.9509L77.0319 73.1722C105.539 46.8684 149.456 46.8684 177.963 73.1722L173.187 77.9509Z" fill="#282237"/>
    <path d="M177.613 82.3149L182.39 77.5362V77.4247C208.682 105.944 208.682 149.882 182.39 178.4L177.613 173.621C201.237 147.774 201.237 108.162 177.613 82.3149Z" fill="#282237"/>
    <path d="M77.4622 173.669C53.867 147.828 53.867 108.251 77.4622 82.4106L72.6855 77.6319C46.3931 106.151 46.3931 150.087 72.6855 178.607L77.4622 173.669Z" fill="#282237"/>
    <path d="M81.8722 178.081C107.708 201.716 147.303 201.716 173.139 178.081L178.027 182.859C149.52 209.163 105.603 209.163 77.0955 182.859L81.8722 178.081Z" fill="#282237"/>
    <path fill-rule="evenodd" clip-rule="evenodd" d="M142.618 114.041C142.618 123.735 127.488 122.555 122.682 122.555V105.479C127.488 105.479 142.618 103.96 142.618 114.041ZM146.57 140.552C146.57 151.151 128.44 149.939 122.665 149.939V131.134C128.44 131.15 146.57 129.486 146.57 140.552ZM158.506 110.212C157.538 100.099 148.828 96.7063 137.811 95.6723V81.73H129.295V95.3977C127.053 95.3977 124.762 95.3977 122.488 95.4784V81.73H114.02V95.7531H108.6H96.7611V104.881C96.7611 104.881 103.052 104.768 102.955 104.881C105.313 104.621 107.452 106.278 107.794 108.629V147.031C107.691 148.696 106.26 149.961 104.597 149.86C104.587 149.86 104.578 149.86 104.568 149.858C104.681 149.955 98.3741 149.858 98.3741 149.858L96.6805 160.052H107.778H113.875V174.301H122.391V160.262H129.198V174.237H137.731V160.149C152.118 159.277 162.151 155.723 163.409 142.233C164.425 131.376 159.328 126.529 151.183 124.575C156.135 122.054 159.248 117.612 158.506 110.212Z" fill="#282237"/>
</svg>