<svg viewBox="0 0 256 256" fill="none" 
    xmlns="http://www.w3.org/2000/svg">
    <path fill-rule="evenodd" clip-rule="evenodd" d="M185.884 186.783L185.958 186.713C193.792 179.304 199.995 170.336 204.168 160.386C208.341 150.436 210.392 139.723 210.188 128.932L210.187 128.842L210.187 128.752C210.296 104.882 202.257 85.3613 186.099 69.6298L186.056 69.5879L186.013 69.5453C178.376 61.8745 169.275 55.8219 159.252 51.7479C149.229 47.6738 138.491 45.6616 127.675 45.8309L127.531 45.8332L127.387 45.8301C116.655 45.5975 105.988 47.5586 96.0382 51.5938C86.0883 55.6289 77.0644 61.6534 69.5184 69.2994L69.4858 69.3323L69.4529 69.3649C53.5985 85.0484 45.631 104.565 45.631 128.477V128.49C45.5901 151.652 53.4509 170.868 69.2546 186.635L69.2859 186.666L69.3167 186.698C76.8321 194.369 85.8312 200.425 95.7633 204.495C105.695 208.564 116.352 210.563 127.082 210.368L127.226 210.366L127.37 210.368C138.188 210.575 148.937 208.601 158.977 204.561C169.018 200.522 178.144 194.5 185.812 186.855L185.884 186.783ZM127.222 218.081C139.076 218.308 150.855 216.144 161.857 211.718C172.858 207.292 182.857 200.694 191.258 192.318C199.874 184.17 206.694 174.31 211.282 163.37C215.87 152.43 218.125 140.65 217.901 128.787C218.02 102.928 209.212 81.3665 191.48 64.1025C183.112 55.6978 173.14 49.0657 162.157 44.6014C151.174 40.1371 139.406 37.9321 127.554 38.1176C115.772 37.8623 104.062 40.0153 93.139 44.445C82.2162 48.8747 72.3106 55.488 64.0278 63.8806C46.6204 81.1003 37.9167 102.632 37.9167 128.477C37.8723 153.626 46.5022 174.832 63.8061 192.096C72.0557 200.517 81.9345 207.165 92.8384 211.633C103.742 216.101 115.442 218.295 127.222 218.081Z" fill="#282237"/>
    <path d="M173.565 78.0324C147.73 54.3968 108.134 54.3968 82.299 78.0324L77.4108 73.2537C105.918 46.9499 149.835 46.9499 178.342 73.2537L173.565 78.0324Z" fill="#282237"/>
    <path d="M177.992 82.3965L182.769 77.6177V77.5062C209.061 106.026 209.061 149.963 182.769 178.481L177.992 173.702C201.616 147.856 201.616 108.243 177.992 82.3965Z" fill="#282237"/>
    <path d="M77.8411 173.75C54.2459 147.91 54.2459 108.332 77.8411 82.4922L73.0644 77.7134C46.772 106.233 46.772 150.169 73.0644 178.688L77.8411 173.75Z" fill="#282237"/>
    <path d="M82.2511 178.162C108.087 201.798 147.682 201.798 173.518 178.162L178.406 182.941C149.898 209.245 105.982 209.245 77.4744 182.941L82.2511 178.162Z" fill="#282237"/>
    <path fill-rule="evenodd" clip-rule="evenodd" d="M142.997 114.123C142.997 123.816 127.867 122.637 123.06 122.637V105.56C127.867 105.56 142.997 104.042 142.997 114.123ZM146.949 140.634C146.949 151.232 128.819 150.02 123.044 150.02V131.215C128.819 131.231 146.949 129.567 146.949 140.634ZM158.885 110.294C157.917 100.18 149.207 96.7878 138.19 95.7538V81.8116H129.674V95.4792C127.432 95.4792 125.141 95.4792 122.867 95.56V81.8116H114.399V95.8346H108.979H97.14V104.963C97.14 104.963 103.431 104.849 103.334 104.963C105.692 104.702 107.831 106.36 108.173 108.711V147.112C108.069 148.778 106.639 150.043 104.976 149.941C104.966 149.941 104.956 149.941 104.947 149.94C105.06 150.037 98.7529 149.94 98.7529 149.94L97.0593 160.134H108.157H114.254V174.383H122.77V160.344H129.577V174.318H138.109V160.231C152.497 159.358 162.53 155.804 163.788 142.314C164.804 131.458 159.707 126.611 151.562 124.656C156.513 122.136 159.626 117.693 158.885 110.294Z" fill="#282237"/>
    <path d="M76.8636 15.4375C76.111 13.1937 73.5825 12.0857 71.4599 13.1325C62.0531 17.7716 53.2985 23.5321 45.3708 30.2395C43.5681 31.7647 43.5693 34.5173 45.3163 36.1059L48.8349 39.3056C52.6004 42.7298 58.3092 42.7373 62.3922 39.6987C65.8833 37.1006 69.5337 34.7046 73.3262 32.5281C77.7272 30.0023 80.0001 24.7879 78.3864 19.977L76.8636 15.4375Z" fill="#00CBBE"/>
    <path d="M136.949 10.8708C136.129 15.0882 132.296 18 128 18C122.839 18 117.761 18.3554 112.789 19.0431C107.716 19.7448 102.687 16.955 101.058 12.0998L99.5627 7.64118C98.8153 5.41317 100.14 3.01847 102.443 2.55177C110.701 0.878372 119.248 0 128 0C130.189 0 132.366 0.0549658 134.528 0.163593C136.904 0.282934 138.576 2.50078 138.122 4.83572L136.949 10.8708Z" fill="#00CBBE"/>
    <path d="M22.2059 169.556C24.1891 168.973 26.2823 170.002 27.1079 171.897C44.0586 210.802 82.853 238 128 238C188.751 238 238 188.751 238 128C238 79.343 206.408 38.0647 162.618 23.5578C160.659 22.9091 159.444 20.9241 159.838 18.8992L160.523 15.3752C161.637 9.64034 167.429 6.04663 172.899 8.0962C221.445 26.2828 256 73.1059 256 128C256 198.692 198.692 256 128 256C77.2142 256 33.3364 226.423 12.6519 183.555C10.1169 178.301 13.1543 172.213 18.7516 170.57L22.2059 169.556Z" fill="#00CBBE"/>
    <path d="M10.104 111.589C15.1124 112.752 18.3728 117.525 18.1273 122.661C18.0428 124.43 18 126.21 18 128C18 130.91 18.113 133.793 18.3348 136.646C18.7246 141.659 15.7523 146.437 10.9275 147.854L6.25453 149.226C3.96773 149.898 1.59959 148.433 1.26607 146.073C0.431593 140.169 0 134.135 0 128C0 123.224 0.261589 118.509 0.771221 113.868C1.02699 111.54 3.27963 110.004 5.56174 110.534L10.104 111.589Z" fill="#00CBBE"/>
    <path d="M32.5788 56.9624C36.364 60.4045 36.8959 66.1245 34.2169 70.4834C31.9173 74.2251 29.8353 78.1149 27.9885 82.1353C25.8786 86.7285 20.9209 89.4626 15.9973 88.319L11.2973 87.2273C8.9853 86.6903 7.64198 84.2674 8.49426 82.0521C12.2916 72.182 17.2765 62.9012 23.2739 54.3848C24.6279 52.4622 27.3552 52.2123 29.095 53.7944L32.5788 56.9624Z" fill="#00CBBE"/>
</svg>