<svg viewBox="0 0 256 256" fill="none" 
    xmlns="http://www.w3.org/2000/svg">
    <path d="M190.824 191.682C182.423 200.058 172.424 206.655 161.423 211.081C150.421 215.508 138.642 217.672 126.788 217.445C115.008 217.658 103.308 215.464 92.4043 210.996C81.5004 206.529 71.6216 199.881 63.372 191.46C46.0681 174.196 37.4383 152.989 37.4826 127.84C37.4826 101.996 46.1863 80.4637 63.5937 63.244C71.8766 54.8514 81.7822 48.2381 92.7049 43.8084C103.628 39.3787 115.338 37.2257 127.12 37.481C138.972 37.2955 150.74 39.5005 161.723 43.9648C172.705 48.4291 182.678 55.0612 191.046 63.4659C208.778 80.7299 217.586 102.292 217.467 128.151C217.691 140.014 215.436 151.793 210.848 162.733C206.26 173.673 199.44 183.533 190.824 191.682Z" fill="#000004"/>
    <path d="M94.3323 106.889C93.5768 105.86 92.833 104.848 92.0984 103.848C89.9612 100.94 87.9003 98.1359 85.8516 95.3102C85.1872 94.3987 84.5407 93.4733 83.8952 92.5494C83.1741 91.5172 82.454 90.4865 81.7118 89.4792C81.5502 89.335 81.4205 89.1566 81.3316 88.9561C81.2428 88.7556 81.1968 88.5377 81.1968 88.3171C81.1968 88.0966 81.2428 87.8787 81.3316 87.6782C81.4205 87.4776 81.5502 87.2992 81.7118 87.1551C90.2513 77.2393 101.577 70.3254 114.107 67.3794C122.407 65.3768 131.024 65.2142 139.389 66.9021C145.676 68.1658 151.737 70.4267 157.355 73.6047C157.702 73.8563 158.031 74.1337 158.34 74.4347L157.883 74.7789C155.519 76.5611 153.27 78.2571 151.004 79.9337C148.109 82.0675 145.21 84.1973 142.312 86.3257L142.309 86.3281C135.796 91.1121 129.294 95.8885 122.869 100.685C121.583 101.639 120.86 101.639 119.694 100.415C118.518 99.1368 117.289 97.9078 116.059 96.6775C114.893 95.5111 113.725 94.3432 112.6 93.1314C112.258 92.6709 111.753 92.3689 111.196 92.2912C110.639 92.2134 110.074 92.3662 109.626 92.7163C104.295 95.6388 99.6563 99.7416 96.0405 104.731C95.8301 105.001 95.6231 105.259 95.4005 105.537C95.0919 105.923 94.7525 106.347 94.3323 106.889Z" fill="white"/>
    <path d="M103.35 163.513L103.359 163.506L103.41 163.469C104.568 162.628 105.734 161.781 106.911 160.927C106.569 160.647 106.301 160.423 106.071 160.23C105.786 159.992 105.558 159.801 105.318 159.611C100.255 155.988 96.0562 151.332 93.0116 145.965C92.7849 145.7 92.6162 145.391 92.5159 145.06C92.4156 144.728 92.3859 144.38 92.4285 144.036C92.4712 143.693 92.5853 143.362 92.7639 143.063C92.9424 142.764 93.1816 142.505 93.4667 142.3C94.8308 141.048 96.1301 139.737 97.428 138.428C98.6688 137.176 99.9085 135.925 101.202 134.728C101.466 134.556 101.685 134.328 101.844 134.06C102.003 133.792 102.098 133.492 102.12 133.183C102.142 132.874 102.091 132.565 101.971 132.278C101.852 131.991 101.666 131.735 101.43 131.529C96.0127 124.637 90.6376 117.714 85.267 110.797C83.1121 108.021 80.9579 105.246 78.802 102.475C78.1486 101.664 77.487 100.813 76.8081 99.9404C75.9612 98.8512 75.0873 97.7274 74.1689 96.6036C73.9538 96.9856 73.7633 97.3135 73.5914 97.6094C73.317 98.082 73.09 98.4728 72.8865 98.8712C68.7416 106.712 66.3446 115.324 65.854 124.139C65.4186 132.145 66.6428 140.155 69.453 147.686C72.9563 157.516 78.9903 166.296 86.972 173.177C87.2763 173.429 87.6386 173.604 88.0277 173.689C88.4169 173.774 88.8211 173.765 89.2059 173.662C93.9193 170.364 98.5662 166.988 103.35 163.513Z" fill="white"/>
    <path d="M110.506 169.801C105.896 173.326 101.277 176.858 96.6253 180.425C96.8996 180.706 97.1958 180.962 97.5112 181.192C105.602 185.822 114.603 188.514 123.844 189.068C131.412 189.534 138.996 188.478 146.171 185.959C156.516 182.497 165.792 176.293 173.068 167.97C173.276 167.804 173.446 167.593 173.566 167.353C173.687 167.113 173.755 166.849 173.766 166.579C173.778 166.309 173.732 166.039 173.633 165.789C173.533 165.539 173.382 165.314 173.189 165.13C172.274 163.868 171.375 162.597 170.471 161.317C169.386 159.782 168.291 158.234 167.149 156.674C165.332 154.192 163.5 151.741 161.6 149.2L160.727 148.032C160.553 148.254 160.399 148.446 160.258 148.621C159.993 148.951 159.777 149.219 159.58 149.504C155.966 154.664 151.265 158.915 145.829 161.939C145.557 162.157 145.244 162.315 144.909 162.404C144.575 162.493 144.227 162.511 143.886 162.457C143.545 162.402 143.218 162.277 142.925 162.088C142.633 161.899 142.381 161.651 142.185 161.358C140.195 159.192 138.094 157.088 135.974 154.965L135.972 154.963C135.091 154.081 134.207 153.196 133.327 152.302C125.682 158.197 118.108 163.989 110.506 169.801Z" fill="white"/>
    <path d="M151.882 91.5868C150.625 92.526 149.352 93.4771 148.054 94.4436L150.038 95.9461C155.075 99.6221 159.218 104.352 162.167 109.793C162.538 110.275 162.703 110.88 162.625 111.48C162.548 112.079 162.236 112.625 161.754 113.001C159.378 115.234 156.939 117.772 154.873 119.965C153.848 121.053 153.224 121.431 153.139 121.906C153.053 122.388 153.521 122.969 154.687 124.493C161.699 133.602 168.684 142.698 175.64 151.78C176.616 153.058 177.605 154.315 178.601 155.58C179.313 156.485 180.029 157.394 180.744 158.318C180.89 158.19 181.019 158.095 181.123 158.019C181.3 157.889 181.406 157.811 181.406 157.709C186.034 149.408 188.676 140.18 189.134 130.726C189.446 124.054 188.593 117.38 186.613 110.991C183.274 99.6473 176.699 89.4806 167.664 81.6932C166.817 80.9622 166.238 81.0435 165.37 81.6932C164.039 82.7809 162.588 83.7835 161.105 84.8089C160.539 85.1998 159.969 85.594 159.398 85.9975C156.909 87.8322 154.428 89.6852 151.882 91.5868Z" fill="white"/>
    <path d="M115.445 4.38916C115.445 2.03377 113.419 0.182829 111.082 0.480954C99.2412 1.99183 87.9057 5.12055 77.3043 9.63845C75.1368 10.5622 74.3249 13.1848 75.5172 15.217L77.914 19.3025C80.4962 23.7039 85.9638 25.4059 90.775 23.7053C95.8786 21.9012 101.155 20.4632 106.573 19.4225C111.586 18.4595 115.445 14.2235 115.445 9.11817V4.38916Z" fill="#00CBBE"/>
    <path d="M14.5024 139.445C16.5446 139.445 18.2514 140.989 18.5378 143.011C26.0992 196.391 71.9777 237.445 127.445 237.445C188.196 237.445 237.445 188.196 237.445 127.445C237.445 71.9777 196.391 26.0991 143.011 18.5378C140.989 18.2514 139.445 16.5446 139.445 14.5024V10.9729C139.445 5.08442 144.524 0.437403 150.318 1.48279C210.097 12.2666 255.445 64.56 255.445 127.445C255.445 198.137 198.137 255.445 127.445 255.445C64.56 255.445 12.2666 210.097 1.48279 150.318C0.437402 144.523 5.08442 139.445 10.9729 139.445H14.5024Z" fill="#00CBBE"/>
    <path d="M19.3025 77.914C23.7039 80.4961 25.4059 85.9638 23.7053 90.775C21.9012 95.8785 20.4632 101.155 19.4225 106.573C18.4595 111.586 14.2235 115.445 9.11817 115.445H4.38916C2.03377 115.445 0.182829 113.419 0.480954 111.082C1.99184 99.2412 5.12056 87.9057 9.63846 77.3043C10.5622 75.1367 13.1848 74.3249 15.217 75.5172L19.3025 77.914Z" fill="#00CBBE"/>
    <path d="M57.2301 31.4753C59.8096 35.8722 58.6334 41.4698 54.8065 44.8375C51.2754 47.945 47.945 51.2754 44.8375 54.8066C41.4698 58.6334 35.8722 59.8096 31.4753 57.2301L27.3853 54.8306C25.351 53.6372 24.7816 50.948 26.2267 49.084C32.8529 40.5375 40.5375 32.8529 49.084 26.2267C50.948 24.7816 53.6372 25.351 54.8306 27.3853L57.2301 31.4753Z" fill="#00CBBE"/>
</svg>