<svg viewBox="0 0 256 256" fill="none" 
    xmlns="http://www.w3.org/2000/svg">
    <path d="M83.8058 12.5072C83.1809 10.2341 80.733 8.98669 78.5588 9.89798C68.2122 14.2345 58.5559 19.8911 49.8005 26.6569C47.9359 28.0978 47.8112 30.8406 49.4774 32.5068L52.8234 35.8529C56.4318 39.4613 62.1524 39.7303 66.3771 36.868C70.4803 34.088 74.7813 31.5779 79.2545 29.363C83.8246 27.1002 86.4147 21.9976 85.063 17.0804L83.8058 12.5072Z" fill="#00CBBE"/>
    <path d="M15.9979 109.152C17.9611 109.701 19.1895 111.637 18.9264 113.659C18.3152 118.353 18 123.14 18 128C18 188.751 67.2487 238 128 238C188.751 238 238 188.751 238 128C238 67.2487 188.751 18 128 18C123.301 18 118.671 18.2946 114.128 18.8664C112.105 19.1209 110.174 17.8841 109.634 15.9186L108.701 12.526C107.138 6.83918 110.813 1.00744 116.688 0.492981C120.415 0.166622 124.188 0 128 0C198.692 0 256 57.3076 256 128C256 198.692 198.692 256 128 256C57.3076 256 0 198.692 0 128C0 124.001 0.183376 120.045 0.542174 116.14C1.08176 110.267 6.9292 106.617 12.6092 108.205L15.9979 109.152Z" fill="#00CBBE"/>
    <path d="M35.8529 52.8234C39.4613 56.4319 39.7303 62.1524 36.868 66.3772C34.1758 70.3509 31.7366 74.51 29.5736 78.8315C27.2911 83.3917 22.1776 85.9597 17.2663 84.5869L12.6984 83.3101C10.4279 82.6754 9.19107 80.2221 10.1118 78.0517C14.4198 67.8966 20.0017 58.4127 26.6569 49.8005C28.0978 47.9359 30.8406 47.8112 32.5068 49.4774L35.8529 52.8234Z" fill="#00CBBE"/>
    <path d="M190.879 192.237C182.478 200.613 172.479 207.21 161.478 211.636C150.476 216.063 138.697 218.227 126.843 218C115.063 218.213 103.363 216.019 92.4595 211.551C81.5556 207.084 71.6768 200.436 63.4272 192.015C46.1232 174.751 37.4934 153.544 37.5378 128.395C37.5378 102.551 46.2415 81.0187 63.6488 63.799C71.9317 55.4064 81.8373 48.7931 92.7601 44.3634C103.683 39.9338 115.393 37.7808 127.175 38.0361C139.027 37.8505 150.795 40.0556 161.778 44.5199C172.761 48.9842 182.733 55.6163 191.101 64.0209C208.834 81.285 217.641 102.847 217.522 128.706C217.746 140.569 215.491 152.348 210.903 163.288C206.315 174.228 199.495 184.088 190.879 192.237Z" fill="#000004"/>
    <path d="M94.3875 107.444C93.6319 106.415 92.8881 105.403 92.1535 104.403C90.0163 101.495 87.9554 98.6909 85.9068 95.8653C85.2423 94.9538 84.5958 94.0284 83.9503 93.1044C83.2292 92.0723 82.5091 91.0415 81.7669 90.0342C81.6053 89.8901 81.4756 89.7117 81.3867 89.5112C81.2979 89.3106 81.2519 89.0927 81.2519 88.8722C81.2519 88.6517 81.2979 88.4337 81.3867 88.2332C81.4756 88.0327 81.6053 87.8543 81.7669 87.7101C90.3064 77.7943 101.632 70.8805 114.162 67.9344C122.462 65.9319 131.079 65.7692 139.444 67.4572C145.732 68.7208 151.792 70.9818 157.41 74.1597C157.757 74.4113 158.086 74.6887 158.395 74.9898L157.938 75.334C155.575 77.1161 153.325 78.8121 151.06 80.4888C148.164 82.6226 145.265 84.7524 142.367 86.8807L142.364 86.8832C135.852 91.6672 129.35 96.4435 122.924 101.24C121.638 102.194 120.915 102.194 119.749 100.97C118.573 99.6918 117.344 98.4629 116.114 97.2326C114.948 96.0661 113.78 94.8983 112.655 93.6864C112.313 93.226 111.808 92.924 111.251 92.8462C110.694 92.7685 110.129 92.9213 109.681 93.2714C104.35 96.1939 99.7114 100.297 96.0957 105.286C95.8852 105.556 95.6783 105.814 95.4556 106.092C95.147 106.478 94.8076 106.902 94.3875 107.444Z" fill="white"/>
    <path d="M103.405 164.068L103.414 164.061L103.465 164.024C104.623 163.183 105.789 162.336 106.966 161.482C106.624 161.202 106.356 160.978 106.126 160.785C105.841 160.547 105.614 160.357 105.374 160.166C100.31 156.543 96.1113 151.887 93.0668 146.52C92.8401 146.255 92.6713 145.947 92.5711 145.615C92.4708 145.283 92.441 144.935 92.4837 144.591C92.5263 144.248 92.6404 143.917 92.819 143.618C92.9975 143.319 93.2367 143.06 93.5218 142.855C94.8859 141.603 96.1852 140.292 97.4831 138.983C98.7239 137.731 99.9636 136.48 101.257 135.283C101.521 135.111 101.741 134.883 101.9 134.615C102.059 134.347 102.153 134.047 102.175 133.738C102.197 133.429 102.146 133.12 102.026 132.833C101.907 132.546 101.722 132.29 101.485 132.084C96.0678 125.192 90.6927 118.269 85.3221 111.352C83.1672 108.576 81.013 105.801 78.8571 103.03C78.2037 102.219 77.5421 101.369 76.8632 100.495C76.0163 99.4062 75.1424 98.2824 74.224 97.1586C74.0089 97.5406 73.8184 97.8686 73.6466 98.1645C73.3721 98.6371 73.1451 99.0278 72.9416 99.4262C68.7967 107.267 66.3997 115.879 65.9091 124.694C65.4737 132.7 66.6979 140.71 69.5081 148.241C73.0114 158.071 79.0454 166.851 87.0271 173.732C87.3315 173.984 87.6937 174.159 88.0829 174.244C88.472 174.329 88.8763 174.32 89.261 174.217C93.9745 170.92 98.6214 167.543 103.405 164.068Z" fill="white"/>
    <path d="M110.561 170.356C105.951 173.881 101.332 177.413 96.6804 180.981C96.9547 181.261 97.251 181.517 97.5663 181.747C105.657 186.377 114.658 189.069 123.9 189.623C131.467 190.089 139.051 189.033 146.227 186.514C156.571 183.053 165.848 176.848 173.124 168.525C173.331 168.359 173.501 168.148 173.621 167.908C173.742 167.668 173.81 167.404 173.822 167.134C173.833 166.864 173.787 166.594 173.688 166.344C173.588 166.094 173.437 165.869 173.244 165.685C172.329 164.423 171.431 163.152 170.526 161.872C169.441 160.337 168.346 158.789 167.205 157.23C165.387 154.747 163.555 152.296 161.655 149.755L160.782 148.587C160.609 148.809 160.454 149.001 160.314 149.176C160.048 149.506 159.832 149.774 159.635 150.059C156.021 155.219 151.32 159.47 145.884 162.494C145.612 162.712 145.299 162.87 144.964 162.959C144.63 163.048 144.282 163.066 143.941 163.012C143.6 162.957 143.273 162.832 142.981 162.643C142.688 162.454 142.436 162.206 142.24 161.913C140.25 159.747 138.149 157.643 136.029 155.52L136.027 155.518C135.146 154.636 134.263 153.751 133.382 152.857C125.737 158.752 118.163 164.544 110.561 170.356Z" fill="white"/>
    <path d="M151.937 92.1419C150.68 93.0811 149.407 94.0321 148.109 94.9987L150.093 96.5011C155.13 100.177 159.273 104.907 162.223 110.348C162.593 110.83 162.758 111.435 162.681 112.035C162.603 112.634 162.291 113.18 161.809 113.556C159.433 115.789 156.995 118.327 154.928 120.52C153.903 121.608 153.279 121.986 153.194 122.461C153.108 122.943 153.576 123.524 154.742 125.048C161.754 134.157 168.739 143.253 175.696 152.335C176.671 153.613 177.66 154.87 178.656 156.135C179.368 157.04 180.084 157.95 180.8 158.873C180.945 158.745 181.074 158.65 181.178 158.574C181.355 158.444 181.461 158.366 181.461 158.264C186.089 149.963 188.732 140.735 189.189 131.281C189.501 124.609 188.648 117.935 186.668 111.546C183.329 100.202 176.754 90.0357 167.719 82.2482C166.872 81.5173 166.293 81.5985 165.426 82.2482C164.094 83.336 162.643 84.3386 161.16 85.3639C160.594 85.7548 160.024 86.149 159.454 86.5525C156.964 88.3873 154.483 90.2403 151.937 92.1419Z" fill="white"/>
</svg>