<svg viewBox="0 0 256 256" fill="none" 
    xmlns="http://www.w3.org/2000/svg">
    <path d="M191.315 192.169C182.938 200.562 172.96 207.181 161.975 211.633C150.991 216.085 139.224 218.278 127.376 218.081C115.596 218.309 103.893 216.128 92.9831 211.673C82.0733 207.218 72.1855 200.581 63.9241 192.169C55.4699 183.926 48.8 174.03 44.3292 163.095C39.8583 152.16 37.6823 140.421 37.9365 128.608C37.9365 102.74 46.599 81.191 63.9241 63.9605C72.1911 55.5603 82.0815 48.936 92.9911 44.4922C103.901 40.0484 115.6 37.8784 127.376 38.1147C139.219 37.9096 150.983 40.0921 161.968 44.5322C172.952 48.9723 182.932 55.5794 191.315 63.9605C209.039 81.191 217.9 102.74 217.9 128.608C218.13 140.472 215.884 152.253 211.306 163.198C206.728 174.143 199.919 184.01 191.315 192.169Z" fill="#C8C8C8"/>
    <path d="M127.917 66.383L91.9165 127.731L127.917 110.919V66.383Z" fill="#8B8B8B"/>
    <path d="M127.917 110.919L91.9165 127.731L127.917 149.572V110.919Z" fill="#393939"/>
    <path d="M127.916 66.383V110.919L163.882 127.731L127.916 66.383Z" fill="#343434"/>
    <path d="M127.916 110.919V149.572L163.882 127.731L127.916 110.919Z" fill="#161616"/>
    <path d="M91.9165 134.732L127.917 186.839V156.592L91.9165 134.732Z" fill="#8B8B8B"/>
    <path d="M163.917 134.732L127.916 156.592V186.839L163.917 134.732Z" fill="#343434"/>
    <path fill-rule="evenodd" clip-rule="evenodd" d="M136.949 10.8708C136.129 15.0882 132.296 18 128 18C122.839 18 117.761 18.3554 112.789 19.0431C107.716 19.7448 102.687 16.955 101.058 12.0998L99.5627 7.64118C98.8153 5.41317 100.14 3.01847 102.443 2.55177C110.701 0.878372 119.248 0 128 0C130.189 0 132.366 0.0549658 134.528 0.163593C136.904 0.282934 138.576 2.50078 138.122 4.83572L136.949 10.8708ZM76.8636 15.4375C76.111 13.1937 73.5825 12.0857 71.4599 13.1325C62.0531 17.7716 53.2985 23.5321 45.3708 30.2395C43.5681 31.7647 43.5693 34.5173 45.3163 36.1059L48.8349 39.3056C52.6004 42.7298 58.3092 42.7373 62.3922 39.6987C65.8833 37.1006 69.5337 34.7046 73.3262 32.5281C77.7272 30.0023 80.0001 24.7879 78.3864 19.977L76.8636 15.4375ZM59.0636 213.724C57.5098 212.473 55.2752 212.481 53.7785 213.8L51.228 216.047C46.7297 220.011 46.6921 227.044 51.4963 230.631C72.8382 246.566 99.3174 256 128 256C198.692 256 256 198.692 256 128C256 73.1059 221.445 26.2828 172.899 8.0962C167.429 6.04663 161.637 9.64034 160.523 15.3752L159.838 18.8992C159.444 20.9241 160.659 22.9091 162.618 23.5578C206.408 38.0647 238 79.343 238 128C238 188.751 188.751 238 128 238C101.901 238 77.9241 228.91 59.0636 213.724ZM10.104 111.589C15.1124 112.752 18.3728 117.525 18.1273 122.661C18.0428 124.43 18 126.21 18 128C18 130.91 18.113 133.793 18.3348 136.646C18.7246 141.659 15.7523 146.437 10.9275 147.854L6.25453 149.226C3.96773 149.898 1.59959 148.433 1.26607 146.073C0.431593 140.169 0 134.135 0 128C0 123.224 0.261589 118.509 0.771221 113.868C1.02699 111.54 3.27963 110.004 5.56174 110.534L10.104 111.589ZM34.2169 70.4834C36.8959 66.1245 36.364 60.4045 32.5788 56.9624L29.095 53.7944C27.3552 52.2123 24.6279 52.4622 23.2739 54.3848C17.2765 62.9012 12.2916 72.182 8.49426 82.0521C7.64198 84.2674 8.9853 86.6903 11.2973 87.2273L15.9973 88.319C20.9209 89.4626 25.8786 86.7285 27.9885 82.1353C29.8353 78.1149 31.9173 74.2251 34.2169 70.4834ZM29.3111 177.812C26.8258 173.311 21.5465 170.958 16.6723 172.595L12.2518 174.08C10.0309 174.826 8.91869 177.315 9.92269 179.432C11.9232 183.65 14.174 187.801 16.6796 191.867C19.898 197.09 23.431 202.001 27.239 206.59C28.7609 208.424 31.5452 208.428 33.1398 206.657L36.3983 203.037C39.7626 199.3 39.7865 193.673 36.8246 189.609C35.1392 187.297 33.5303 184.902 32.0038 182.424C31.0647 180.9 30.1673 179.362 29.3111 177.812Z" fill="#FF5487"/>
</svg>
