<svg viewBox="0 0 256 256" fill="none" 
    xmlns="http://www.w3.org/2000/svg">
    <path d="M190.841 191.592C182.457 199.978 172.474 206.588 161.487 211.029C150.5 215.471 138.733 217.652 126.888 217.444C115.116 217.676 103.42 215.501 92.5158 211.052C81.6114 206.603 71.7269 199.974 63.4662 191.57C55.0111 183.323 48.3424 173.42 43.8757 162.478C39.4089 151.536 37.24 139.79 37.504 127.971C37.504 102.112 46.1728 80.5649 63.5105 63.3302C71.7764 54.928 81.6655 48.3021 92.5737 43.8572C103.482 39.4123 115.18 37.2417 126.954 37.4781C138.798 37.2771 150.561 39.4642 161.543 43.9092C172.526 48.3542 182.505 54.9663 190.885 63.3524C208.606 80.6019 217.467 102.156 217.467 128.016C217.691 139.886 215.439 151.672 210.854 162.62C206.268 173.567 199.452 183.435 190.841 191.592Z" fill="#49BC98"/>
    <path d="M158.342 95.0227L132.605 76.0322L131.306 76.1336C130.687 76.9063 130.188 77.7671 129.824 78.6872C127.549 88.4901 125.323 98.3178 123.099 108.141L123.098 108.147L123.092 108.17C122.481 110.868 121.871 113.566 121.259 116.263C121.053 117.194 120.86 118.137 120.641 119.207L120.447 120.154C120.743 120.002 120.997 119.878 121.224 119.767C121.54 119.613 121.802 119.485 122.05 119.344L149.716 104.103C152.78 102.441 155.825 100.779 158.87 99.0762C159.176 98.9187 159.436 98.6861 159.627 98.4002C159.819 98.1144 159.934 97.7847 159.962 97.4422C159.991 97.0997 159.931 96.7556 159.79 96.4423C159.648 96.129 159.43 95.8567 159.154 95.651L158.342 95.0227Z" fill="white"/>
    <path d="M95.2172 97.1711C93.5794 98.2811 92.3023 99.845 91.5434 101.67L91.4825 154.143C92.2064 155.47 93.0928 156.702 94.1211 157.811C99.9213 162.58 105.789 167.293 111.648 171.999L111.652 172.003C113.686 173.636 115.719 175.269 117.747 176.903C118.519 177.531 119.351 177.997 120.325 177.389C120.736 177.109 121.041 176.699 121.192 176.225C121.342 175.751 121.33 175.241 121.157 174.775C118.086 159.763 115.048 144.739 112.044 129.7C111.81 128.543 111.81 127.351 112.044 126.194C115.088 111.21 118.167 96.2388 121.279 81.2815C121.502 80.1871 121.482 79.1737 120.426 78.5657C119.371 77.9577 118.539 78.5454 117.747 79.194C115.634 80.8817 113.523 82.5711 111.412 84.2603C106.02 88.5752 100.629 92.8889 95.2172 97.1711Z" fill="white"/>
    <path d="M131.123 178.889C130.521 178.154 130.028 177.334 129.662 176.457C127.29 166.014 124.968 155.545 122.647 145.081C122.008 142.203 121.37 139.326 120.731 136.45C120.731 136.153 120.668 135.857 120.59 135.49C120.551 135.304 120.508 135.1 120.467 134.869C120.658 134.961 120.831 135.042 120.989 135.117C121.352 135.287 121.64 135.423 121.908 135.578L158.322 155.704C160.575 156.96 160.656 158.318 158.525 159.757L132.605 178.606L132.422 178.788L131.123 178.889Z" fill="white"/>
    <path d="M126.84 123.904L121.583 126.883L122.943 127.714L146.975 141.233L160.108 148.772C161.366 149.481 162.523 149.36 163.071 148.407C163.373 147.776 163.512 147.079 163.477 146.381V107.873C163.477 105.076 162.138 104.305 159.702 105.663L126.84 123.904Z" fill="white"/>
    <path d="M115.445 4.38916C115.445 2.03377 113.419 0.182829 111.082 0.480954C99.2412 1.99183 87.9057 5.12055 77.3043 9.63845C75.1368 10.5622 74.3249 13.1848 75.5172 15.217L77.914 19.3025C80.4962 23.7039 85.9638 25.4059 90.775 23.7053C95.8786 21.9012 101.155 20.4632 106.573 19.4225C111.586 18.4595 115.445 14.2235 115.445 9.11817V4.38916Z" fill="#FF5487"/>
    <path d="M14.5024 139.445C16.5446 139.445 18.2514 140.989 18.5378 143.011C26.0992 196.391 71.9777 237.445 127.445 237.445C188.196 237.445 237.445 188.196 237.445 127.445C237.445 71.9777 196.391 26.0991 143.011 18.5378C140.989 18.2514 139.445 16.5446 139.445 14.5024V10.9729C139.445 5.08442 144.524 0.437403 150.318 1.48279C210.097 12.2666 255.445 64.56 255.445 127.445C255.445 198.137 198.137 255.445 127.445 255.445C64.56 255.445 12.2666 210.097 1.48279 150.318C0.437402 144.523 5.08442 139.445 10.9729 139.445H14.5024Z" fill="#FF5487"/>
    <path d="M19.3025 77.914C23.7039 80.4961 25.4059 85.9638 23.7053 90.775C21.9012 95.8785 20.4632 101.155 19.4225 106.573C18.4595 111.586 14.2235 115.445 9.11817 115.445H4.38916C2.03377 115.445 0.182829 113.419 0.480954 111.082C1.99184 99.2412 5.12056 87.9057 9.63846 77.3043C10.5622 75.1367 13.1848 74.3249 15.217 75.5172L19.3025 77.914Z" fill="#FF5487"/>
    <path d="M57.2301 31.4753C59.8096 35.8722 58.6334 41.4698 54.8065 44.8375C51.2754 47.945 47.945 51.2754 44.8375 54.8066C41.4698 58.6334 35.8722 59.8096 31.4753 57.2301L27.3853 54.8306C25.351 53.6372 24.7816 50.948 26.2267 49.084C32.8529 40.5375 40.5375 32.8529 49.084 26.2267C50.948 24.7816 53.6372 25.351 54.8306 27.3853L57.2301 31.4753Z" fill="#FF5487"/>
</svg>