<svg viewBox="0 0 256 256" fill="none" 
    xmlns="http://www.w3.org/2000/svg">
    <path d="M191.896 192.147C183.512 200.533 173.529 207.143 162.542 211.584C151.555 216.025 139.789 218.207 127.943 217.999C116.171 218.231 104.475 216.056 93.571 211.607C82.6665 207.158 72.782 200.529 64.5213 192.125C56.0662 183.878 49.3975 173.975 44.9308 163.033C40.464 152.091 38.2951 140.345 38.5591 128.526C38.5591 102.667 47.2279 81.1198 64.5656 63.8851C72.8315 55.4829 82.7206 48.857 93.6288 44.4121C104.537 39.9672 116.235 37.7967 128.009 38.0331C139.853 37.8321 151.616 40.0191 162.599 44.4641C173.581 48.9091 183.56 55.5212 191.94 63.9073C209.662 81.1568 218.522 102.711 218.522 128.571C218.746 140.441 216.494 152.227 211.909 163.174C207.324 174.122 200.507 183.99 191.896 192.147Z" fill="#49BC98"/>
    <path d="M159.397 95.5777L133.66 76.5872L132.361 76.6885C131.742 77.4613 131.243 78.322 130.879 79.2422C128.604 89.045 126.378 98.8727 124.154 108.696L124.153 108.702L124.148 108.724C123.537 111.423 122.926 114.121 122.314 116.818C122.108 117.749 121.915 118.692 121.696 119.762L121.502 120.709C121.798 120.557 122.053 120.433 122.279 120.322C122.595 120.168 122.857 120.04 123.105 119.899L150.771 104.657C153.836 102.996 156.88 101.334 159.925 99.6312C160.231 99.4736 160.491 99.241 160.683 98.9552C160.874 98.6693 160.989 98.3397 161.017 97.9972C161.046 97.6547 160.986 97.3106 160.845 96.9972C160.704 96.6839 160.485 96.4116 160.209 96.206L159.397 95.5777Z" fill="white"/>
    <path d="M96.2723 97.726C94.6345 98.836 93.3575 100.4 92.5985 102.225L92.5376 154.698C93.2616 156.025 94.1479 157.257 95.1763 158.366C100.976 163.135 106.844 167.848 112.703 172.554L112.707 172.557C114.741 174.191 116.774 175.824 118.802 177.458C119.574 178.086 120.406 178.552 121.38 177.944C121.791 177.663 122.096 177.254 122.247 176.78C122.397 176.306 122.385 175.796 122.212 175.33C119.141 160.318 116.103 145.294 113.099 130.255C112.865 129.098 112.865 127.906 113.099 126.749C116.143 111.765 119.222 96.7938 122.334 81.8364C122.557 80.742 122.537 79.7286 121.482 79.1206C120.426 78.5126 119.594 79.1003 118.802 79.7489C116.69 81.4367 114.578 83.1261 112.467 84.8152C107.075 89.1302 101.684 93.4438 96.2723 97.726Z" fill="white"/>
    <path d="M132.178 179.444C131.576 178.709 131.083 177.889 130.717 177.012C128.345 166.569 126.023 156.1 123.702 145.636C123.063 142.758 122.425 139.881 121.786 137.004C121.786 136.708 121.723 136.412 121.646 136.045C121.606 135.859 121.563 135.655 121.522 135.424C121.714 135.516 121.886 135.597 122.045 135.672C122.407 135.842 122.695 135.978 122.963 136.133L159.377 156.258C161.63 157.515 161.711 158.873 159.58 160.312L133.66 179.161L133.477 179.343L132.178 179.444Z" fill="white"/>
    <path d="M127.896 124.459L122.639 127.438L123.998 128.269L148.031 141.788L161.163 149.327C162.421 150.036 163.578 149.915 164.126 148.962C164.428 148.331 164.567 147.634 164.532 146.935V108.427C164.532 105.631 163.193 104.86 160.757 106.218L127.896 124.459Z" fill="white"/>
    <path d="M238 128C238 188.751 188.751 238 128 238C67.2487 238 18 188.751 18 128C18 112.832 21.07 98.381 26.6226 85.2346C27.4168 83.3542 26.747 81.1572 24.9973 80.1058L20.0891 77.1565C16.0501 74.7294 10.7769 76.2959 9.03376 80.6739C3.20489 95.3134 0 111.282 0 128C0 198.692 57.3076 256 128 256C198.692 256 256 198.692 256 128C256 57.3076 198.692 0 128 0C112.361 0 97.3777 2.80456 83.5247 7.93816C79.1057 9.57571 77.4136 14.8104 79.7439 18.9065L82.5752 23.8835C83.5845 25.6576 85.7646 26.3797 87.6634 25.6309C100.153 20.7057 113.76 18 128 18C188.751 18 238 67.2487 238 128Z" fill="#FF5487"/>
    <path d="M56.4692 44.431C60.3403 41.1144 61.5908 35.5331 59.0702 31.1024L56.7252 26.9804C55.5589 24.9303 52.8774 24.3251 50.9944 25.7454C42.2623 32.3318 34.4006 40.0108 27.6126 48.5791C26.148 50.4278 26.6892 53.1228 28.7108 54.3375L32.7749 56.7797C37.1445 59.4054 42.7544 58.288 46.1621 54.4965C49.3748 50.9219 52.8183 47.5589 56.4692 44.431Z" fill="#FF5487"/>
</svg>