<svg viewBox="0 0 256 256" fill="none" 
    xmlns="http://www.w3.org/2000/svg">
    <path d="M191.896 192.147C183.512 200.533 173.529 207.143 162.542 211.584C151.555 216.025 139.789 218.207 127.943 217.999C116.171 218.231 104.475 216.056 93.571 211.607C82.6665 207.158 72.782 200.529 64.5213 192.125C56.0662 183.878 49.3975 173.975 44.9308 163.033C40.464 152.091 38.2951 140.345 38.5591 128.526C38.5591 102.667 47.2279 81.1198 64.5656 63.8851C72.8315 55.4829 82.7206 48.857 93.6288 44.4121C104.537 39.9672 116.235 37.7967 128.009 38.0331C139.853 37.8321 151.616 40.0191 162.599 44.4641C173.581 48.9091 183.56 55.5212 191.94 63.9073C209.662 81.1568 218.522 102.711 218.522 128.571C218.746 140.441 216.494 152.227 211.909 163.174C207.324 174.122 200.507 183.99 191.896 192.147Z" fill="#2A5ADA"/>
    <path fill-rule="evenodd" clip-rule="evenodd" d="M128.538 72.3936L177.395 100.894V157.709L128.538 186.209L79.6805 157.709V100.894L128.538 72.3936ZM100.252 112.709V145.894L128.538 162.394L156.823 145.894V112.709L128.538 96.2092L100.252 112.709Z" fill="white"/>
    <path d="M238 128C238 188.751 188.751 238 128 238C67.2487 238 18 188.751 18 128C18 112.832 21.07 98.381 26.6226 85.2346C27.4168 83.3542 26.747 81.1572 24.9973 80.1058L20.0891 77.1565C16.0501 74.7294 10.7769 76.2959 9.03376 80.6739C3.20489 95.3134 0 111.282 0 128C0 198.692 57.3076 256 128 256C198.692 256 256 198.692 256 128C256 57.3076 198.692 0 128 0C112.361 0 97.3777 2.80456 83.5247 7.93816C79.1057 9.57571 77.4136 14.8104 79.7439 18.9065L82.5752 23.8835C83.5845 25.6576 85.7646 26.3797 87.6634 25.6309C100.153 20.7057 113.76 18 128 18C188.751 18 238 67.2487 238 128Z" fill="#FF5487"/>
    <path d="M56.4692 44.431C60.3403 41.1144 61.5908 35.5331 59.0702 31.1024L56.7252 26.9804C55.5589 24.9303 52.8774 24.3251 50.9944 25.7454C42.2623 32.3318 34.4006 40.0108 27.6126 48.5791C26.148 50.4278 26.6892 53.1228 28.7108 54.3375L32.7749 56.7797C37.1445 59.4054 42.7544 58.288 46.1621 54.4965C49.3748 50.9219 52.8183 47.5589 56.4692 44.431Z" fill="#FF5487"/>
</svg>