<svg viewBox="0 0 256 256" fill="none" 
    xmlns="http://www.w3.org/2000/svg">
    <path d="M83.8058 12.5072C83.1809 10.2341 80.733 8.98669 78.5588 9.89798C68.2122 14.2345 58.5559 19.8911 49.8005 26.6569C47.9359 28.0978 47.8112 30.8406 49.4774 32.5068L52.8234 35.8529C56.4318 39.4613 62.1524 39.7303 66.3771 36.868C70.4803 34.088 74.7813 31.5779 79.2545 29.363C83.8246 27.1002 86.4147 21.9976 85.063 17.0804L83.8058 12.5072Z" fill="#FF5487"/>
    <path d="M15.9979 109.152C17.9611 109.701 19.1895 111.637 18.9264 113.659C18.3152 118.353 18 123.14 18 128C18 188.751 67.2487 238 128 238C188.751 238 238 188.751 238 128C238 67.2487 188.751 18 128 18C123.301 18 118.671 18.2946 114.128 18.8664C112.105 19.1209 110.174 17.8841 109.634 15.9186L108.701 12.526C107.138 6.83918 110.813 1.00744 116.688 0.492981C120.415 0.166622 124.188 0 128 0C198.692 0 256 57.3076 256 128C256 198.692 198.692 256 128 256C57.3076 256 0 198.692 0 128C0 124.001 0.183376 120.045 0.542174 116.14C1.08176 110.267 6.9292 106.617 12.6092 108.205L15.9979 109.152Z" fill="#FF5487"/>
    <path d="M35.8529 52.8234C39.4613 56.4319 39.7303 62.1524 36.868 66.3772C34.1758 70.3509 31.7366 74.51 29.5736 78.8315C27.2911 83.3917 22.1776 85.9597 17.2663 84.5869L12.6984 83.3101C10.4279 82.6754 9.19107 80.2221 10.1118 78.0517C14.4198 67.8966 20.0017 58.4127 26.6569 49.8005C28.0978 47.9359 30.8406 47.8112 32.5068 49.4774L35.8529 52.8234Z" fill="#FF5487"/>
    <path d="M190.896 192.147C182.512 200.533 172.529 207.143 161.542 211.584C150.555 216.025 138.789 218.207 126.943 217.999C115.171 218.231 103.475 216.056 92.571 211.607C81.6665 207.158 71.782 200.529 63.5213 192.125C55.0662 183.878 48.3975 173.975 43.9308 163.033C39.464 152.091 37.2951 140.345 37.5591 128.526C37.5591 102.667 46.2279 81.1198 63.5656 63.8851C71.8315 55.4829 81.7206 48.857 92.6288 44.4121C103.537 39.9672 115.235 37.7967 127.009 38.0331C138.853 37.8321 150.616 40.0191 161.599 44.4641C172.581 48.9091 182.56 55.5212 190.94 63.9073C208.662 81.1568 217.522 102.711 217.522 128.571C217.746 140.441 215.494 152.227 210.909 163.174C206.324 174.122 199.507 183.99 190.896 192.147Z" fill="#2A5ADA"/>
    <path fill-rule="evenodd" clip-rule="evenodd" d="M127.538 72.3936L176.395 100.894V157.709L127.538 186.209L78.6805 157.709V100.894L127.538 72.3936ZM99.2519 112.709V145.894L127.538 162.394L155.823 145.894V112.709L127.538 96.2092L99.2519 112.709Z" fill="white"/>
</svg>