<svg viewBox="0 0 256 256" fill="none" 
    xmlns="http://www.w3.org/2000/svg">
    <path fill-rule="evenodd" clip-rule="evenodd" d="M185.45 186.147L185.524 186.077C193.358 178.667 199.561 169.7 203.734 159.75C207.907 149.8 209.958 139.086 209.754 128.296L209.753 128.206L209.753 128.115C209.862 104.245 201.823 84.7247 185.665 68.9932L185.622 68.9513L185.579 68.9087C177.942 61.2379 168.841 55.1853 158.818 51.1113C148.795 47.0372 138.057 45.025 127.241 45.1944L127.097 45.1966L126.953 45.1935C116.221 44.9609 105.554 46.9221 95.6041 50.9572C85.6543 54.9923 76.6304 61.0168 69.0843 68.6628L69.0518 68.6957L69.0189 68.7283C53.1644 84.4118 45.1969 103.929 45.1969 127.84V127.854C45.1561 151.015 53.0169 170.231 68.8206 185.999L68.8518 186.03L68.8827 186.061C76.3981 193.733 85.3972 199.788 95.3293 203.858C105.261 207.928 115.918 209.926 126.648 209.732L126.792 209.729L126.936 209.732C137.754 209.939 148.503 207.964 158.543 203.925C168.584 199.885 177.71 193.864 185.378 186.219L185.45 186.147ZM126.788 217.445C138.642 217.672 150.421 215.508 161.423 211.081C172.424 206.655 182.423 200.058 190.824 191.682C199.44 183.533 206.26 173.673 210.848 162.733C215.436 151.793 217.691 140.014 217.467 128.151C217.586 102.292 208.778 80.7299 191.046 63.4659C182.678 55.0612 172.706 48.4291 161.723 43.9648C150.74 39.5005 138.972 37.2955 127.12 37.481C115.338 37.2257 103.628 39.3787 92.705 43.8084C81.7822 48.2381 71.8766 54.8514 63.5937 63.244C46.1863 80.4637 37.4827 101.996 37.4827 127.84C37.4383 152.989 46.0681 174.196 63.3721 191.46C71.6217 199.881 81.5005 206.529 92.4044 210.996C103.308 215.464 115.008 217.658 126.788 217.445Z" fill="#282237"/>
    <path d="M173.131 77.3959C147.296 53.7602 107.7 53.7602 81.8649 77.3959L76.9768 72.6171C105.484 46.3133 149.401 46.3133 177.908 72.6171L173.131 77.3959Z" fill="#282237"/>
    <path d="M177.558 81.7599L182.335 76.9811V76.8696C208.627 105.389 208.627 149.327 182.335 177.845L177.558 173.066C201.182 147.219 201.182 107.607 177.558 81.7599Z" fill="#282237"/>
    <path d="M77.4071 173.114C53.8119 147.273 53.8119 107.696 77.4071 81.8556L72.6304 77.0768C46.3379 105.596 46.3379 149.532 72.6304 178.052L77.4071 173.114Z" fill="#282237"/>
    <path d="M81.8171 177.526C107.653 201.161 147.248 201.161 173.084 177.526L177.972 182.304C149.464 208.608 105.548 208.608 77.0404 182.304L81.8171 177.526Z" fill="#282237"/>
    <path fill-rule="evenodd" clip-rule="evenodd" d="M142.563 113.486C142.563 123.179 127.433 122 122.626 122V104.924C127.433 104.924 142.563 103.405 142.563 113.486ZM146.515 139.997C146.515 150.595 128.385 149.384 122.61 149.384V130.579C128.385 130.595 146.515 128.931 146.515 139.997ZM158.451 109.657C157.483 99.5439 148.773 96.1512 137.756 95.1172V81.175H129.24V94.8426C126.998 94.8426 124.707 94.8426 122.433 94.9234V81.175H113.965V95.198H108.545H96.706V104.326C96.706 104.326 102.997 104.213 102.9 104.326C105.258 104.066 107.397 105.723 107.739 108.074V146.476C107.635 148.141 106.205 149.406 104.542 149.305C104.532 149.305 104.522 149.305 104.513 149.303C104.626 149.4 98.319 149.303 98.319 149.303L96.6253 159.497H107.723H113.82V173.746H122.336V159.707H129.143V173.682H137.675V159.594C152.063 158.722 162.096 155.168 163.354 141.678C164.37 130.821 159.273 125.974 151.128 124.02C156.079 121.499 159.193 117.057 158.451 109.657Z" fill="#282237"/>
    <path d="M115.445 4.38916C115.445 2.03377 113.419 0.182829 111.082 0.480954C99.2412 1.99183 87.9057 5.12055 77.3043 9.63845C75.1368 10.5622 74.3249 13.1848 75.5172 15.217L77.914 19.3025C80.4962 23.7039 85.9638 25.4059 90.775 23.7053C95.8786 21.9012 101.155 20.4632 106.573 19.4225C111.586 18.4595 115.445 14.2235 115.445 9.11817V4.38916Z" fill="#FF5487"/>
    <path d="M14.5024 139.445C16.5446 139.445 18.2514 140.989 18.5378 143.011C26.0992 196.391 71.9777 237.445 127.445 237.445C188.196 237.445 237.445 188.196 237.445 127.445C237.445 71.9777 196.391 26.0991 143.011 18.5378C140.989 18.2514 139.445 16.5446 139.445 14.5024V10.9729C139.445 5.08442 144.524 0.437403 150.318 1.48279C210.097 12.2666 255.445 64.56 255.445 127.445C255.445 198.137 198.137 255.445 127.445 255.445C64.56 255.445 12.2666 210.097 1.48279 150.318C0.437402 144.523 5.08442 139.445 10.9729 139.445H14.5024Z" fill="#FF5487"/>
    <path d="M19.3025 77.914C23.7039 80.4961 25.4059 85.9638 23.7053 90.775C21.9012 95.8785 20.4632 101.155 19.4225 106.573C18.4595 111.586 14.2235 115.445 9.11817 115.445H4.38916C2.03377 115.445 0.182829 113.419 0.480954 111.082C1.99184 99.2412 5.12056 87.9057 9.63846 77.3043C10.5622 75.1367 13.1848 74.3249 15.217 75.5172L19.3025 77.914Z" fill="#FF5487"/>
    <path d="M57.2301 31.4753C59.8096 35.8722 58.6334 41.4698 54.8065 44.8375C51.2754 47.945 47.945 51.2754 44.8375 54.8066C41.4698 58.6334 35.8722 59.8096 31.4753 57.2301L27.3853 54.8306C25.351 53.6372 24.7816 50.948 26.2267 49.084C32.8529 40.5375 40.5375 32.8529 49.084 26.2267C50.948 24.7816 53.6372 25.351 54.8306 27.3853L57.2301 31.4753Z" fill="#FF5487"/>
</svg>