<svg viewBox="0 0 256 256" fill="none" 
    xmlns="http://www.w3.org/2000/svg">
    <path fill-rule="evenodd" clip-rule="evenodd" d="M136.949 10.8708C136.129 15.0882 132.296 18 128 18C122.839 18 117.761 18.3554 112.789 19.0431C107.716 19.7448 102.687 16.955 101.058 12.0998L99.5627 7.64118C98.8153 5.41317 100.14 3.01847 102.443 2.55177C110.701 0.878372 119.248 0 128 0C130.189 0 132.366 0.0549658 134.528 0.163593C136.904 0.282934 138.576 2.50078 138.122 4.83572L136.949 10.8708ZM76.8636 15.4375C76.111 13.1937 73.5825 12.0857 71.4599 13.1325C62.0531 17.7716 53.2985 23.5321 45.3708 30.2395C43.5681 31.7647 43.5693 34.5173 45.3163 36.1059L48.8349 39.3056C52.6004 42.7298 58.3092 42.7373 62.3922 39.6987C65.8833 37.1006 69.5337 34.7046 73.3262 32.5281C77.7272 30.0023 80.0001 24.7879 78.3864 19.977L76.8636 15.4375ZM59.0636 213.724C57.5098 212.473 55.2752 212.481 53.7785 213.8L51.228 216.047C46.7297 220.011 46.6921 227.044 51.4963 230.631C72.8382 246.566 99.3174 256 128 256C198.692 256 256 198.692 256 128C256 73.1059 221.445 26.2828 172.899 8.0962C167.429 6.04663 161.637 9.64034 160.523 15.3752L159.838 18.8992C159.444 20.9241 160.659 22.9091 162.618 23.5578C206.408 38.0647 238 79.343 238 128C238 188.751 188.751 238 128 238C101.901 238 77.9241 228.91 59.0636 213.724ZM10.104 111.589C15.1124 112.752 18.3728 117.525 18.1273 122.661C18.0428 124.43 18 126.21 18 128C18 130.91 18.113 133.793 18.3348 136.646C18.7246 141.659 15.7523 146.437 10.9275 147.854L6.25453 149.226C3.96773 149.898 1.59959 148.433 1.26607 146.073C0.431593 140.169 0 134.135 0 128C0 123.224 0.261589 118.509 0.771221 113.868C1.02699 111.54 3.27963 110.004 5.56174 110.534L10.104 111.589ZM34.2169 70.4834C36.8959 66.1245 36.364 60.4045 32.5788 56.9624L29.095 53.7944C27.3552 52.2123 24.6279 52.4622 23.2739 54.3848C17.2765 62.9012 12.2916 72.182 8.49426 82.0521C7.64198 84.2674 8.9853 86.6903 11.2973 87.2273L15.9973 88.319C20.9209 89.4626 25.8786 86.7285 27.9885 82.1353C29.8353 78.1149 31.9173 74.2251 34.2169 70.4834ZM29.3111 177.812C26.8258 173.311 21.5465 170.958 16.6723 172.595L12.2518 174.08C10.0309 174.826 8.91869 177.315 9.92269 179.432C11.9232 183.65 14.174 187.801 16.6796 191.867C19.898 197.09 23.431 202.001 27.239 206.59C28.7609 208.424 31.5452 208.428 33.1398 206.657L36.3983 203.037C39.7626 199.3 39.7865 193.673 36.8246 189.609C35.1392 187.297 33.5303 184.902 32.0038 182.424C31.0647 180.9 30.1673 179.362 29.3111 177.812Z" fill="#FF5487"/>
    <path fill-rule="evenodd" clip-rule="evenodd" d="M185.967 186.686L186.041 186.616C193.876 179.206 200.078 170.239 204.251 160.289C208.424 150.339 210.475 139.625 210.272 128.835L210.27 128.745V128.654C210.379 104.784 202.34 85.2639 186.182 69.5325L186.139 69.4906L186.096 69.448C178.459 61.7771 169.358 55.7246 159.335 51.6505C149.313 47.5765 138.574 45.5643 127.758 45.7336L127.614 45.7359L127.47 45.7327C116.738 45.5002 106.071 47.4613 96.1217 51.4964C86.1718 55.5316 77.1479 61.556 69.6019 69.202L69.5693 69.235L69.5364 69.2675C53.682 84.9511 45.7145 104.468 45.7145 128.379V128.393C45.6736 151.554 53.5344 170.77 69.3381 186.538L69.3694 186.569L69.4002 186.6C76.9156 194.272 85.9147 200.327 95.8468 204.397C105.779 208.467 116.435 210.465 127.165 210.271L127.309 210.268L127.453 210.271C138.271 210.478 149.02 208.503 159.061 204.464C169.101 200.424 178.227 194.403 185.895 186.758L185.967 186.686ZM127.305 217.984C139.159 218.211 150.938 216.047 161.94 211.62C172.941 207.194 182.94 200.597 191.341 192.221C199.957 184.072 206.777 174.212 211.365 163.272C215.953 152.332 218.208 140.553 217.984 128.69C218.103 102.831 209.296 81.2692 191.563 64.0051C183.195 55.6005 173.223 48.9684 162.24 44.5041C151.257 40.0398 139.489 37.8347 127.637 38.0203C115.855 37.765 104.145 39.918 93.2225 44.3476C82.2997 48.7773 72.3941 55.3906 64.1112 63.7832C46.7039 81.0029 38.0002 102.535 38.0002 128.379C37.9558 153.528 46.5856 174.735 63.8896 191.999C72.1392 200.42 82.018 207.068 92.9219 211.535C103.825 216.003 115.525 218.197 127.305 217.984Z" fill="#282237"/>
    <path d="M173.649 77.9351C147.813 54.2994 108.218 54.2994 82.3825 77.9351L77.4943 73.1564C106.001 46.8526 149.918 46.8526 178.425 73.1564L173.649 77.9351Z" fill="#282237"/>
    <path d="M178.075 82.2991L182.852 77.5204V77.4089C209.144 105.928 209.144 149.866 182.852 178.384L178.075 173.605C201.699 147.758 201.699 108.146 178.075 82.2991Z" fill="#282237"/>
    <path d="M77.9246 173.653C54.3294 147.812 54.3294 108.235 77.9246 82.3948L73.1479 77.6161C46.8555 106.135 46.8555 150.071 73.1479 178.591L77.9246 173.653Z" fill="#282237"/>
    <path d="M82.3346 178.065C108.17 201.7 147.765 201.7 173.601 178.065L178.489 182.843C149.982 209.147 106.065 209.147 77.5579 182.843L82.3346 178.065Z" fill="#282237"/>
    <path fill-rule="evenodd" clip-rule="evenodd" d="M143.08 114.025C143.08 123.719 127.95 122.539 123.144 122.539V105.463C127.95 105.463 143.08 103.944 143.08 114.025ZM147.032 140.536C147.032 151.135 128.902 149.923 123.127 149.923V131.118C128.902 131.134 147.032 129.47 147.032 140.536ZM158.968 110.196C158 100.083 149.29 96.6905 138.273 95.6565V81.7142H129.757V95.3819C127.515 95.3819 125.224 95.3819 122.95 95.4626V81.7142H114.482V95.7373H109.062H97.2235V104.865C97.2235 104.865 103.514 104.752 103.417 104.865C105.775 104.605 107.914 106.262 108.256 108.613V147.015C108.153 148.68 106.722 149.945 105.059 149.844C105.049 149.844 105.04 149.844 105.03 149.842C105.143 149.939 98.8365 149.842 98.8365 149.842L97.1429 160.036H108.24H114.337V174.285H122.853V160.246H129.66V174.221H138.193V160.133C152.58 159.261 162.613 155.707 163.871 142.217C164.887 131.36 159.79 126.513 151.645 124.559C156.597 122.038 159.71 117.596 158.968 110.196Z" fill="#282237"/>
</svg>
