<svg viewBox="0 0 256 256" fill="none" 
    xmlns="http://www.w3.org/2000/svg">
    <path fill-rule="evenodd" clip-rule="evenodd" d="M186.505 186.702L186.579 186.632C194.414 179.222 200.616 170.255 204.789 160.305C208.962 150.355 211.013 139.641 210.81 128.851L210.808 128.761L210.808 128.67C210.917 104.8 202.878 85.2797 186.72 69.5483L186.677 69.5064L186.634 69.4638C178.997 61.7929 169.896 55.7404 159.873 51.6663C149.851 47.5923 139.112 45.5801 128.296 45.7494L128.152 45.7517L128.008 45.7485C117.276 45.516 106.609 47.4771 96.6593 51.5122C86.7094 55.5474 77.6855 61.5718 70.1395 69.2178L70.1069 69.2508L70.074 69.2833C54.2196 84.9669 46.2521 104.484 46.2521 128.395V128.409C46.2112 151.57 54.072 170.786 69.8757 186.554L69.907 186.585L69.9378 186.616C77.4532 194.288 86.4523 200.343 96.3844 204.413C106.317 208.483 116.973 210.481 127.703 210.287L127.847 210.284L127.991 210.287C138.809 210.494 149.558 208.519 159.599 204.48C169.639 200.44 178.765 194.419 186.433 186.774L186.505 186.702ZM127.843 218C139.697 218.227 151.476 216.063 162.478 211.636C173.479 207.21 183.478 200.613 191.879 192.237C200.495 184.088 207.315 174.228 211.903 163.288C216.491 152.348 218.746 140.569 218.522 128.706C218.641 102.847 209.834 81.285 192.101 64.0209C183.733 55.6163 173.761 48.9842 162.778 44.5199C151.795 40.0556 140.027 37.8505 128.175 38.0361C116.393 37.7808 104.683 39.9338 93.7601 44.3634C82.8373 48.7931 72.9317 55.4064 64.6488 63.799C47.2415 81.0187 38.5378 102.551 38.5378 128.395C38.4934 153.544 47.1232 174.751 64.4272 192.015C72.6768 200.436 82.5556 207.084 93.4595 211.551C104.363 216.019 116.063 218.213 127.843 218Z" fill="#282237"/>
    <path d="M174.187 77.9509C148.351 54.3152 108.756 54.3152 82.9201 77.9509L78.0319 73.1722C106.539 46.8684 150.456 46.8684 178.963 73.1722L174.187 77.9509Z" fill="#282237"/>
    <path d="M178.613 82.3149L183.39 77.5362V77.4247C209.682 105.944 209.682 149.882 183.39 178.4L178.613 173.621C202.237 147.774 202.237 108.162 178.613 82.3149Z" fill="#282237"/>
    <path d="M78.4622 173.669C54.867 147.828 54.867 108.251 78.4622 82.4106L73.6855 77.6319C47.3931 106.151 47.3931 150.087 73.6855 178.607L78.4622 173.669Z" fill="#282237"/>
    <path d="M82.8722 178.081C108.708 201.716 148.303 201.716 174.139 178.081L179.027 182.859C150.52 209.163 106.603 209.163 78.0955 182.859L82.8722 178.081Z" fill="#282237"/>
    <path fill-rule="evenodd" clip-rule="evenodd" d="M143.618 114.041C143.618 123.735 128.488 122.555 123.682 122.555V105.479C128.488 105.479 143.618 103.96 143.618 114.041ZM147.57 140.552C147.57 151.151 129.44 149.939 123.665 149.939V131.134C129.44 131.15 147.57 129.486 147.57 140.552ZM159.506 110.212C158.538 100.099 149.828 96.7063 138.811 95.6723V81.73H130.295V95.3977C128.053 95.3977 125.762 95.3977 123.488 95.4784V81.73H115.02V95.7531H109.6H97.7611V104.881C97.7611 104.881 104.052 104.768 103.955 104.881C106.313 104.621 108.452 106.278 108.794 108.629V147.031C108.691 148.696 107.26 149.961 105.597 149.86C105.587 149.86 105.578 149.86 105.568 149.858C105.681 149.955 99.3741 149.858 99.3741 149.858L97.6805 160.052H108.778H114.875V174.301H123.391V160.262H130.198V174.237H138.731V160.149C153.118 159.277 163.151 155.723 164.409 142.233C165.425 131.376 160.328 126.529 152.183 124.575C157.135 122.054 160.248 117.612 159.506 110.212Z" fill="#282237"/>
    <path d="M238 128C238 188.751 188.751 238 128 238C67.2487 238 18 188.751 18 128C18 112.832 21.07 98.381 26.6226 85.2346C27.4168 83.3542 26.747 81.1572 24.9973 80.1058L20.0891 77.1565C16.0501 74.7294 10.7769 76.2959 9.03376 80.6739C3.20489 95.3134 0 111.282 0 128C0 198.692 57.3076 256 128 256C198.692 256 256 198.692 256 128C256 57.3076 198.692 0 128 0C112.361 0 97.3777 2.80456 83.5247 7.93816C79.1057 9.57571 77.4136 14.8104 79.7439 18.9065L82.5752 23.8835C83.5845 25.6576 85.7646 26.3797 87.6634 25.6309C100.153 20.7057 113.76 18 128 18C188.751 18 238 67.2487 238 128Z" fill="#FF5487"/>
    <path d="M56.4692 44.431C60.3403 41.1144 61.5908 35.5331 59.0702 31.1024L56.7252 26.9804C55.5589 24.9303 52.8774 24.3251 50.9944 25.7454C42.2623 32.3318 34.4006 40.0108 27.6126 48.5791C26.148 50.4278 26.6892 53.1228 28.7108 54.3375L32.7749 56.7797C37.1445 59.4054 42.7544 58.288 46.1621 54.4965C49.3748 50.9219 52.8183 47.5589 56.4692 44.431Z" fill="#FF5487"/>
</svg>