<svg viewBox="0 0 256 256" fill="none" 
    xmlns="http://www.w3.org/2000/svg">
    <path d="M191.879 192.237C183.478 200.613 173.479 207.21 162.478 211.636C151.476 216.063 139.697 218.227 127.843 218C116.063 218.213 104.363 216.019 93.4595 211.551C82.5556 207.084 72.6768 200.436 64.4272 192.015C47.1232 174.751 38.4934 153.544 38.5378 128.395C38.5378 102.551 47.2415 81.0187 64.6488 63.799C72.9317 55.4064 82.8373 48.7931 93.7601 44.3634C104.683 39.9338 116.393 37.7808 128.175 38.0361C140.027 37.8505 151.795 40.0556 162.778 44.5199C173.761 48.9842 183.733 55.6163 192.101 64.0209C209.834 81.285 218.641 102.847 218.522 128.706C218.746 140.569 216.491 152.348 211.903 163.288C207.315 174.228 200.495 184.088 191.879 192.237Z" fill="#000004"/>
    <path d="M95.3875 107.444C94.6319 106.415 93.8881 105.403 93.1535 104.403C91.0163 101.495 88.9554 98.6909 86.9068 95.8653C86.2423 94.9538 85.5958 94.0284 84.9503 93.1044C84.2292 92.0723 83.5091 91.0415 82.7669 90.0342C82.6053 89.8901 82.4756 89.7117 82.3867 89.5112C82.2979 89.3106 82.2519 89.0927 82.2519 88.8722C82.2519 88.6517 82.2979 88.4337 82.3867 88.2332C82.4756 88.0327 82.6053 87.8543 82.7669 87.7101C91.3064 77.7943 102.632 70.8805 115.162 67.9344C123.462 65.9319 132.079 65.7692 140.444 67.4572C146.732 68.7208 152.792 70.9818 158.41 74.1597C158.757 74.4113 159.086 74.6887 159.395 74.9898L158.938 75.334C156.575 77.1161 154.325 78.8121 152.06 80.4888C149.164 82.6226 146.265 84.7524 143.367 86.8807L143.364 86.8832C136.852 91.6672 130.35 96.4435 123.924 101.24C122.638 102.194 121.915 102.194 120.749 100.97C119.573 99.6918 118.344 98.4629 117.114 97.2326C115.948 96.0661 114.78 94.8983 113.655 93.6864C113.313 93.226 112.808 92.924 112.251 92.8462C111.694 92.7685 111.129 92.9213 110.681 93.2714C105.35 96.1939 100.711 100.297 97.0957 105.286C96.8852 105.556 96.6783 105.814 96.4556 106.092C96.147 106.478 95.8076 106.902 95.3875 107.444Z" fill="white"/>
    <path d="M104.405 164.068L104.414 164.061L104.465 164.024C105.623 163.183 106.789 162.336 107.966 161.482C107.624 161.202 107.356 160.978 107.126 160.785C106.841 160.547 106.614 160.357 106.374 160.166C101.31 156.543 97.1113 151.887 94.0668 146.52C93.8401 146.255 93.6713 145.947 93.5711 145.615C93.4708 145.283 93.441 144.935 93.4837 144.591C93.5263 144.248 93.6404 143.917 93.819 143.618C93.9975 143.319 94.2367 143.06 94.5218 142.855C95.8859 141.603 97.1852 140.292 98.4831 138.983C99.7239 137.731 100.964 136.48 102.257 135.283C102.521 135.111 102.741 134.883 102.9 134.615C103.059 134.347 103.153 134.047 103.175 133.738C103.197 133.429 103.146 133.12 103.026 132.833C102.907 132.546 102.722 132.29 102.485 132.084C97.0678 125.192 91.6927 118.269 86.3221 111.352C84.1672 108.576 82.013 105.801 79.8571 103.03C79.2037 102.219 78.5421 101.369 77.8632 100.495C77.0163 99.4062 76.1424 98.2824 75.224 97.1586C75.0089 97.5406 74.8184 97.8686 74.6466 98.1645C74.3721 98.6371 74.1451 99.0278 73.9416 99.4262C69.7967 107.267 67.3997 115.879 66.9091 124.694C66.4737 132.7 67.6979 140.71 70.5081 148.241C74.0114 158.071 80.0454 166.851 88.0271 173.732C88.3315 173.984 88.6937 174.159 89.0829 174.244C89.472 174.329 89.8763 174.32 90.261 174.217C94.9745 170.92 99.6214 167.543 104.405 164.068Z" fill="white"/>
    <path d="M111.561 170.356C106.951 173.881 102.332 177.413 97.6804 180.981C97.9547 181.261 98.251 181.517 98.5663 181.747C106.657 186.377 115.658 189.069 124.9 189.623C132.467 190.089 140.051 189.033 147.227 186.514C157.571 183.053 166.848 176.848 174.124 168.525C174.331 168.359 174.501 168.148 174.621 167.908C174.742 167.668 174.81 167.404 174.822 167.134C174.833 166.864 174.787 166.594 174.688 166.344C174.588 166.094 174.437 165.869 174.244 165.685C173.329 164.423 172.431 163.152 171.526 161.872C170.441 160.337 169.346 158.789 168.205 157.23C166.387 154.747 164.555 152.296 162.655 149.755L161.782 148.587C161.609 148.809 161.454 149.001 161.314 149.176C161.048 149.506 160.832 149.774 160.635 150.059C157.021 155.219 152.32 159.47 146.884 162.494C146.612 162.712 146.299 162.87 145.964 162.959C145.63 163.048 145.282 163.066 144.941 163.012C144.6 162.957 144.273 162.832 143.981 162.643C143.688 162.454 143.436 162.206 143.24 161.913C141.25 159.747 139.149 157.643 137.029 155.52L137.027 155.518C136.146 154.636 135.263 153.751 134.382 152.857C126.737 158.752 119.163 164.544 111.561 170.356Z" fill="white"/>
    <path d="M152.937 92.1419C151.68 93.0811 150.407 94.0321 149.109 94.9987L151.093 96.5011C156.13 100.177 160.273 104.907 163.223 110.348C163.593 110.83 163.758 111.435 163.681 112.035C163.603 112.634 163.291 113.18 162.809 113.556C160.433 115.789 157.995 118.327 155.928 120.52C154.903 121.608 154.279 121.986 154.194 122.461C154.108 122.943 154.576 123.524 155.742 125.048C162.754 134.157 169.739 143.253 176.696 152.335C177.671 153.613 178.66 154.87 179.656 156.135C180.368 157.04 181.084 157.95 181.8 158.873C181.945 158.745 182.074 158.65 182.178 158.574C182.355 158.444 182.461 158.366 182.461 158.264C187.089 149.963 189.732 140.735 190.189 131.281C190.501 124.609 189.648 117.935 187.668 111.546C184.329 100.202 177.754 90.0357 168.719 82.2482C167.872 81.5173 167.293 81.5985 166.426 82.2482C165.094 83.336 163.643 84.3386 162.16 85.3639C161.594 85.7548 161.024 86.149 160.454 86.5525C157.964 88.3873 155.483 90.2403 152.937 92.1419Z" fill="white"/>
    <path d="M238 128C238 188.751 188.751 238 128 238C67.2487 238 18 188.751 18 128C18 112.832 21.07 98.381 26.6226 85.2346C27.4168 83.3542 26.747 81.1572 24.9973 80.1058L20.0891 77.1565C16.0501 74.7294 10.7769 76.2959 9.03376 80.6739C3.20489 95.3134 0 111.282 0 128C0 198.692 57.3076 256 128 256C198.692 256 256 198.692 256 128C256 57.3076 198.692 0 128 0C112.361 0 97.3777 2.80456 83.5247 7.93816C79.1057 9.57571 77.4136 14.8104 79.7439 18.9065L82.5752 23.8835C83.5845 25.6576 85.7646 26.3797 87.6634 25.6309C100.153 20.7057 113.76 18 128 18C188.751 18 238 67.2487 238 128Z" fill="#FF5487"/>
    <path d="M56.4692 44.431C60.3403 41.1144 61.5908 35.5331 59.0702 31.1024L56.7252 26.9804C55.5589 24.9303 52.8774 24.3251 50.9944 25.7454C42.2623 32.3318 34.4006 40.0108 27.6126 48.5791C26.148 50.4278 26.6892 53.1228 28.7108 54.3375L32.7749 56.7797C37.1445 59.4054 42.7544 58.288 46.1621 54.4965C49.3748 50.9219 52.8183 47.5589 56.4692 44.431Z" fill="#FF5487"/>
</svg>