<svg viewBox="0 0 256 256" fill="none" 
    xmlns="http://www.w3.org/2000/svg">
    <path d="M191.258 192.318C182.857 200.694 172.858 207.292 161.857 211.718C150.855 216.144 139.076 218.308 127.222 218.081C115.442 218.295 103.742 216.101 92.8384 211.633C81.9345 207.165 72.0557 200.517 63.8061 192.096C46.5022 174.832 37.8723 153.626 37.9167 128.477C37.9167 102.632 46.6204 81.1003 64.0278 63.8806C72.3106 55.488 82.2162 48.8747 93.139 44.445C104.062 40.0153 115.772 37.8623 127.554 38.1176C139.406 37.9321 151.174 40.1371 162.157 44.6014C173.14 49.0657 183.112 55.6978 191.48 64.1025C209.212 81.3665 218.02 102.928 217.901 128.787C218.125 140.65 215.87 152.43 211.282 163.37C206.694 174.31 199.874 184.17 191.258 192.318Z" fill="#000004"/>
    <path d="M94.7664 107.526C94.0108 106.496 93.267 105.484 92.5324 104.485C90.3952 101.577 88.3343 98.7725 86.2857 95.9468C85.6212 95.0353 84.9747 94.1099 84.3292 93.186C83.6081 92.1538 82.888 91.1231 82.1458 90.1158C81.9842 89.9716 81.8545 89.7932 81.7657 89.5927C81.6768 89.3922 81.6308 89.1743 81.6308 88.9537C81.6308 88.7332 81.6768 88.5153 81.7657 88.3148C81.8545 88.1142 81.9842 87.9358 82.1458 87.7917C90.6853 77.8759 102.011 70.962 114.541 68.016C122.841 66.0134 131.458 65.8508 139.823 67.5387C146.11 68.8024 152.171 71.0633 157.789 74.2413C158.136 74.4929 158.465 74.7703 158.774 75.0713L158.317 75.4155C155.954 77.1977 153.704 78.8936 151.438 80.5703C148.543 82.7041 145.644 84.8339 142.746 86.9623L142.743 86.9647C136.23 91.7487 129.728 96.5251 123.303 101.321C122.017 102.276 121.294 102.276 120.128 101.052C118.952 99.7734 117.723 98.5444 116.493 97.3141C115.327 96.1477 114.159 94.9798 113.034 93.768C112.692 93.3075 112.187 93.0055 111.63 92.9278C111.073 92.85 110.508 93.0028 110.06 93.3529C104.729 96.2754 100.09 100.378 96.4746 105.368C96.2641 105.637 96.0572 105.896 95.8345 106.174C95.5259 106.56 95.1866 106.984 94.7664 107.526Z" fill="white"/>
    <path d="M103.784 164.15L103.793 164.143L103.844 164.106C105.002 163.264 106.168 162.417 107.345 161.564C107.003 161.283 106.735 161.059 106.505 160.867C106.22 160.629 105.992 160.438 105.752 160.248C100.689 156.625 96.4902 151.969 93.4457 146.602C93.219 146.336 93.0502 146.028 92.95 145.696C92.8497 145.365 92.8199 145.016 92.8626 144.673C92.9052 144.329 93.0193 143.998 93.1979 143.7C93.3764 143.401 93.6156 143.141 93.9007 142.937C95.2648 141.684 96.5641 140.374 97.8621 139.064C99.1028 137.813 100.342 136.562 101.636 135.365C101.9 135.193 102.119 134.964 102.278 134.697C102.437 134.429 102.532 134.129 102.554 133.82C102.576 133.511 102.525 133.201 102.405 132.914C102.286 132.628 102.1 132.371 101.864 132.166C96.4467 125.274 91.0716 118.35 85.7011 111.433C83.5461 108.658 81.3919 105.883 79.236 103.112C78.5826 102.301 77.921 101.45 77.2421 100.577C76.3952 99.4878 75.5213 98.364 74.6029 97.2402C74.3878 97.6222 74.1973 97.9501 74.0255 98.246C73.751 98.7186 73.524 99.1094 73.3205 99.5078C69.1756 107.348 66.7786 115.961 66.2881 124.776C65.8526 132.782 67.0769 140.792 69.887 148.323C73.3903 158.153 79.4243 166.932 87.406 173.813C87.7104 174.065 88.0727 174.241 88.4618 174.326C88.8509 174.41 89.2552 174.401 89.6399 174.299C94.3534 171.001 99.0003 167.625 103.784 164.15Z" fill="white"/>
    <path d="M110.94 170.438C106.33 173.962 101.711 177.494 97.0594 181.062C97.3336 181.342 97.6299 181.599 97.9452 181.829C106.036 186.459 115.037 189.151 124.278 189.704C131.846 190.17 139.43 189.114 146.605 186.596C156.95 183.134 166.226 176.93 173.502 168.606C173.71 168.44 173.88 168.23 174 167.99C174.121 167.75 174.189 167.485 174.2 167.215C174.212 166.945 174.166 166.676 174.067 166.426C173.967 166.176 173.816 165.951 173.623 165.767C172.708 164.504 171.809 163.233 170.905 161.954C169.82 160.419 168.725 158.871 167.583 157.311C165.766 154.829 163.934 152.378 162.034 149.836L161.161 148.669C160.987 148.891 160.833 149.083 160.692 149.257C160.427 149.587 160.211 149.856 160.014 150.14C156.4 155.3 151.699 159.551 146.263 162.575C145.991 162.793 145.678 162.952 145.343 163.041C145.009 163.13 144.661 163.148 144.32 163.093C143.979 163.039 143.652 162.913 143.359 162.725C143.067 162.536 142.815 162.288 142.619 161.995C140.629 159.829 138.528 157.724 136.408 155.602L136.406 155.6C135.525 154.718 134.641 153.832 133.761 152.938C126.116 158.834 118.542 164.625 110.94 170.438Z" fill="white"/>
    <path d="M152.316 92.2234C151.059 93.1626 149.786 94.1137 148.488 95.0802L150.472 96.5827C155.509 100.259 159.652 104.988 162.602 110.43C162.972 110.911 163.137 111.517 163.06 112.116C162.982 112.716 162.67 113.262 162.188 113.637C159.812 115.871 157.373 118.409 155.307 120.601C154.282 121.69 153.658 122.068 153.573 122.542C153.487 123.024 153.955 123.605 155.121 125.129C162.133 134.239 169.118 143.334 176.074 152.417C177.05 153.695 178.039 154.952 179.035 156.216C179.747 157.122 180.463 158.031 181.179 158.954C181.324 158.826 181.453 158.732 181.557 158.655C181.734 158.526 181.84 158.447 181.84 158.345C186.468 150.044 189.111 140.816 189.568 131.362C189.88 124.691 189.027 118.016 187.047 111.627C183.708 100.284 177.133 90.1172 168.098 82.3298C167.251 81.5988 166.672 81.6801 165.804 82.3298C164.473 83.4175 163.022 84.4201 161.539 85.4455C160.973 85.8364 160.403 86.2306 159.833 86.6341C157.343 88.4688 154.862 90.3218 152.316 92.2234Z" fill="white"/>
    <path d="M76.8636 15.4375C76.111 13.1937 73.5825 12.0857 71.4599 13.1325C62.0531 17.7716 53.2985 23.5321 45.3708 30.2395C43.5681 31.7647 43.5693 34.5173 45.3163 36.1059L48.8349 39.3056C52.6004 42.7298 58.3092 42.7373 62.3922 39.6987C65.8833 37.1006 69.5337 34.7046 73.3262 32.5281C77.7272 30.0023 80.0001 24.7879 78.3864 19.977L76.8636 15.4375Z" fill="#FF5487"/>
    <path d="M136.949 10.8708C136.129 15.0882 132.296 18 128 18C122.839 18 117.761 18.3554 112.789 19.0431C107.716 19.7448 102.687 16.955 101.058 12.0998L99.5627 7.64118C98.8153 5.41317 100.14 3.01847 102.443 2.55177C110.701 0.878372 119.248 0 128 0C130.189 0 132.366 0.0549658 134.528 0.163593C136.904 0.282934 138.576 2.50078 138.122 4.83572L136.949 10.8708Z" fill="#FF5487"/>
    <path d="M22.2059 169.556C24.1891 168.973 26.2823 170.002 27.1079 171.897C44.0586 210.802 82.853 238 128 238C188.751 238 238 188.751 238 128C238 79.343 206.408 38.0647 162.618 23.5578C160.659 22.9091 159.444 20.9241 159.838 18.8992L160.523 15.3752C161.637 9.64034 167.429 6.04663 172.899 8.0962C221.445 26.2828 256 73.1059 256 128C256 198.692 198.692 256 128 256C77.2142 256 33.3364 226.423 12.6519 183.555C10.1169 178.301 13.1543 172.213 18.7516 170.57L22.2059 169.556Z" fill="#FF5487"/>
    <path d="M10.104 111.589C15.1124 112.752 18.3728 117.525 18.1273 122.661C18.0428 124.43 18 126.21 18 128C18 130.91 18.113 133.793 18.3348 136.646C18.7246 141.659 15.7523 146.437 10.9275 147.854L6.25453 149.226C3.96773 149.898 1.59959 148.433 1.26607 146.073C0.431593 140.169 0 134.135 0 128C0 123.224 0.261589 118.509 0.771221 113.868C1.02699 111.54 3.27963 110.004 5.56174 110.534L10.104 111.589Z" fill="#FF5487"/>
    <path d="M32.5788 56.9624C36.364 60.4045 36.8959 66.1245 34.2169 70.4834C31.9173 74.2251 29.8353 78.1149 27.9885 82.1353C25.8786 86.7285 20.9209 89.4626 15.9973 88.319L11.2973 87.2273C8.9853 86.6903 7.64198 84.2674 8.49426 82.0521C12.2916 72.182 17.2765 62.9012 23.2739 54.3848C24.6279 52.4622 27.3552 52.2123 29.095 53.7944L32.5788 56.9624Z" fill="#FF5487"/>
</svg>