<svg viewBox="0 0 256 256" fill="none" 
    xmlns="http://www.w3.org/2000/svg">
    <path d="M83.8058 12.5072C83.1809 10.2341 80.733 8.98669 78.5588 9.89798C68.2122 14.2345 58.5559 19.8911 49.8005 26.6569C47.9359 28.0978 47.8112 30.8406 49.4774 32.5068L52.8234 35.8529C56.4318 39.4613 62.1524 39.7303 66.3771 36.868C70.4803 34.088 74.7813 31.5779 79.2545 29.363C83.8246 27.1002 86.4147 21.9976 85.063 17.0804L83.8058 12.5072Z" fill="#00CBBE"/>
    <path d="M15.9979 109.152C17.9611 109.701 19.1895 111.637 18.9264 113.659C18.3152 118.353 18 123.14 18 128C18 188.751 67.2487 238 128 238C188.751 238 238 188.751 238 128C238 67.2487 188.751 18 128 18C123.301 18 118.671 18.2946 114.128 18.8664C112.105 19.1209 110.174 17.8841 109.634 15.9186L108.701 12.526C107.138 6.83918 110.813 1.00744 116.688 0.492981C120.415 0.166622 124.188 0 128 0C198.692 0 256 57.3076 256 128C256 198.692 198.692 256 128 256C57.3076 256 0 198.692 0 128C0 124.001 0.183376 120.045 0.542174 116.14C1.08176 110.267 6.9292 106.617 12.6092 108.205L15.9979 109.152Z" fill="#00CBBE"/>
    <path d="M35.8529 52.8234C39.4613 56.4319 39.7303 62.1524 36.868 66.3772C34.1758 70.3509 31.7366 74.51 29.5736 78.8315C27.2911 83.3917 22.1776 85.9597 17.2663 84.5869L12.6984 83.3101C10.4279 82.6754 9.19107 80.2221 10.1118 78.0517C14.4198 67.8966 20.0017 58.4127 26.6569 49.8005C28.0978 47.9359 30.8406 47.8112 32.5068 49.4774L35.8529 52.8234Z" fill="#00CBBE"/>
    <path d="M190.936 192.087C182.559 200.48 172.581 207.1 161.597 211.551C150.612 216.003 138.845 218.196 126.997 218C115.217 218.227 103.514 216.047 92.6042 211.591C81.6944 207.136 71.8065 200.499 63.5452 192.087C55.091 183.845 48.4211 173.948 43.9502 163.013C39.4794 152.079 37.3034 140.34 37.5576 128.527C37.5576 102.659 46.2201 81.1095 63.5452 63.8789C71.8122 55.4788 81.7026 48.8545 92.6121 44.4107C103.522 39.9669 115.222 37.7968 126.997 38.0332C138.84 37.8281 150.604 40.0105 161.589 44.4507C172.573 48.8908 182.553 55.4979 190.936 63.8789C208.66 81.1095 217.522 102.659 217.522 128.527C217.751 140.39 215.505 152.172 210.927 163.116C206.349 174.061 199.54 183.929 190.936 192.087Z" fill="#C8C8C8"/>
    <path d="M127.538 66.3015L91.5376 127.649L127.538 110.837V66.3015Z" fill="#8B8B8B"/>
    <path d="M127.538 110.837L91.5376 127.649L127.538 149.491V110.837Z" fill="#393939"/>
    <path d="M127.537 66.3015V110.837L163.503 127.649L127.537 66.3015Z" fill="#343434"/>
    <path d="M127.537 110.837V149.491L163.503 127.649L127.537 110.837Z" fill="#161616"/>
    <path d="M91.5376 134.651L127.538 186.757V156.51L91.5376 134.651Z" fill="#8B8B8B"/>
    <path d="M163.538 134.651L127.537 156.51V186.757L163.538 134.651Z" fill="#343434"/>
</svg>