<svg viewBox="0 0 256 256" fill="none" 
    xmlns="http://www.w3.org/2000/svg">
    <path d="M190.881 191.532C182.504 199.925 172.526 206.545 161.541 210.996C150.557 215.448 138.79 217.641 126.942 217.445C115.162 217.672 103.459 215.492 92.5491 211.036C81.6392 206.581 71.7514 199.944 63.49 191.532C55.0359 183.29 48.3659 173.393 43.8951 162.458C39.4243 151.524 37.2482 139.785 37.5024 127.972C37.5024 102.104 46.1649 80.5544 63.49 63.3239C71.757 54.9237 81.6474 48.2994 92.557 43.8556C103.467 39.4118 115.166 37.2418 126.942 37.4781C138.785 37.273 150.549 39.4555 161.534 43.8956C172.518 48.3357 182.498 54.9429 190.881 63.3239C208.604 80.5544 217.466 102.104 217.466 127.972C217.696 139.835 215.45 151.617 210.872 162.561C206.294 173.506 199.485 183.374 190.881 191.532Z" fill="#C8C8C8"/>
    <path d="M127.483 65.7464L91.4824 127.094L127.483 110.282V65.7464Z" fill="#8B8B8B"/>
    <path d="M127.483 110.282L91.4824 127.094L127.483 148.935V110.282Z" fill="#393939"/>
    <path d="M127.482 65.7464V110.282L163.448 127.094L127.482 65.7464Z" fill="#343434"/>
    <path d="M127.482 110.282V148.935L163.448 127.094L127.482 110.282Z" fill="#161616"/>
    <path d="M91.4824 134.096L127.483 186.202V155.955L91.4824 134.096Z" fill="#8B8B8B"/>
    <path d="M163.482 134.096L127.482 155.955V186.202L163.482 134.096Z" fill="#343434"/>
    <path d="M115.445 4.38916C115.445 2.03377 113.419 0.182829 111.082 0.480954C99.2412 1.99183 87.9057 5.12055 77.3043 9.63845C75.1368 10.5622 74.3249 13.1848 75.5172 15.217L77.914 19.3025C80.4962 23.7039 85.9638 25.4059 90.775 23.7053C95.8786 21.9012 101.155 20.4632 106.573 19.4225C111.586 18.4595 115.445 14.2235 115.445 9.11817V4.38916Z" fill="#00CBBE"/>
    <path d="M14.5024 139.445C16.5446 139.445 18.2514 140.989 18.5378 143.011C26.0992 196.391 71.9777 237.445 127.445 237.445C188.196 237.445 237.445 188.196 237.445 127.445C237.445 71.9777 196.391 26.0991 143.011 18.5378C140.989 18.2514 139.445 16.5446 139.445 14.5024V10.9729C139.445 5.08442 144.524 0.437403 150.318 1.48279C210.097 12.2666 255.445 64.56 255.445 127.445C255.445 198.137 198.137 255.445 127.445 255.445C64.56 255.445 12.2666 210.097 1.48279 150.318C0.437402 144.523 5.08442 139.445 10.9729 139.445H14.5024Z" fill="#00CBBE"/>
    <path d="M19.3025 77.914C23.7039 80.4961 25.4059 85.9638 23.7053 90.775C21.9012 95.8785 20.4632 101.155 19.4225 106.573C18.4595 111.586 14.2235 115.445 9.11817 115.445H4.38916C2.03377 115.445 0.182829 113.419 0.480954 111.082C1.99184 99.2412 5.12056 87.9057 9.63846 77.3043C10.5622 75.1367 13.1848 74.3249 15.217 75.5172L19.3025 77.914Z" fill="#00CBBE"/>
    <path d="M57.2301 31.4753C59.8096 35.8722 58.6334 41.4698 54.8065 44.8375C51.2754 47.945 47.945 51.2754 44.8375 54.8066C41.4698 58.6334 35.8722 59.8096 31.4753 57.2301L27.3853 54.8306C25.351 53.6372 24.7816 50.948 26.2267 49.084C32.8529 40.5375 40.5375 32.8529 49.084 26.2267C50.948 24.7816 53.6372 25.351 54.8306 27.3853L57.2301 31.4753Z" fill="#00CBBE"/>
</svg>