<svg viewBox="0 0 256 256" fill="none" 
    xmlns="http://www.w3.org/2000/svg">
    <path d="M191.936 192.087C183.559 200.48 173.581 207.1 162.597 211.551C151.612 216.003 139.845 218.196 127.997 218C116.217 218.227 104.514 216.047 93.6042 211.591C82.6944 207.136 72.8065 200.499 64.5452 192.087C56.091 183.845 49.4211 173.948 44.9502 163.013C40.4794 152.079 38.3034 140.34 38.5576 128.527C38.5576 102.659 47.2201 81.1095 64.5452 63.8789C72.8122 55.4788 82.7026 48.8545 93.6121 44.4107C104.522 39.9669 116.222 37.7968 127.997 38.0332C139.84 37.8281 151.604 40.0105 162.589 44.4507C173.573 48.8908 183.553 55.4979 191.936 63.8789C209.66 81.1095 218.522 102.659 218.522 128.527C218.751 140.39 216.505 152.172 211.927 163.116C207.349 174.061 200.54 183.929 191.936 192.087Z" fill="#C8C8C8"/>
    <path d="M128.538 66.3015L92.5376 127.649L128.538 110.837V66.3015Z" fill="#8B8B8B"/>
    <path d="M128.538 110.837L92.5376 127.649L128.538 149.491V110.837Z" fill="#393939"/>
    <path d="M128.537 66.3015V110.837L164.503 127.649L128.537 66.3015Z" fill="#343434"/>
    <path d="M128.537 110.837V149.491L164.503 127.649L128.537 110.837Z" fill="#161616"/>
    <path d="M92.5376 134.651L128.538 186.757V156.51L92.5376 134.651Z" fill="#8B8B8B"/>
    <path d="M164.538 134.651L128.537 156.51V186.757L164.538 134.651Z" fill="#343434"/>
    <path d="M238 128C238 188.751 188.751 238 128 238C67.2487 238 18 188.751 18 128C18 112.832 21.07 98.381 26.6226 85.2346C27.4168 83.3542 26.747 81.1572 24.9973 80.1058L20.0891 77.1565C16.0501 74.7294 10.7769 76.2959 9.03376 80.6739C3.20489 95.3134 0 111.282 0 128C0 198.692 57.3076 256 128 256C198.692 256 256 198.692 256 128C256 57.3076 198.692 0 128 0C112.361 0 97.3777 2.80456 83.5247 7.93816C79.1057 9.57571 77.4136 14.8104 79.7439 18.9065L82.5752 23.8835C83.5845 25.6576 85.7646 26.3797 87.6634 25.6309C100.153 20.7057 113.76 18 128 18C188.751 18 238 67.2487 238 128Z" fill="#FF5487"/>
    <path d="M56.4692 44.431C60.3403 41.1144 61.5908 35.5331 59.0702 31.1024L56.7252 26.9804C55.5589 24.9303 52.8774 24.3251 50.9944 25.7454C42.2623 32.3318 34.4006 40.0108 27.6126 48.5791C26.148 50.4278 26.6892 53.1228 28.7108 54.3375L32.7749 56.7797C37.1445 59.4054 42.7544 58.288 46.1621 54.4965C49.3748 50.9219 52.8183 47.5589 56.4692 44.431Z" fill="#FF5487"/>
</svg>