<svg width="160" height="155" viewBox="0 0 160 155" fill="none" 
    xmlns="http://www.w3.org/2000/svg">
    <path d="M139 135H19V155H139V135Z" fill="#33DFCC"/>
    <path d="M119 27H158.891V106H119V27Z" fill="#003CDA" stroke="#000085" stroke-width="2"/>
    <path d="M1 27H40.8909V106H1V27Z" fill="#003CDA" stroke="#000085" stroke-width="2"/>
    <path d="M120 8H38V122H120V8Z" fill="#33DFCC" stroke="#000085" stroke-width="2"/>
    <path d="M78.9994 14.7185C82.6445 14.7185 85.5995 11.7568 85.5995 8.1034C85.5995 4.44997 82.6445 1.48828 78.9994 1.48828C75.3543 1.48828 72.3994 4.44997 72.3994 8.1034C72.3994 11.7568 75.3543 14.7185 78.9994 14.7185Z" fill="#33DFCC" stroke="#000085" stroke-width="2"/>
    <path d="M52 53H61V80H52V53Z" fill="#003CDA" stroke="#000085" stroke-width="2"/>
    <path d="M67 66H76V80H67V66Z" fill="#003CDA" stroke="#000085" stroke-width="2"/>
    <path d="M82 37H91V80H82V37Z" fill="#003CDA" stroke="#000085" stroke-width="2"/>
    <path d="M97 47.125H106V80H97V47.125Z" fill="#003CDA" stroke="#000085" stroke-width="2"/>
    <rect x="123" y="46" width="19" height="4" fill="#276BFB"/>
    <rect x="12" y="46" width="23" height="4" fill="#276BFB"/>
    <rect x="123" y="56" width="14" height="4" fill="#276BFB"/>
    <rect x="12" y="56" width="18" height="4" fill="#276BFB"/>
    <rect x="123" y="66" width="19" height="4" fill="#276BFB"/>
    <rect x="12" y="66" width="23" height="4" fill="#276BFB"/>
    <rect x="123" y="92" width="10" height="4" fill="#276BFB"/>
    <rect x="12" y="92" width="18" height="4" fill="#276BFB"/>
</svg>