<svg width="150" height="137" viewBox="0 0 150 137" fill="none" 
    xmlns="http://www.w3.org/2000/svg">
    <g clip-path="url(#icon-economic)">
        <path d="M150 117.155H0V137H150V117.155Z" fill="#33DFCC"/>
        <path d="M24.3994 7.50183H125.599V107.134H24.3994V7.50183Z" fill="#003CDA" stroke="#000085" stroke-width="2"/>
        <path d="M126 7.10315H24V61.2269H126V7.10315Z" fill="#276BFB" stroke="#000085" stroke-width="2"/>
        <path d="M85.9995 61.2268C85.9995 67.3193 81.0725 72.2543 74.9995 72.2543C68.9265 72.2543 63.9995 67.3193 63.9995 61.2268C63.9995 55.1344 68.9265 50.1993 74.9995 50.1993C81.0725 50.1993 85.9995 55.1344 85.9995 61.2268Z" fill="#33DFCC" stroke="#000085" stroke-width="2"/>
        <path d="M74.9994 76.8625C83.615 76.8625 90.5994 69.8622 90.5994 61.2268C90.5994 52.5914 83.615 45.5911 74.9994 45.5911C66.3838 45.5911 59.3994 52.5914 59.3994 61.2268C59.3994 69.8622 66.3838 76.8625 74.9994 76.8625Z" stroke="#000085" stroke-width="2"/>
        <path d="M74.9994 13.7183C78.6445 13.7183 81.5995 10.7566 81.5995 7.10316C81.5995 3.44973 78.6445 0.488037 74.9994 0.488037C71.3543 0.488037 68.3994 3.44973 68.3994 7.10316C68.3994 10.7566 71.3543 13.7183 74.9994 13.7183Z" fill="#33DFCC" stroke="#000085" stroke-width="2"/>
    </g>
    <defs>
        <clipPath id="icon-economic">
            <rect width="150" height="137" fill="white"/>
        </clipPath>
    </defs>
</svg>