<svg width="160" height="154" viewBox="0 0 160 154" fill="none" 
    xmlns="http://www.w3.org/2000/svg">
    <path d="M43.3981 59.7267C43.3981 82.4263 61.7571 100.824 84.3993 100.824C107.041 100.824 125.4 82.4263 125.4 59.7267C125.4 37.0271 107.041 18.6294 84.3993 18.6294C61.7571 18.6294 43.3981 37.0271 43.3981 59.7267Z" fill="#33DFCC" stroke="#000085" stroke-width="2"/>
    <path d="M55.9413 50.5001C58.9568 41.2336 66.5042 33.9602 76.0195 31.2009" stroke="white" stroke-width="5"/>
    <path d="M84.5 118C52.1913 118 26 91.8087 26 59.5C26 27.1913 52.1913 1 84.5 1C116.809 1 143 27.1913 143 59.5C143 91.8087 116.809 118 84.5 118Z" stroke="#000085" stroke-width="2"/>
    <path d="M160 134.155H10V154H160V134.155Z" fill="#33DFCC"/>
    <path d="M34 107H135.2V124H34V107Z" fill="#003CDA" stroke="#000085" stroke-width="2"/>
    <path d="M108 93H62C55.9249 93 51 97.9249 51 104V107H119V104C119 97.9249 114.075 93 108 93Z" fill="#276BFB" stroke="#000085" stroke-width="2"/>
    <path d="M97.5 96C99.433 96 101 94.433 101 92.5C101 90.567 99.433 89 97.5 89C95.567 89 94 90.567 94 92.5C94 94.433 95.567 96 97.5 96Z" fill="#33DFCC" stroke="#000085" stroke-width="2"/>
    <path d="M6.99895 76C6.99895 79.5 3.49983 83 0 83.0014C3.49884 83.0028 6.99698 86.5008 6.99895 89.9998C6.99895 90.0006 6.99895 89.9989 6.99895 89.9998C7.00092 86.5001 10.5005 83.0014 14 83.0014C10.4995 83.0014 6.99895 79.5007 6.99895 76Z" fill="white"/>
    <path d="M6.99895 89.9998C6.99698 86.5008 3.49884 83.0028 0 83.0014C3.49983 83 6.99895 79.5 6.99895 76C6.99895 79.5007 10.4995 83.0014 14 83.0014C10.5005 83.0014 7.00092 86.5001 6.99895 89.9998ZM6.99895 89.9998C6.99895 89.9989 6.99895 90.0006 6.99895 89.9998Z" stroke="#000085" stroke-width="2"/>
    <path d="M125.998 7C125.998 12.5 120.5 17.9999 115 18.0021C120.498 18.0043 125.995 23.5012 125.998 28.9996C125.998 29.0009 125.998 28.9983 125.998 28.9996C126.001 23.5001 131.501 18.0021 137 18.0021C131.499 18.0021 125.998 12.5011 125.998 7Z" fill="white"/>
    <path d="M125.998 28.9996C125.995 23.5012 120.498 18.0043 115 18.0021C120.5 17.9999 125.998 12.5 125.998 7C125.998 12.5011 131.499 18.0021 137 18.0021C131.501 18.0021 126.001 23.5001 125.998 28.9996ZM125.998 28.9996C125.998 28.9983 125.998 29.0009 125.998 28.9996Z" stroke="#000085" stroke-width="2"/>
</svg>