<svg width="150" height="145" viewBox="0 0 150 145" fill="none" 
    xmlns="http://www.w3.org/2000/svg">
    <path d="M150 125.155H0V145H150V125.155Z" fill="#33DFCC"/>
    <path d="M75 2L125 12V58.2712C125 85.442 105.822 108.836 79.1786 114.164L75 115V2Z" fill="#003CDA"/>
    <path d="M75 2L75.1961 1.01942L74 0.780196V2H75ZM125 12H126V11.1802L125.196 11.0194L125 12ZM75 115H74L75.1961 115.981L75 115ZM74.8039 2.98058L124.804 12.9806L125.196 11.0194L75.1961 1.01942L74.8039 2.98058ZM124 12V58.2712H126V12H124ZM78.9825 113.184L74.8039 114.019L75.1961 115.981L79.3747 115.145L78.9825 113.184ZM76 115V2H74V115H76ZM124 58.2712C124 84.9653 105.158 107.949 78.9825 113.184L79.3747 115.145C106.485 109.723 126 85.9187 126 58.2712H124Z" fill="#000085"/>
    <path d="M75 2L25 12V58.2712C25 85.442 44.1782 108.836 70.8214 114.164L75 115V2Z" fill="#276BFB"/>
    <path d="M75 2L74.8039 1.01942L76 0.780196V2H75ZM25 12H24V11.1802L24.8039 11.0194L25 12ZM75 115H76L74.8039 115.981L75 115ZM75.1961 2.98058L25.1961 12.9806L24.8039 11.0194L74.8039 1.01942L75.1961 2.98058ZM26 12V58.2712H24V12H26ZM71.0175 113.184L75.1961 114.019L74.8039 115.981L70.6253 115.145L71.0175 113.184ZM74 115V2H76V115H74ZM26 58.2712C26 84.9653 44.8417 107.949 71.0175 113.184L70.6253 115.145C43.5147 109.723 24 85.9187 24 58.2712H26Z" fill="#000085"/>
    <path d="M107.706 44.6515L108.416 43.9435L107.706 43.2356L99.7446 35.2921L99.0383 34.5874L98.332 35.2921L74.8702 58.7003L62.668 46.526L61.9617 45.8213L61.2554 46.526L53.2937 54.4695L52.5842 55.1774L53.2937 55.8853L74.1639 76.7079L74.8702 77.4126L75.5765 76.7079L107.706 44.6515Z" fill="#33DFCC" stroke="#000085" stroke-width="2"/>
</svg>